<?xml version="1.0" encoding="utf-8" standalone="no"?>
<!DOCTYPE svg PUBLIC "-//W3C//DTD SVG 1.1//EN"
  "http://www.w3.org/Graphics/SVG/1.1/DTD/svg11.dtd">
<!-- Created with matplotlib (http://matplotlib.org/) -->
<svg height="277.314375pt" version="1.1" viewBox="0 0 460.708125 277.314375" width="460.708125pt" xmlns="http://www.w3.org/2000/svg" xmlns:xlink="http://www.w3.org/1999/xlink">
 <defs>
  <style type="text/css">
*{stroke-linecap:butt;stroke-linejoin:round;}
  </style>
 </defs>
 <g id="figure_1">
  <g id="patch_1">
   <path d="M 0 277.314375 
L 460.708125 277.314375 
L 460.708125 0 
L 0 0 
z
" style="fill:#ffffff;"/>
  </g>
  <g id="axes_1">
   <g id="patch_2">
    <path d="M 62.954062 239.758125 
L 397.754062 239.758125 
L 397.754062 22.318125 
L 62.954062 22.318125 
z
" style="fill:#ffffff;"/>
   </g>
   <g id="matplotlib.axis_1">
    <g id="xtick_1">
     <g id="line2d_1">
      <path clip-path="url(#paa22a4733b)" d="M 62.954062 239.758125 
L 62.954062 22.318125 
" style="fill:none;stroke:#b0b0b0;stroke-linecap:square;stroke-width:0.8;"/>
     </g>
     <g id="line2d_2">
      <defs>
       <path d="M 0 0 
L 0 3.5 
" id="m14a7cf0ba2" style="stroke:#000000;stroke-width:0.8;"/>
      </defs>
      <g>
       <use style="stroke:#000000;stroke-width:0.8;" x="62.954062" xlink:href="#m14a7cf0ba2" y="239.758125"/>
      </g>
     </g>
     <g id="text_1">
      <!-- −2 -->
      <defs>
       <path d="M 10.59375 35.5 
L 73.1875 35.5 
L 73.1875 27.203125 
L 10.59375 27.203125 
z
" id="DejaVuSans-2212"/>
       <path d="M 19.1875 8.296875 
L 53.609375 8.296875 
L 53.609375 0 
L 7.328125 0 
L 7.328125 8.296875 
Q 12.9375 14.109375 22.625 23.890625 
Q 32.328125 33.6875 34.8125 36.53125 
Q 39.546875 41.84375 41.421875 45.53125 
Q 43.3125 49.21875 43.3125 52.78125 
Q 43.3125 58.59375 39.234375 62.25 
Q 35.15625 65.921875 28.609375 65.921875 
Q 23.96875 65.921875 18.8125 64.3125 
Q 13.671875 62.703125 7.8125 59.421875 
L 7.8125 69.390625 
Q 13.765625 71.78125 18.9375 73 
Q 24.125 74.21875 28.421875 74.21875 
Q 39.75 74.21875 46.484375 68.546875 
Q 53.21875 62.890625 53.21875 53.421875 
Q 53.21875 48.921875 51.53125 44.890625 
Q 49.859375 40.875 45.40625 35.40625 
Q 44.1875 33.984375 37.640625 27.21875 
Q 31.109375 20.453125 19.1875 8.296875 
z
" id="DejaVuSans-32"/>
      </defs>
      <g transform="translate(55.582969 254.356562)scale(0.1 -0.1)">
       <use xlink:href="#DejaVuSans-2212"/>
       <use x="83.789062" xlink:href="#DejaVuSans-32"/>
      </g>
     </g>
    </g>
    <g id="xtick_2">
     <g id="line2d_3">
      <path clip-path="url(#paa22a4733b)" d="M 90.854062 239.758125 
L 90.854062 22.318125 
" style="fill:none;stroke:#b0b0b0;stroke-linecap:square;stroke-width:0.8;"/>
     </g>
     <g id="line2d_4">
      <g>
       <use style="stroke:#000000;stroke-width:0.8;" x="90.854062" xlink:href="#m14a7cf0ba2" y="239.758125"/>
      </g>
     </g>
     <g id="text_2">
      <!-- 0 -->
      <defs>
       <path d="M 31.78125 66.40625 
Q 24.171875 66.40625 20.328125 58.90625 
Q 16.5 51.421875 16.5 36.375 
Q 16.5 21.390625 20.328125 13.890625 
Q 24.171875 6.390625 31.78125 6.390625 
Q 39.453125 6.390625 43.28125 13.890625 
Q 47.125 21.390625 47.125 36.375 
Q 47.125 51.421875 43.28125 58.90625 
Q 39.453125 66.40625 31.78125 66.40625 
z
M 31.78125 74.21875 
Q 44.046875 74.21875 50.515625 64.515625 
Q 56.984375 54.828125 56.984375 36.375 
Q 56.984375 17.96875 50.515625 8.265625 
Q 44.046875 -1.421875 31.78125 -1.421875 
Q 19.53125 -1.421875 13.0625 8.265625 
Q 6.59375 17.96875 6.59375 36.375 
Q 6.59375 54.828125 13.0625 64.515625 
Q 19.53125 74.21875 31.78125 74.21875 
z
" id="DejaVuSans-30"/>
      </defs>
      <g transform="translate(87.672812 254.356562)scale(0.1 -0.1)">
       <use xlink:href="#DejaVuSans-30"/>
      </g>
     </g>
    </g>
    <g id="xtick_3">
     <g id="line2d_5">
      <path clip-path="url(#paa22a4733b)" d="M 118.754062 239.758125 
L 118.754062 22.318125 
" style="fill:none;stroke:#b0b0b0;stroke-linecap:square;stroke-width:0.8;"/>
     </g>
     <g id="line2d_6">
      <g>
       <use style="stroke:#000000;stroke-width:0.8;" x="118.754062" xlink:href="#m14a7cf0ba2" y="239.758125"/>
      </g>
     </g>
     <g id="text_3">
      <!-- 2 -->
      <g transform="translate(115.572812 254.356562)scale(0.1 -0.1)">
       <use xlink:href="#DejaVuSans-32"/>
      </g>
     </g>
    </g>
    <g id="xtick_4">
     <g id="line2d_7">
      <path clip-path="url(#paa22a4733b)" d="M 146.654062 239.758125 
L 146.654062 22.318125 
" style="fill:none;stroke:#b0b0b0;stroke-linecap:square;stroke-width:0.8;"/>
     </g>
     <g id="line2d_8">
      <g>
       <use style="stroke:#000000;stroke-width:0.8;" x="146.654062" xlink:href="#m14a7cf0ba2" y="239.758125"/>
      </g>
     </g>
     <g id="text_4">
      <!-- 4 -->
      <defs>
       <path d="M 37.796875 64.3125 
L 12.890625 25.390625 
L 37.796875 25.390625 
z
M 35.203125 72.90625 
L 47.609375 72.90625 
L 47.609375 25.390625 
L 58.015625 25.390625 
L 58.015625 17.1875 
L 47.609375 17.1875 
L 47.609375 0 
L 37.796875 0 
L 37.796875 17.1875 
L 4.890625 17.1875 
L 4.890625 26.703125 
z
" id="DejaVuSans-34"/>
      </defs>
      <g transform="translate(143.472812 254.356562)scale(0.1 -0.1)">
       <use xlink:href="#DejaVuSans-34"/>
      </g>
     </g>
    </g>
    <g id="xtick_5">
     <g id="line2d_9">
      <path clip-path="url(#paa22a4733b)" d="M 174.554062 239.758125 
L 174.554062 22.318125 
" style="fill:none;stroke:#b0b0b0;stroke-linecap:square;stroke-width:0.8;"/>
     </g>
     <g id="line2d_10">
      <g>
       <use style="stroke:#000000;stroke-width:0.8;" x="174.554062" xlink:href="#m14a7cf0ba2" y="239.758125"/>
      </g>
     </g>
     <g id="text_5">
      <!-- 6 -->
      <defs>
       <path d="M 33.015625 40.375 
Q 26.375 40.375 22.484375 35.828125 
Q 18.609375 31.296875 18.609375 23.390625 
Q 18.609375 15.53125 22.484375 10.953125 
Q 26.375 6.390625 33.015625 6.390625 
Q 39.65625 6.390625 43.53125 10.953125 
Q 47.40625 15.53125 47.40625 23.390625 
Q 47.40625 31.296875 43.53125 35.828125 
Q 39.65625 40.375 33.015625 40.375 
z
M 52.59375 71.296875 
L 52.59375 62.3125 
Q 48.875 64.0625 45.09375 64.984375 
Q 41.3125 65.921875 37.59375 65.921875 
Q 27.828125 65.921875 22.671875 59.328125 
Q 17.53125 52.734375 16.796875 39.40625 
Q 19.671875 43.65625 24.015625 45.921875 
Q 28.375 48.1875 33.59375 48.1875 
Q 44.578125 48.1875 50.953125 41.515625 
Q 57.328125 34.859375 57.328125 23.390625 
Q 57.328125 12.15625 50.6875 5.359375 
Q 44.046875 -1.421875 33.015625 -1.421875 
Q 20.359375 -1.421875 13.671875 8.265625 
Q 6.984375 17.96875 6.984375 36.375 
Q 6.984375 53.65625 15.1875 63.9375 
Q 23.390625 74.21875 37.203125 74.21875 
Q 40.921875 74.21875 44.703125 73.484375 
Q 48.484375 72.75 52.59375 71.296875 
z
" id="DejaVuSans-36"/>
      </defs>
      <g transform="translate(171.372812 254.356562)scale(0.1 -0.1)">
       <use xlink:href="#DejaVuSans-36"/>
      </g>
     </g>
    </g>
    <g id="xtick_6">
     <g id="line2d_11">
      <path clip-path="url(#paa22a4733b)" d="M 202.454062 239.758125 
L 202.454062 22.318125 
" style="fill:none;stroke:#b0b0b0;stroke-linecap:square;stroke-width:0.8;"/>
     </g>
     <g id="line2d_12">
      <g>
       <use style="stroke:#000000;stroke-width:0.8;" x="202.454062" xlink:href="#m14a7cf0ba2" y="239.758125"/>
      </g>
     </g>
     <g id="text_6">
      <!-- 8 -->
      <defs>
       <path d="M 31.78125 34.625 
Q 24.75 34.625 20.71875 30.859375 
Q 16.703125 27.09375 16.703125 20.515625 
Q 16.703125 13.921875 20.71875 10.15625 
Q 24.75 6.390625 31.78125 6.390625 
Q 38.8125 6.390625 42.859375 10.171875 
Q 46.921875 13.96875 46.921875 20.515625 
Q 46.921875 27.09375 42.890625 30.859375 
Q 38.875 34.625 31.78125 34.625 
z
M 21.921875 38.8125 
Q 15.578125 40.375 12.03125 44.71875 
Q 8.5 49.078125 8.5 55.328125 
Q 8.5 64.0625 14.71875 69.140625 
Q 20.953125 74.21875 31.78125 74.21875 
Q 42.671875 74.21875 48.875 69.140625 
Q 55.078125 64.0625 55.078125 55.328125 
Q 55.078125 49.078125 51.53125 44.71875 
Q 48 40.375 41.703125 38.8125 
Q 48.828125 37.15625 52.796875 32.3125 
Q 56.78125 27.484375 56.78125 20.515625 
Q 56.78125 9.90625 50.3125 4.234375 
Q 43.84375 -1.421875 31.78125 -1.421875 
Q 19.734375 -1.421875 13.25 4.234375 
Q 6.78125 9.90625 6.78125 20.515625 
Q 6.78125 27.484375 10.78125 32.3125 
Q 14.796875 37.15625 21.921875 38.8125 
z
M 18.3125 54.390625 
Q 18.3125 48.734375 21.84375 45.5625 
Q 25.390625 42.390625 31.78125 42.390625 
Q 38.140625 42.390625 41.71875 45.5625 
Q 45.3125 48.734375 45.3125 54.390625 
Q 45.3125 60.0625 41.71875 63.234375 
Q 38.140625 66.40625 31.78125 66.40625 
Q 25.390625 66.40625 21.84375 63.234375 
Q 18.3125 60.0625 18.3125 54.390625 
z
" id="DejaVuSans-38"/>
      </defs>
      <g transform="translate(199.272812 254.356562)scale(0.1 -0.1)">
       <use xlink:href="#DejaVuSans-38"/>
      </g>
     </g>
    </g>
    <g id="xtick_7">
     <g id="line2d_13">
      <path clip-path="url(#paa22a4733b)" d="M 230.354062 239.758125 
L 230.354062 22.318125 
" style="fill:none;stroke:#b0b0b0;stroke-linecap:square;stroke-width:0.8;"/>
     </g>
     <g id="line2d_14">
      <g>
       <use style="stroke:#000000;stroke-width:0.8;" x="230.354062" xlink:href="#m14a7cf0ba2" y="239.758125"/>
      </g>
     </g>
     <g id="text_7">
      <!-- 10 -->
      <defs>
       <path d="M 12.40625 8.296875 
L 28.515625 8.296875 
L 28.515625 63.921875 
L 10.984375 60.40625 
L 10.984375 69.390625 
L 28.421875 72.90625 
L 38.28125 72.90625 
L 38.28125 8.296875 
L 54.390625 8.296875 
L 54.390625 0 
L 12.40625 0 
z
" id="DejaVuSans-31"/>
      </defs>
      <g transform="translate(223.991562 254.356562)scale(0.1 -0.1)">
       <use xlink:href="#DejaVuSans-31"/>
       <use x="63.623047" xlink:href="#DejaVuSans-30"/>
      </g>
     </g>
    </g>
    <g id="xtick_8">
     <g id="line2d_15">
      <path clip-path="url(#paa22a4733b)" d="M 258.254062 239.758125 
L 258.254062 22.318125 
" style="fill:none;stroke:#b0b0b0;stroke-linecap:square;stroke-width:0.8;"/>
     </g>
     <g id="line2d_16">
      <g>
       <use style="stroke:#000000;stroke-width:0.8;" x="258.254062" xlink:href="#m14a7cf0ba2" y="239.758125"/>
      </g>
     </g>
     <g id="text_8">
      <!-- 12 -->
      <g transform="translate(251.891562 254.356562)scale(0.1 -0.1)">
       <use xlink:href="#DejaVuSans-31"/>
       <use x="63.623047" xlink:href="#DejaVuSans-32"/>
      </g>
     </g>
    </g>
    <g id="xtick_9">
     <g id="line2d_17">
      <path clip-path="url(#paa22a4733b)" d="M 286.154062 239.758125 
L 286.154062 22.318125 
" style="fill:none;stroke:#b0b0b0;stroke-linecap:square;stroke-width:0.8;"/>
     </g>
     <g id="line2d_18">
      <g>
       <use style="stroke:#000000;stroke-width:0.8;" x="286.154062" xlink:href="#m14a7cf0ba2" y="239.758125"/>
      </g>
     </g>
     <g id="text_9">
      <!-- 14 -->
      <g transform="translate(279.791562 254.356562)scale(0.1 -0.1)">
       <use xlink:href="#DejaVuSans-31"/>
       <use x="63.623047" xlink:href="#DejaVuSans-34"/>
      </g>
     </g>
    </g>
    <g id="xtick_10">
     <g id="line2d_19">
      <path clip-path="url(#paa22a4733b)" d="M 314.054062 239.758125 
L 314.054062 22.318125 
" style="fill:none;stroke:#b0b0b0;stroke-linecap:square;stroke-width:0.8;"/>
     </g>
     <g id="line2d_20">
      <g>
       <use style="stroke:#000000;stroke-width:0.8;" x="314.054062" xlink:href="#m14a7cf0ba2" y="239.758125"/>
      </g>
     </g>
     <g id="text_10">
      <!-- 16 -->
      <g transform="translate(307.691562 254.356562)scale(0.1 -0.1)">
       <use xlink:href="#DejaVuSans-31"/>
       <use x="63.623047" xlink:href="#DejaVuSans-36"/>
      </g>
     </g>
    </g>
    <g id="xtick_11">
     <g id="line2d_21">
      <path clip-path="url(#paa22a4733b)" d="M 341.954062 239.758125 
L 341.954062 22.318125 
" style="fill:none;stroke:#b0b0b0;stroke-linecap:square;stroke-width:0.8;"/>
     </g>
     <g id="line2d_22">
      <g>
       <use style="stroke:#000000;stroke-width:0.8;" x="341.954062" xlink:href="#m14a7cf0ba2" y="239.758125"/>
      </g>
     </g>
     <g id="text_11">
      <!-- 18 -->
      <g transform="translate(335.591562 254.356562)scale(0.1 -0.1)">
       <use xlink:href="#DejaVuSans-31"/>
       <use x="63.623047" xlink:href="#DejaVuSans-38"/>
      </g>
     </g>
    </g>
    <g id="xtick_12">
     <g id="line2d_23">
      <path clip-path="url(#paa22a4733b)" d="M 369.854062 239.758125 
L 369.854062 22.318125 
" style="fill:none;stroke:#b0b0b0;stroke-linecap:square;stroke-width:0.8;"/>
     </g>
     <g id="line2d_24">
      <g>
       <use style="stroke:#000000;stroke-width:0.8;" x="369.854062" xlink:href="#m14a7cf0ba2" y="239.758125"/>
      </g>
     </g>
     <g id="text_12">
      <!-- 20 -->
      <g transform="translate(363.491562 254.356562)scale(0.1 -0.1)">
       <use xlink:href="#DejaVuSans-32"/>
       <use x="63.623047" xlink:href="#DejaVuSans-30"/>
      </g>
     </g>
    </g>
    <g id="text_13">
     <!-- X -&gt; m -->
     <defs>
      <path d="M 6.296875 72.90625 
L 16.890625 72.90625 
L 35.015625 45.796875 
L 53.21875 72.90625 
L 63.8125 72.90625 
L 40.375 37.890625 
L 65.375 0 
L 54.78125 0 
L 34.28125 31 
L 13.625 0 
L 2.984375 0 
L 29 38.921875 
z
" id="DejaVuSans-58"/>
      <path id="DejaVuSans-20"/>
      <path d="M 4.890625 31.390625 
L 31.203125 31.390625 
L 31.203125 23.390625 
L 4.890625 23.390625 
z
" id="DejaVuSans-2d"/>
      <path d="M 10.59375 49.21875 
L 10.59375 58.109375 
L 73.1875 35.40625 
L 73.1875 27.296875 
L 10.59375 4.59375 
L 10.59375 13.484375 
L 60.890625 31.296875 
z
" id="DejaVuSans-3e"/>
      <path d="M 52 44.1875 
Q 55.375 50.25 60.0625 53.125 
Q 64.75 56 71.09375 56 
Q 79.640625 56 84.28125 50.015625 
Q 88.921875 44.046875 88.921875 33.015625 
L 88.921875 0 
L 79.890625 0 
L 79.890625 32.71875 
Q 79.890625 40.578125 77.09375 44.375 
Q 74.3125 48.1875 68.609375 48.1875 
Q 61.625 48.1875 57.5625 43.546875 
Q 53.515625 38.921875 53.515625 30.90625 
L 53.515625 0 
L 44.484375 0 
L 44.484375 32.71875 
Q 44.484375 40.625 41.703125 44.40625 
Q 38.921875 48.1875 33.109375 48.1875 
Q 26.21875 48.1875 22.15625 43.53125 
Q 18.109375 38.875 18.109375 30.90625 
L 18.109375 0 
L 9.078125 0 
L 9.078125 54.6875 
L 18.109375 54.6875 
L 18.109375 46.1875 
Q 21.1875 51.21875 25.484375 53.609375 
Q 29.78125 56 35.6875 56 
Q 41.65625 56 45.828125 52.96875 
Q 50 49.953125 52 44.1875 
z
" id="DejaVuSans-6d"/>
     </defs>
     <g transform="translate(212.886875 268.034687)scale(0.1 -0.1)">
      <use xlink:href="#DejaVuSans-58"/>
      <use x="68.505859" xlink:href="#DejaVuSans-20"/>
      <use x="100.292969" xlink:href="#DejaVuSans-2d"/>
      <use x="136.376953" xlink:href="#DejaVuSans-3e"/>
      <use x="220.166016" xlink:href="#DejaVuSans-20"/>
      <use x="251.953125" xlink:href="#DejaVuSans-6d"/>
     </g>
    </g>
   </g>
   <g id="matplotlib.axis_2">
    <g id="ytick_1">
     <g id="line2d_25">
      <path clip-path="url(#paa22a4733b)" d="M 62.954062 239.758125 
L 397.754062 239.758125 
" style="fill:none;stroke:#b0b0b0;stroke-linecap:square;stroke-width:0.8;"/>
     </g>
     <g id="line2d_26">
      <defs>
       <path d="M 0 0 
L -3.5 0 
" id="m8c35418824" style="stroke:#000000;stroke-width:0.8;"/>
      </defs>
      <g>
       <use style="stroke:#000000;stroke-width:0.8;" x="62.954062" xlink:href="#m8c35418824" y="239.758125"/>
      </g>
     </g>
     <g id="text_14">
      <!-- −2 -->
      <g transform="translate(41.211875 243.557344)scale(0.1 -0.1)">
       <use xlink:href="#DejaVuSans-2212"/>
       <use x="83.789062" xlink:href="#DejaVuSans-32"/>
      </g>
     </g>
    </g>
    <g id="ytick_2">
     <g id="line2d_27">
      <path clip-path="url(#paa22a4733b)" d="M 62.954062 221.638125 
L 397.754062 221.638125 
" style="fill:none;stroke:#b0b0b0;stroke-linecap:square;stroke-width:0.8;"/>
     </g>
     <g id="line2d_28">
      <g>
       <use style="stroke:#000000;stroke-width:0.8;" x="62.954062" xlink:href="#m8c35418824" y="221.638125"/>
      </g>
     </g>
     <g id="text_15">
      <!-- 0 -->
      <g transform="translate(49.591562 225.437344)scale(0.1 -0.1)">
       <use xlink:href="#DejaVuSans-30"/>
      </g>
     </g>
    </g>
    <g id="ytick_3">
     <g id="line2d_29">
      <path clip-path="url(#paa22a4733b)" d="M 62.954062 203.518125 
L 397.754062 203.518125 
" style="fill:none;stroke:#b0b0b0;stroke-linecap:square;stroke-width:0.8;"/>
     </g>
     <g id="line2d_30">
      <g>
       <use style="stroke:#000000;stroke-width:0.8;" x="62.954062" xlink:href="#m8c35418824" y="203.518125"/>
      </g>
     </g>
     <g id="text_16">
      <!-- 2 -->
      <g transform="translate(49.591562 207.317344)scale(0.1 -0.1)">
       <use xlink:href="#DejaVuSans-32"/>
      </g>
     </g>
    </g>
    <g id="ytick_4">
     <g id="line2d_31">
      <path clip-path="url(#paa22a4733b)" d="M 62.954062 185.398125 
L 397.754062 185.398125 
" style="fill:none;stroke:#b0b0b0;stroke-linecap:square;stroke-width:0.8;"/>
     </g>
     <g id="line2d_32">
      <g>
       <use style="stroke:#000000;stroke-width:0.8;" x="62.954062" xlink:href="#m8c35418824" y="185.398125"/>
      </g>
     </g>
     <g id="text_17">
      <!-- 4 -->
      <g transform="translate(49.591562 189.197344)scale(0.1 -0.1)">
       <use xlink:href="#DejaVuSans-34"/>
      </g>
     </g>
    </g>
    <g id="ytick_5">
     <g id="line2d_33">
      <path clip-path="url(#paa22a4733b)" d="M 62.954062 167.278125 
L 397.754062 167.278125 
" style="fill:none;stroke:#b0b0b0;stroke-linecap:square;stroke-width:0.8;"/>
     </g>
     <g id="line2d_34">
      <g>
       <use style="stroke:#000000;stroke-width:0.8;" x="62.954062" xlink:href="#m8c35418824" y="167.278125"/>
      </g>
     </g>
     <g id="text_18">
      <!-- 6 -->
      <g transform="translate(49.591562 171.077344)scale(0.1 -0.1)">
       <use xlink:href="#DejaVuSans-36"/>
      </g>
     </g>
    </g>
    <g id="ytick_6">
     <g id="line2d_35">
      <path clip-path="url(#paa22a4733b)" d="M 62.954062 149.158125 
L 397.754062 149.158125 
" style="fill:none;stroke:#b0b0b0;stroke-linecap:square;stroke-width:0.8;"/>
     </g>
     <g id="line2d_36">
      <g>
       <use style="stroke:#000000;stroke-width:0.8;" x="62.954062" xlink:href="#m8c35418824" y="149.158125"/>
      </g>
     </g>
     <g id="text_19">
      <!-- 8 -->
      <g transform="translate(49.591562 152.957344)scale(0.1 -0.1)">
       <use xlink:href="#DejaVuSans-38"/>
      </g>
     </g>
    </g>
    <g id="ytick_7">
     <g id="line2d_37">
      <path clip-path="url(#paa22a4733b)" d="M 62.954062 131.038125 
L 397.754062 131.038125 
" style="fill:none;stroke:#b0b0b0;stroke-linecap:square;stroke-width:0.8;"/>
     </g>
     <g id="line2d_38">
      <g>
       <use style="stroke:#000000;stroke-width:0.8;" x="62.954062" xlink:href="#m8c35418824" y="131.038125"/>
      </g>
     </g>
     <g id="text_20">
      <!-- 10 -->
      <g transform="translate(43.229062 134.837344)scale(0.1 -0.1)">
       <use xlink:href="#DejaVuSans-31"/>
       <use x="63.623047" xlink:href="#DejaVuSans-30"/>
      </g>
     </g>
    </g>
    <g id="ytick_8">
     <g id="line2d_39">
      <path clip-path="url(#paa22a4733b)" d="M 62.954062 112.918125 
L 397.754062 112.918125 
" style="fill:none;stroke:#b0b0b0;stroke-linecap:square;stroke-width:0.8;"/>
     </g>
     <g id="line2d_40">
      <g>
       <use style="stroke:#000000;stroke-width:0.8;" x="62.954062" xlink:href="#m8c35418824" y="112.918125"/>
      </g>
     </g>
     <g id="text_21">
      <!-- 12 -->
      <g transform="translate(43.229062 116.717344)scale(0.1 -0.1)">
       <use xlink:href="#DejaVuSans-31"/>
       <use x="63.623047" xlink:href="#DejaVuSans-32"/>
      </g>
     </g>
    </g>
    <g id="ytick_9">
     <g id="line2d_41">
      <path clip-path="url(#paa22a4733b)" d="M 62.954062 94.798125 
L 397.754062 94.798125 
" style="fill:none;stroke:#b0b0b0;stroke-linecap:square;stroke-width:0.8;"/>
     </g>
     <g id="line2d_42">
      <g>
       <use style="stroke:#000000;stroke-width:0.8;" x="62.954062" xlink:href="#m8c35418824" y="94.798125"/>
      </g>
     </g>
     <g id="text_22">
      <!-- 14 -->
      <g transform="translate(43.229062 98.597344)scale(0.1 -0.1)">
       <use xlink:href="#DejaVuSans-31"/>
       <use x="63.623047" xlink:href="#DejaVuSans-34"/>
      </g>
     </g>
    </g>
    <g id="ytick_10">
     <g id="line2d_43">
      <path clip-path="url(#paa22a4733b)" d="M 62.954062 76.678125 
L 397.754062 76.678125 
" style="fill:none;stroke:#b0b0b0;stroke-linecap:square;stroke-width:0.8;"/>
     </g>
     <g id="line2d_44">
      <g>
       <use style="stroke:#000000;stroke-width:0.8;" x="62.954062" xlink:href="#m8c35418824" y="76.678125"/>
      </g>
     </g>
     <g id="text_23">
      <!-- 16 -->
      <g transform="translate(43.229062 80.477344)scale(0.1 -0.1)">
       <use xlink:href="#DejaVuSans-31"/>
       <use x="63.623047" xlink:href="#DejaVuSans-36"/>
      </g>
     </g>
    </g>
    <g id="ytick_11">
     <g id="line2d_45">
      <path clip-path="url(#paa22a4733b)" d="M 62.954062 58.558125 
L 397.754062 58.558125 
" style="fill:none;stroke:#b0b0b0;stroke-linecap:square;stroke-width:0.8;"/>
     </g>
     <g id="line2d_46">
      <g>
       <use style="stroke:#000000;stroke-width:0.8;" x="62.954062" xlink:href="#m8c35418824" y="58.558125"/>
      </g>
     </g>
     <g id="text_24">
      <!-- 18 -->
      <g transform="translate(43.229062 62.357344)scale(0.1 -0.1)">
       <use xlink:href="#DejaVuSans-31"/>
       <use x="63.623047" xlink:href="#DejaVuSans-38"/>
      </g>
     </g>
    </g>
    <g id="ytick_12">
     <g id="line2d_47">
      <path clip-path="url(#paa22a4733b)" d="M 62.954062 40.438125 
L 397.754062 40.438125 
" style="fill:none;stroke:#b0b0b0;stroke-linecap:square;stroke-width:0.8;"/>
     </g>
     <g id="line2d_48">
      <g>
       <use style="stroke:#000000;stroke-width:0.8;" x="62.954062" xlink:href="#m8c35418824" y="40.438125"/>
      </g>
     </g>
     <g id="text_25">
      <!-- 20 -->
      <g transform="translate(43.229062 44.237344)scale(0.1 -0.1)">
       <use xlink:href="#DejaVuSans-32"/>
       <use x="63.623047" xlink:href="#DejaVuSans-30"/>
      </g>
     </g>
    </g>
    <g id="text_26">
     <!-- Y -&gt; m -->
     <defs>
      <path d="M -0.203125 72.90625 
L 10.40625 72.90625 
L 30.609375 42.921875 
L 50.6875 72.90625 
L 61.28125 72.90625 
L 35.5 34.71875 
L 35.5 0 
L 25.59375 0 
L 25.59375 34.71875 
z
" id="DejaVuSans-59"/>
     </defs>
     <g transform="translate(35.132187 148.134219)rotate(-90)scale(0.1 -0.1)">
      <use xlink:href="#DejaVuSans-59"/>
      <use x="61.083984" xlink:href="#DejaVuSans-20"/>
      <use x="92.871094" xlink:href="#DejaVuSans-2d"/>
      <use x="128.955078" xlink:href="#DejaVuSans-3e"/>
      <use x="212.744141" xlink:href="#DejaVuSans-20"/>
      <use x="244.53125" xlink:href="#DejaVuSans-6d"/>
     </g>
    </g>
   </g>
   <g id="line2d_49">
    <defs>
     <path d="M 0 -7.5 
L -1.683855 -2.317627 
L -7.132924 -2.317627 
L -2.724534 0.885255 
L -4.408389 6.067627 
L -0 2.864745 
L 4.408389 6.067627 
L 2.724534 0.885255 
L 7.132924 -2.317627 
L 1.683855 -2.317627 
z
" id="m8147211d16" style="stroke:#0000ff;stroke-linejoin:bevel;"/>
    </defs>
    <g clip-path="url(#paa22a4733b)">
     <use style="fill:#0000ff;stroke:#0000ff;stroke-linejoin:bevel;" x="174.554062" xlink:href="#m8147211d16" y="167.278125"/>
     <use style="fill:#0000ff;stroke:#0000ff;stroke-linejoin:bevel;" x="202.454062" xlink:href="#m8147211d16" y="76.678125"/>
     <use style="fill:#0000ff;stroke:#0000ff;stroke-linejoin:bevel;" x="341.954062" xlink:href="#m8147211d16" y="94.798125"/>
     <use style="fill:#0000ff;stroke:#0000ff;stroke-linejoin:bevel;" x="314.054062" xlink:href="#m8147211d16" y="185.398125"/>
     <use style="fill:#0000ff;stroke:#0000ff;stroke-linejoin:bevel;" x="258.254062" xlink:href="#m8147211d16" y="131.038125"/>
    </g>
   </g>
   <g id="line2d_50">
    <path clip-path="url(#paa22a4733b)" d="M 132.704062 194.458125 
L 132.704062 185.398125 
L 132.704062 176.338125 
L 132.704062 167.278125 
L 132.704062 158.218125 
L 132.704062 149.158125 
L 146.654062 149.158125 
L 160.604062 149.158125 
L 174.554062 149.158125 
L 188.504062 149.158125 
L 202.454062 149.158125 
L 202.454062 158.218125 
L 202.454062 167.278125 
L 202.454062 176.338125 
L 202.454062 185.398125 
L 202.454062 194.458125 
L 216.404062 194.458125 
L 230.354062 194.458125 
L 244.304062 194.458125 
L 258.254062 194.458125 
L 272.204062 194.458125 
L 286.154062 194.458125 
L 286.154062 185.398125 
L 286.154062 176.338125 
L 286.154062 167.278125 
L 286.154062 158.218125 
L 286.154062 149.158125 
L 286.154062 140.098125 
L 272.204062 131.038125 
L 258.254062 121.978125 
L 244.304062 112.918125 
L 216.404062 112.918125 
L 188.504062 112.918125 
L 174.554062 112.918125 
L 160.604062 112.918125 
L 146.654062 103.858125 
L 146.654062 94.798125 
L 146.654062 85.738125 
L 146.654062 76.678125 
L 146.654062 67.618125 
L 160.604062 58.558125 
L 174.554062 58.558125 
L 188.504062 58.558125 
L 202.454062 58.558125 
L 216.404062 58.558125 
L 230.354062 58.558125 
L 244.304062 58.558125 
L 258.254062 58.558125 
L 272.204062 58.558125 
L 286.154062 58.558125 
L 300.104062 58.558125 
L 300.104062 67.618125 
L 300.104062 76.678125 
L 300.104062 85.738125 
L 300.104062 94.798125 
L 314.054062 103.858125 
L 328.004062 112.918125 
L 341.954062 121.978125 
L 341.954062 131.038125 
L 341.954062 140.098125 
L 341.954062 149.158125 
L 341.954062 158.218125 
L 341.954062 167.278125 
" style="fill:none;stroke:#008000;stroke-linecap:square;stroke-width:2;"/>
    <defs>
     <path d="M 0 3 
C 0.795609 3 1.55874 2.683901 2.12132 2.12132 
C 2.683901 1.55874 3 0.795609 3 0 
C 3 -0.795609 2.683901 -1.55874 2.12132 -2.12132 
C 1.55874 -2.683901 0.795609 -3 0 -3 
C -0.795609 -3 -1.55874 -2.683901 -2.12132 -2.12132 
C -2.683901 -1.55874 -3 -0.795609 -3 0 
C -3 0.795609 -2.683901 1.55874 -2.12132 2.12132 
C -1.55874 2.683901 -0.795609 3 0 3 
z
" id="m37f61ed54f" style="stroke:#008000;"/>
    </defs>
    <g clip-path="url(#paa22a4733b)">
     <use style="fill:#008000;stroke:#008000;" x="132.704062" xlink:href="#m37f61ed54f" y="194.458125"/>
     <use style="fill:#008000;stroke:#008000;" x="132.704062" xlink:href="#m37f61ed54f" y="185.398125"/>
     <use style="fill:#008000;stroke:#008000;" x="132.704062" xlink:href="#m37f61ed54f" y="176.338125"/>
     <use style="fill:#008000;stroke:#008000;" x="132.704062" xlink:href="#m37f61ed54f" y="167.278125"/>
     <use style="fill:#008000;stroke:#008000;" x="132.704062" xlink:href="#m37f61ed54f" y="158.218125"/>
     <use style="fill:#008000;stroke:#008000;" x="132.704062" xlink:href="#m37f61ed54f" y="149.158125"/>
     <use style="fill:#008000;stroke:#008000;" x="146.654062" xlink:href="#m37f61ed54f" y="149.158125"/>
     <use style="fill:#008000;stroke:#008000;" x="160.604062" xlink:href="#m37f61ed54f" y="149.158125"/>
     <use style="fill:#008000;stroke:#008000;" x="174.554062" xlink:href="#m37f61ed54f" y="149.158125"/>
     <use style="fill:#008000;stroke:#008000;" x="188.504062" xlink:href="#m37f61ed54f" y="149.158125"/>
     <use style="fill:#008000;stroke:#008000;" x="202.454062" xlink:href="#m37f61ed54f" y="149.158125"/>
     <use style="fill:#008000;stroke:#008000;" x="202.454062" xlink:href="#m37f61ed54f" y="158.218125"/>
     <use style="fill:#008000;stroke:#008000;" x="202.454062" xlink:href="#m37f61ed54f" y="167.278125"/>
     <use style="fill:#008000;stroke:#008000;" x="202.454062" xlink:href="#m37f61ed54f" y="176.338125"/>
     <use style="fill:#008000;stroke:#008000;" x="202.454062" xlink:href="#m37f61ed54f" y="185.398125"/>
     <use style="fill:#008000;stroke:#008000;" x="202.454062" xlink:href="#m37f61ed54f" y="194.458125"/>
     <use style="fill:#008000;stroke:#008000;" x="216.404062" xlink:href="#m37f61ed54f" y="194.458125"/>
     <use style="fill:#008000;stroke:#008000;" x="230.354062" xlink:href="#m37f61ed54f" y="194.458125"/>
     <use style="fill:#008000;stroke:#008000;" x="244.304062" xlink:href="#m37f61ed54f" y="194.458125"/>
     <use style="fill:#008000;stroke:#008000;" x="258.254062" xlink:href="#m37f61ed54f" y="194.458125"/>
     <use style="fill:#008000;stroke:#008000;" x="272.204062" xlink:href="#m37f61ed54f" y="194.458125"/>
     <use style="fill:#008000;stroke:#008000;" x="286.154062" xlink:href="#m37f61ed54f" y="194.458125"/>
     <use style="fill:#008000;stroke:#008000;" x="286.154062" xlink:href="#m37f61ed54f" y="185.398125"/>
     <use style="fill:#008000;stroke:#008000;" x="286.154062" xlink:href="#m37f61ed54f" y="176.338125"/>
     <use style="fill:#008000;stroke:#008000;" x="286.154062" xlink:href="#m37f61ed54f" y="167.278125"/>
     <use style="fill:#008000;stroke:#008000;" x="286.154062" xlink:href="#m37f61ed54f" y="158.218125"/>
     <use style="fill:#008000;stroke:#008000;" x="286.154062" xlink:href="#m37f61ed54f" y="149.158125"/>
     <use style="fill:#008000;stroke:#008000;" x="286.154062" xlink:href="#m37f61ed54f" y="140.098125"/>
     <use style="fill:#008000;stroke:#008000;" x="272.204062" xlink:href="#m37f61ed54f" y="131.038125"/>
     <use style="fill:#008000;stroke:#008000;" x="258.254062" xlink:href="#m37f61ed54f" y="121.978125"/>
     <use style="fill:#008000;stroke:#008000;" x="244.304062" xlink:href="#m37f61ed54f" y="112.918125"/>
     <use style="fill:#008000;stroke:#008000;" x="216.404062" xlink:href="#m37f61ed54f" y="112.918125"/>
     <use style="fill:#008000;stroke:#008000;" x="188.504062" xlink:href="#m37f61ed54f" y="112.918125"/>
     <use style="fill:#008000;stroke:#008000;" x="174.554062" xlink:href="#m37f61ed54f" y="112.918125"/>
     <use style="fill:#008000;stroke:#008000;" x="160.604062" xlink:href="#m37f61ed54f" y="112.918125"/>
     <use style="fill:#008000;stroke:#008000;" x="146.654062" xlink:href="#m37f61ed54f" y="103.858125"/>
     <use style="fill:#008000;stroke:#008000;" x="146.654062" xlink:href="#m37f61ed54f" y="94.798125"/>
     <use style="fill:#008000;stroke:#008000;" x="146.654062" xlink:href="#m37f61ed54f" y="85.738125"/>
     <use style="fill:#008000;stroke:#008000;" x="146.654062" xlink:href="#m37f61ed54f" y="76.678125"/>
     <use style="fill:#008000;stroke:#008000;" x="146.654062" xlink:href="#m37f61ed54f" y="67.618125"/>
     <use style="fill:#008000;stroke:#008000;" x="160.604062" xlink:href="#m37f61ed54f" y="58.558125"/>
     <use style="fill:#008000;stroke:#008000;" x="174.554062" xlink:href="#m37f61ed54f" y="58.558125"/>
     <use style="fill:#008000;stroke:#008000;" x="188.504062" xlink:href="#m37f61ed54f" y="58.558125"/>
     <use style="fill:#008000;stroke:#008000;" x="202.454062" xlink:href="#m37f61ed54f" y="58.558125"/>
     <use style="fill:#008000;stroke:#008000;" x="216.404062" xlink:href="#m37f61ed54f" y="58.558125"/>
     <use style="fill:#008000;stroke:#008000;" x="230.354062" xlink:href="#m37f61ed54f" y="58.558125"/>
     <use style="fill:#008000;stroke:#008000;" x="244.304062" xlink:href="#m37f61ed54f" y="58.558125"/>
     <use style="fill:#008000;stroke:#008000;" x="258.254062" xlink:href="#m37f61ed54f" y="58.558125"/>
     <use style="fill:#008000;stroke:#008000;" x="272.204062" xlink:href="#m37f61ed54f" y="58.558125"/>
     <use style="fill:#008000;stroke:#008000;" x="286.154062" xlink:href="#m37f61ed54f" y="58.558125"/>
     <use style="fill:#008000;stroke:#008000;" x="300.104062" xlink:href="#m37f61ed54f" y="58.558125"/>
     <use style="fill:#008000;stroke:#008000;" x="300.104062" xlink:href="#m37f61ed54f" y="67.618125"/>
     <use style="fill:#008000;stroke:#008000;" x="300.104062" xlink:href="#m37f61ed54f" y="76.678125"/>
     <use style="fill:#008000;stroke:#008000;" x="300.104062" xlink:href="#m37f61ed54f" y="85.738125"/>
     <use style="fill:#008000;stroke:#008000;" x="300.104062" xlink:href="#m37f61ed54f" y="94.798125"/>
     <use style="fill:#008000;stroke:#008000;" x="314.054062" xlink:href="#m37f61ed54f" y="103.858125"/>
     <use style="fill:#008000;stroke:#008000;" x="328.004062" xlink:href="#m37f61ed54f" y="112.918125"/>
     <use style="fill:#008000;stroke:#008000;" x="341.954062" xlink:href="#m37f61ed54f" y="121.978125"/>
     <use style="fill:#008000;stroke:#008000;" x="341.954062" xlink:href="#m37f61ed54f" y="131.038125"/>
     <use style="fill:#008000;stroke:#008000;" x="341.954062" xlink:href="#m37f61ed54f" y="140.098125"/>
     <use style="fill:#008000;stroke:#008000;" x="341.954062" xlink:href="#m37f61ed54f" y="149.158125"/>
     <use style="fill:#008000;stroke:#008000;" x="341.954062" xlink:href="#m37f61ed54f" y="158.218125"/>
     <use style="fill:#008000;stroke:#008000;" x="341.954062" xlink:href="#m37f61ed54f" y="167.278125"/>
    </g>
   </g>
   <g id="line2d_51">
    <path clip-path="url(#paa22a4733b)" d="M 151.945127 192.625038 
L 170.530143 170.761791 
L 167.48122 171.267763 
L 171.263821 169.661105 
L 168.887535 170.570129 
L 168.785738 163.551338 
L 172.94546 167.080222 
L 174.699578 165.523539 
L 174.499738 167.794917 
L 175.169703 165.466586 
L 174.287819 166.357919 
L 176.087554 165.01653 
L 173.989017 168.180817 
L 175.210506 166.823358 
L 173.351977 168.782462 
L 169.385448 165.010896 
L 157.722739 185.259685 
L 181.913685 186.191738 
L 174.750882 193.184232 
L 188.824965 207.034089 
L 232.883523 182.656422 
L 241.272941 200.808007 
L 248.19451 187.126873 
L 251.396806 185.711336 
L 251.252708 185.616304 
L 254.408101 184.144165 
L 276.5676 166.18519 
L 280.466854 148.154638 
L 260.07181 145.193269 
L 239.509069 134.738508 
L 263.712357 134.732813 
L 195.647132 116.568283 
L 196.179086 121.086681 
L 177.803652 119.39852 
L 196.453458 121.44538 
L 177.146836 116.839665 
L 177.367902 97.968921 
L 194.273693 93.933195 
L 156.981424 83.360612 
L 160.719168 69.69682 
L 178.744943 61.808146 
L 200.576566 61.519222 
L 199.854002 61.248065 
L 200.367794 60.981849 
L 201.401481 61.222635 
L 202.876373 58.558125 
L 224.539569 59.032102 
L 221.171954 48.399332 
L 234.421721 48.879447 
L 289.425563 63.914413 
L 303.022685 65.799983 
L 316.786902 87.737493 
L 291.712296 73.114933 
L 318.809036 104.68162 
L 318.911342 111.723463 
L 320.200664 113.105639 
L 330.43774 119.303632 
L 321.610484 100.805324 
L 321.830607 114.942457 
L 332.713165 143.221226 
L 337.37853 149.92075 
L 336.98702 171.112155 
L 295.424258 162.476228 
" style="fill:none;stroke:#ff0000;stroke-linecap:square;stroke-width:2;"/>
    <defs>
     <path d="M 0 3 
C 0.795609 3 1.55874 2.683901 2.12132 2.12132 
C 2.683901 1.55874 3 0.795609 3 0 
C 3 -0.795609 2.683901 -1.55874 2.12132 -2.12132 
C 1.55874 -2.683901 0.795609 -3 0 -3 
C -0.795609 -3 -1.55874 -2.683901 -2.12132 -2.12132 
C -2.683901 -1.55874 -3 -0.795609 -3 0 
C -3 0.795609 -2.683901 1.55874 -2.12132 2.12132 
C -1.55874 2.683901 -0.795609 3 0 3 
z
" id="md4529ef196" style="stroke:#ff0000;"/>
    </defs>
    <g clip-path="url(#paa22a4733b)">
     <use style="fill:#ff0000;stroke:#ff0000;" x="151.945127" xlink:href="#md4529ef196" y="192.625038"/>
     <use style="fill:#ff0000;stroke:#ff0000;" x="170.530143" xlink:href="#md4529ef196" y="170.761791"/>
     <use style="fill:#ff0000;stroke:#ff0000;" x="167.48122" xlink:href="#md4529ef196" y="171.267763"/>
     <use style="fill:#ff0000;stroke:#ff0000;" x="171.263821" xlink:href="#md4529ef196" y="169.661105"/>
     <use style="fill:#ff0000;stroke:#ff0000;" x="168.887535" xlink:href="#md4529ef196" y="170.570129"/>
     <use style="fill:#ff0000;stroke:#ff0000;" x="168.785738" xlink:href="#md4529ef196" y="163.551338"/>
     <use style="fill:#ff0000;stroke:#ff0000;" x="172.94546" xlink:href="#md4529ef196" y="167.080222"/>
     <use style="fill:#ff0000;stroke:#ff0000;" x="174.699578" xlink:href="#md4529ef196" y="165.523539"/>
     <use style="fill:#ff0000;stroke:#ff0000;" x="174.499738" xlink:href="#md4529ef196" y="167.794917"/>
     <use style="fill:#ff0000;stroke:#ff0000;" x="175.169703" xlink:href="#md4529ef196" y="165.466586"/>
     <use style="fill:#ff0000;stroke:#ff0000;" x="174.287819" xlink:href="#md4529ef196" y="166.357919"/>
     <use style="fill:#ff0000;stroke:#ff0000;" x="176.087554" xlink:href="#md4529ef196" y="165.01653"/>
     <use style="fill:#ff0000;stroke:#ff0000;" x="173.989017" xlink:href="#md4529ef196" y="168.180817"/>
     <use style="fill:#ff0000;stroke:#ff0000;" x="175.210506" xlink:href="#md4529ef196" y="166.823358"/>
     <use style="fill:#ff0000;stroke:#ff0000;" x="173.351977" xlink:href="#md4529ef196" y="168.782462"/>
     <use style="fill:#ff0000;stroke:#ff0000;" x="169.385448" xlink:href="#md4529ef196" y="165.010896"/>
     <use style="fill:#ff0000;stroke:#ff0000;" x="157.722739" xlink:href="#md4529ef196" y="185.259685"/>
     <use style="fill:#ff0000;stroke:#ff0000;" x="181.913685" xlink:href="#md4529ef196" y="186.191738"/>
     <use style="fill:#ff0000;stroke:#ff0000;" x="174.750882" xlink:href="#md4529ef196" y="193.184232"/>
     <use style="fill:#ff0000;stroke:#ff0000;" x="188.824965" xlink:href="#md4529ef196" y="207.034089"/>
     <use style="fill:#ff0000;stroke:#ff0000;" x="232.883523" xlink:href="#md4529ef196" y="182.656422"/>
     <use style="fill:#ff0000;stroke:#ff0000;" x="241.272941" xlink:href="#md4529ef196" y="200.808007"/>
     <use style="fill:#ff0000;stroke:#ff0000;" x="248.19451" xlink:href="#md4529ef196" y="187.126873"/>
     <use style="fill:#ff0000;stroke:#ff0000;" x="251.396806" xlink:href="#md4529ef196" y="185.711336"/>
     <use style="fill:#ff0000;stroke:#ff0000;" x="251.252708" xlink:href="#md4529ef196" y="185.616304"/>
     <use style="fill:#ff0000;stroke:#ff0000;" x="254.408101" xlink:href="#md4529ef196" y="184.144165"/>
     <use style="fill:#ff0000;stroke:#ff0000;" x="276.5676" xlink:href="#md4529ef196" y="166.18519"/>
     <use style="fill:#ff0000;stroke:#ff0000;" x="280.466854" xlink:href="#md4529ef196" y="148.154638"/>
     <use style="fill:#ff0000;stroke:#ff0000;" x="260.07181" xlink:href="#md4529ef196" y="145.193269"/>
     <use style="fill:#ff0000;stroke:#ff0000;" x="239.509069" xlink:href="#md4529ef196" y="134.738508"/>
     <use style="fill:#ff0000;stroke:#ff0000;" x="263.712357" xlink:href="#md4529ef196" y="134.732813"/>
     <use style="fill:#ff0000;stroke:#ff0000;" x="195.647132" xlink:href="#md4529ef196" y="116.568283"/>
     <use style="fill:#ff0000;stroke:#ff0000;" x="196.179086" xlink:href="#md4529ef196" y="121.086681"/>
     <use style="fill:#ff0000;stroke:#ff0000;" x="177.803652" xlink:href="#md4529ef196" y="119.39852"/>
     <use style="fill:#ff0000;stroke:#ff0000;" x="196.453458" xlink:href="#md4529ef196" y="121.44538"/>
     <use style="fill:#ff0000;stroke:#ff0000;" x="177.146836" xlink:href="#md4529ef196" y="116.839665"/>
     <use style="fill:#ff0000;stroke:#ff0000;" x="177.367902" xlink:href="#md4529ef196" y="97.968921"/>
     <use style="fill:#ff0000;stroke:#ff0000;" x="194.273693" xlink:href="#md4529ef196" y="93.933195"/>
     <use style="fill:#ff0000;stroke:#ff0000;" x="156.981424" xlink:href="#md4529ef196" y="83.360612"/>
     <use style="fill:#ff0000;stroke:#ff0000;" x="160.719168" xlink:href="#md4529ef196" y="69.69682"/>
     <use style="fill:#ff0000;stroke:#ff0000;" x="178.744943" xlink:href="#md4529ef196" y="61.808146"/>
     <use style="fill:#ff0000;stroke:#ff0000;" x="200.576566" xlink:href="#md4529ef196" y="61.519222"/>
     <use style="fill:#ff0000;stroke:#ff0000;" x="199.854002" xlink:href="#md4529ef196" y="61.248065"/>
     <use style="fill:#ff0000;stroke:#ff0000;" x="200.367794" xlink:href="#md4529ef196" y="60.981849"/>
     <use style="fill:#ff0000;stroke:#ff0000;" x="201.401481" xlink:href="#md4529ef196" y="61.222635"/>
     <use style="fill:#ff0000;stroke:#ff0000;" x="202.876373" xlink:href="#md4529ef196" y="58.558125"/>
     <use style="fill:#ff0000;stroke:#ff0000;" x="224.539569" xlink:href="#md4529ef196" y="59.032102"/>
     <use style="fill:#ff0000;stroke:#ff0000;" x="221.171954" xlink:href="#md4529ef196" y="48.399332"/>
     <use style="fill:#ff0000;stroke:#ff0000;" x="234.421721" xlink:href="#md4529ef196" y="48.879447"/>
     <use style="fill:#ff0000;stroke:#ff0000;" x="289.425563" xlink:href="#md4529ef196" y="63.914413"/>
     <use style="fill:#ff0000;stroke:#ff0000;" x="303.022685" xlink:href="#md4529ef196" y="65.799983"/>
     <use style="fill:#ff0000;stroke:#ff0000;" x="316.786902" xlink:href="#md4529ef196" y="87.737493"/>
     <use style="fill:#ff0000;stroke:#ff0000;" x="291.712296" xlink:href="#md4529ef196" y="73.114933"/>
     <use style="fill:#ff0000;stroke:#ff0000;" x="318.809036" xlink:href="#md4529ef196" y="104.68162"/>
     <use style="fill:#ff0000;stroke:#ff0000;" x="318.911342" xlink:href="#md4529ef196" y="111.723463"/>
     <use style="fill:#ff0000;stroke:#ff0000;" x="320.200664" xlink:href="#md4529ef196" y="113.105639"/>
     <use style="fill:#ff0000;stroke:#ff0000;" x="330.43774" xlink:href="#md4529ef196" y="119.303632"/>
     <use style="fill:#ff0000;stroke:#ff0000;" x="321.610484" xlink:href="#md4529ef196" y="100.805324"/>
     <use style="fill:#ff0000;stroke:#ff0000;" x="321.830607" xlink:href="#md4529ef196" y="114.942457"/>
     <use style="fill:#ff0000;stroke:#ff0000;" x="332.713165" xlink:href="#md4529ef196" y="143.221226"/>
     <use style="fill:#ff0000;stroke:#ff0000;" x="337.37853" xlink:href="#md4529ef196" y="149.92075"/>
     <use style="fill:#ff0000;stroke:#ff0000;" x="336.98702" xlink:href="#md4529ef196" y="171.112155"/>
     <use style="fill:#ff0000;stroke:#ff0000;" x="295.424258" xlink:href="#md4529ef196" y="162.476228"/>
    </g>
   </g>
   <g id="patch_3">
    <path d="M 62.954062 239.758125 
L 62.954062 22.318125 
" style="fill:none;stroke:#000000;stroke-linecap:square;stroke-linejoin:miter;stroke-width:0.8;"/>
   </g>
   <g id="patch_4">
    <path d="M 397.754062 239.758125 
L 397.754062 22.318125 
" style="fill:none;stroke:#000000;stroke-linecap:square;stroke-linejoin:miter;stroke-width:0.8;"/>
   </g>
   <g id="patch_5">
    <path d="M 62.954062 239.758125 
L 397.754062 239.758125 
" style="fill:none;stroke:#000000;stroke-linecap:square;stroke-linejoin:miter;stroke-width:0.8;"/>
   </g>
   <g id="patch_6">
    <path d="M 62.954062 22.318125 
L 397.754062 22.318125 
" style="fill:none;stroke:#000000;stroke-linecap:square;stroke-linejoin:miter;stroke-width:0.8;"/>
   </g>
   <g id="text_27">
    <!-- Green line = actual path , Red line = estimated path, Blue points = AP loc -->
    <defs>
     <path d="M 59.515625 10.40625 
L 59.515625 29.984375 
L 43.40625 29.984375 
L 43.40625 38.09375 
L 69.28125 38.09375 
L 69.28125 6.78125 
Q 63.578125 2.734375 56.6875 0.65625 
Q 49.8125 -1.421875 42 -1.421875 
Q 24.90625 -1.421875 15.25 8.5625 
Q 5.609375 18.5625 5.609375 36.375 
Q 5.609375 54.25 15.25 64.234375 
Q 24.90625 74.21875 42 74.21875 
Q 49.125 74.21875 55.546875 72.453125 
Q 61.96875 70.703125 67.390625 67.28125 
L 67.390625 56.78125 
Q 61.921875 61.421875 55.765625 63.765625 
Q 49.609375 66.109375 42.828125 66.109375 
Q 29.4375 66.109375 22.71875 58.640625 
Q 16.015625 51.171875 16.015625 36.375 
Q 16.015625 21.625 22.71875 14.15625 
Q 29.4375 6.6875 42.828125 6.6875 
Q 48.046875 6.6875 52.140625 7.59375 
Q 56.25 8.5 59.515625 10.40625 
z
" id="DejaVuSans-47"/>
     <path d="M 41.109375 46.296875 
Q 39.59375 47.171875 37.8125 47.578125 
Q 36.03125 48 33.890625 48 
Q 26.265625 48 22.1875 43.046875 
Q 18.109375 38.09375 18.109375 28.8125 
L 18.109375 0 
L 9.078125 0 
L 9.078125 54.6875 
L 18.109375 54.6875 
L 18.109375 46.1875 
Q 20.953125 51.171875 25.484375 53.578125 
Q 30.03125 56 36.53125 56 
Q 37.453125 56 38.578125 55.875 
Q 39.703125 55.765625 41.0625 55.515625 
z
" id="DejaVuSans-72"/>
     <path d="M 56.203125 29.59375 
L 56.203125 25.203125 
L 14.890625 25.203125 
Q 15.484375 15.921875 20.484375 11.0625 
Q 25.484375 6.203125 34.421875 6.203125 
Q 39.59375 6.203125 44.453125 7.46875 
Q 49.3125 8.734375 54.109375 11.28125 
L 54.109375 2.78125 
Q 49.265625 0.734375 44.1875 -0.34375 
Q 39.109375 -1.421875 33.890625 -1.421875 
Q 20.796875 -1.421875 13.15625 6.1875 
Q 5.515625 13.8125 5.515625 26.8125 
Q 5.515625 40.234375 12.765625 48.109375 
Q 20.015625 56 32.328125 56 
Q 43.359375 56 49.78125 48.890625 
Q 56.203125 41.796875 56.203125 29.59375 
z
M 47.21875 32.234375 
Q 47.125 39.59375 43.09375 43.984375 
Q 39.0625 48.390625 32.421875 48.390625 
Q 24.90625 48.390625 20.390625 44.140625 
Q 15.875 39.890625 15.1875 32.171875 
z
" id="DejaVuSans-65"/>
     <path d="M 54.890625 33.015625 
L 54.890625 0 
L 45.90625 0 
L 45.90625 32.71875 
Q 45.90625 40.484375 42.875 44.328125 
Q 39.84375 48.1875 33.796875 48.1875 
Q 26.515625 48.1875 22.3125 43.546875 
Q 18.109375 38.921875 18.109375 30.90625 
L 18.109375 0 
L 9.078125 0 
L 9.078125 54.6875 
L 18.109375 54.6875 
L 18.109375 46.1875 
Q 21.34375 51.125 25.703125 53.5625 
Q 30.078125 56 35.796875 56 
Q 45.21875 56 50.046875 50.171875 
Q 54.890625 44.34375 54.890625 33.015625 
z
" id="DejaVuSans-6e"/>
     <path d="M 9.421875 75.984375 
L 18.40625 75.984375 
L 18.40625 0 
L 9.421875 0 
z
" id="DejaVuSans-6c"/>
     <path d="M 9.421875 54.6875 
L 18.40625 54.6875 
L 18.40625 0 
L 9.421875 0 
z
M 9.421875 75.984375 
L 18.40625 75.984375 
L 18.40625 64.59375 
L 9.421875 64.59375 
z
" id="DejaVuSans-69"/>
     <path d="M 10.59375 45.40625 
L 73.1875 45.40625 
L 73.1875 37.203125 
L 10.59375 37.203125 
z
M 10.59375 25.484375 
L 73.1875 25.484375 
L 73.1875 17.1875 
L 10.59375 17.1875 
z
" id="DejaVuSans-3d"/>
     <path d="M 34.28125 27.484375 
Q 23.390625 27.484375 19.1875 25 
Q 14.984375 22.515625 14.984375 16.5 
Q 14.984375 11.71875 18.140625 8.90625 
Q 21.296875 6.109375 26.703125 6.109375 
Q 34.1875 6.109375 38.703125 11.40625 
Q 43.21875 16.703125 43.21875 25.484375 
L 43.21875 27.484375 
z
M 52.203125 31.203125 
L 52.203125 0 
L 43.21875 0 
L 43.21875 8.296875 
Q 40.140625 3.328125 35.546875 0.953125 
Q 30.953125 -1.421875 24.3125 -1.421875 
Q 15.921875 -1.421875 10.953125 3.296875 
Q 6 8.015625 6 15.921875 
Q 6 25.140625 12.171875 29.828125 
Q 18.359375 34.515625 30.609375 34.515625 
L 43.21875 34.515625 
L 43.21875 35.40625 
Q 43.21875 41.609375 39.140625 45 
Q 35.0625 48.390625 27.6875 48.390625 
Q 23 48.390625 18.546875 47.265625 
Q 14.109375 46.140625 10.015625 43.890625 
L 10.015625 52.203125 
Q 14.9375 54.109375 19.578125 55.046875 
Q 24.21875 56 28.609375 56 
Q 40.484375 56 46.34375 49.84375 
Q 52.203125 43.703125 52.203125 31.203125 
z
" id="DejaVuSans-61"/>
     <path d="M 48.78125 52.59375 
L 48.78125 44.1875 
Q 44.96875 46.296875 41.140625 47.34375 
Q 37.3125 48.390625 33.40625 48.390625 
Q 24.65625 48.390625 19.8125 42.84375 
Q 14.984375 37.3125 14.984375 27.296875 
Q 14.984375 17.28125 19.8125 11.734375 
Q 24.65625 6.203125 33.40625 6.203125 
Q 37.3125 6.203125 41.140625 7.25 
Q 44.96875 8.296875 48.78125 10.40625 
L 48.78125 2.09375 
Q 45.015625 0.34375 40.984375 -0.53125 
Q 36.96875 -1.421875 32.421875 -1.421875 
Q 20.0625 -1.421875 12.78125 6.34375 
Q 5.515625 14.109375 5.515625 27.296875 
Q 5.515625 40.671875 12.859375 48.328125 
Q 20.21875 56 33.015625 56 
Q 37.15625 56 41.109375 55.140625 
Q 45.0625 54.296875 48.78125 52.59375 
z
" id="DejaVuSans-63"/>
     <path d="M 18.3125 70.21875 
L 18.3125 54.6875 
L 36.8125 54.6875 
L 36.8125 47.703125 
L 18.3125 47.703125 
L 18.3125 18.015625 
Q 18.3125 11.328125 20.140625 9.421875 
Q 21.96875 7.515625 27.59375 7.515625 
L 36.8125 7.515625 
L 36.8125 0 
L 27.59375 0 
Q 17.1875 0 13.234375 3.875 
Q 9.28125 7.765625 9.28125 18.015625 
L 9.28125 47.703125 
L 2.6875 47.703125 
L 2.6875 54.6875 
L 9.28125 54.6875 
L 9.28125 70.21875 
z
" id="DejaVuSans-74"/>
     <path d="M 8.5 21.578125 
L 8.5 54.6875 
L 17.484375 54.6875 
L 17.484375 21.921875 
Q 17.484375 14.15625 20.5 10.265625 
Q 23.53125 6.390625 29.59375 6.390625 
Q 36.859375 6.390625 41.078125 11.03125 
Q 45.3125 15.671875 45.3125 23.6875 
L 45.3125 54.6875 
L 54.296875 54.6875 
L 54.296875 0 
L 45.3125 0 
L 45.3125 8.40625 
Q 42.046875 3.421875 37.71875 1 
Q 33.40625 -1.421875 27.6875 -1.421875 
Q 18.265625 -1.421875 13.375 4.4375 
Q 8.5 10.296875 8.5 21.578125 
z
M 31.109375 56 
z
" id="DejaVuSans-75"/>
     <path d="M 18.109375 8.203125 
L 18.109375 -20.796875 
L 9.078125 -20.796875 
L 9.078125 54.6875 
L 18.109375 54.6875 
L 18.109375 46.390625 
Q 20.953125 51.265625 25.265625 53.625 
Q 29.59375 56 35.59375 56 
Q 45.5625 56 51.78125 48.09375 
Q 58.015625 40.1875 58.015625 27.296875 
Q 58.015625 14.40625 51.78125 6.484375 
Q 45.5625 -1.421875 35.59375 -1.421875 
Q 29.59375 -1.421875 25.265625 0.953125 
Q 20.953125 3.328125 18.109375 8.203125 
z
M 48.6875 27.296875 
Q 48.6875 37.203125 44.609375 42.84375 
Q 40.53125 48.484375 33.40625 48.484375 
Q 26.265625 48.484375 22.1875 42.84375 
Q 18.109375 37.203125 18.109375 27.296875 
Q 18.109375 17.390625 22.1875 11.75 
Q 26.265625 6.109375 33.40625 6.109375 
Q 40.53125 6.109375 44.609375 11.75 
Q 48.6875 17.390625 48.6875 27.296875 
z
" id="DejaVuSans-70"/>
     <path d="M 54.890625 33.015625 
L 54.890625 0 
L 45.90625 0 
L 45.90625 32.71875 
Q 45.90625 40.484375 42.875 44.328125 
Q 39.84375 48.1875 33.796875 48.1875 
Q 26.515625 48.1875 22.3125 43.546875 
Q 18.109375 38.921875 18.109375 30.90625 
L 18.109375 0 
L 9.078125 0 
L 9.078125 75.984375 
L 18.109375 75.984375 
L 18.109375 46.1875 
Q 21.34375 51.125 25.703125 53.5625 
Q 30.078125 56 35.796875 56 
Q 45.21875 56 50.046875 50.171875 
Q 54.890625 44.34375 54.890625 33.015625 
z
" id="DejaVuSans-68"/>
     <path d="M 11.71875 12.40625 
L 22.015625 12.40625 
L 22.015625 4 
L 14.015625 -11.625 
L 7.71875 -11.625 
L 11.71875 4 
z
" id="DejaVuSans-2c"/>
     <path d="M 44.390625 34.1875 
Q 47.5625 33.109375 50.5625 29.59375 
Q 53.5625 26.078125 56.59375 19.921875 
L 66.609375 0 
L 56 0 
L 46.6875 18.703125 
Q 43.0625 26.03125 39.671875 28.421875 
Q 36.28125 30.8125 30.421875 30.8125 
L 19.671875 30.8125 
L 19.671875 0 
L 9.8125 0 
L 9.8125 72.90625 
L 32.078125 72.90625 
Q 44.578125 72.90625 50.734375 67.671875 
Q 56.890625 62.453125 56.890625 51.90625 
Q 56.890625 45.015625 53.6875 40.46875 
Q 50.484375 35.9375 44.390625 34.1875 
z
M 19.671875 64.796875 
L 19.671875 38.921875 
L 32.078125 38.921875 
Q 39.203125 38.921875 42.84375 42.21875 
Q 46.484375 45.515625 46.484375 51.90625 
Q 46.484375 58.296875 42.84375 61.546875 
Q 39.203125 64.796875 32.078125 64.796875 
z
" id="DejaVuSans-52"/>
     <path d="M 45.40625 46.390625 
L 45.40625 75.984375 
L 54.390625 75.984375 
L 54.390625 0 
L 45.40625 0 
L 45.40625 8.203125 
Q 42.578125 3.328125 38.25 0.953125 
Q 33.9375 -1.421875 27.875 -1.421875 
Q 17.96875 -1.421875 11.734375 6.484375 
Q 5.515625 14.40625 5.515625 27.296875 
Q 5.515625 40.1875 11.734375 48.09375 
Q 17.96875 56 27.875 56 
Q 33.9375 56 38.25 53.625 
Q 42.578125 51.265625 45.40625 46.390625 
z
M 14.796875 27.296875 
Q 14.796875 17.390625 18.875 11.75 
Q 22.953125 6.109375 30.078125 6.109375 
Q 37.203125 6.109375 41.296875 11.75 
Q 45.40625 17.390625 45.40625 27.296875 
Q 45.40625 37.203125 41.296875 42.84375 
Q 37.203125 48.484375 30.078125 48.484375 
Q 22.953125 48.484375 18.875 42.84375 
Q 14.796875 37.203125 14.796875 27.296875 
z
" id="DejaVuSans-64"/>
     <path d="M 44.28125 53.078125 
L 44.28125 44.578125 
Q 40.484375 46.53125 36.375 47.5 
Q 32.28125 48.484375 27.875 48.484375 
Q 21.1875 48.484375 17.84375 46.4375 
Q 14.5 44.390625 14.5 40.28125 
Q 14.5 37.15625 16.890625 35.375 
Q 19.28125 33.59375 26.515625 31.984375 
L 29.59375 31.296875 
Q 39.15625 29.25 43.1875 25.515625 
Q 47.21875 21.78125 47.21875 15.09375 
Q 47.21875 7.46875 41.1875 3.015625 
Q 35.15625 -1.421875 24.609375 -1.421875 
Q 20.21875 -1.421875 15.453125 -0.5625 
Q 10.6875 0.296875 5.421875 2 
L 5.421875 11.28125 
Q 10.40625 8.6875 15.234375 7.390625 
Q 20.0625 6.109375 24.8125 6.109375 
Q 31.15625 6.109375 34.5625 8.28125 
Q 37.984375 10.453125 37.984375 14.40625 
Q 37.984375 18.0625 35.515625 20.015625 
Q 33.0625 21.96875 24.703125 23.78125 
L 21.578125 24.515625 
Q 13.234375 26.265625 9.515625 29.90625 
Q 5.8125 33.546875 5.8125 39.890625 
Q 5.8125 47.609375 11.28125 51.796875 
Q 16.75 56 26.8125 56 
Q 31.78125 56 36.171875 55.265625 
Q 40.578125 54.546875 44.28125 53.078125 
z
" id="DejaVuSans-73"/>
     <path d="M 19.671875 34.8125 
L 19.671875 8.109375 
L 35.5 8.109375 
Q 43.453125 8.109375 47.28125 11.40625 
Q 51.125 14.703125 51.125 21.484375 
Q 51.125 28.328125 47.28125 31.5625 
Q 43.453125 34.8125 35.5 34.8125 
z
M 19.671875 64.796875 
L 19.671875 42.828125 
L 34.28125 42.828125 
Q 41.5 42.828125 45.03125 45.53125 
Q 48.578125 48.25 48.578125 53.8125 
Q 48.578125 59.328125 45.03125 62.0625 
Q 41.5 64.796875 34.28125 64.796875 
z
M 9.8125 72.90625 
L 35.015625 72.90625 
Q 46.296875 72.90625 52.390625 68.21875 
Q 58.5 63.53125 58.5 54.890625 
Q 58.5 48.1875 55.375 44.234375 
Q 52.25 40.28125 46.1875 39.3125 
Q 53.46875 37.75 57.5 32.78125 
Q 61.53125 27.828125 61.53125 20.40625 
Q 61.53125 10.640625 54.890625 5.3125 
Q 48.25 0 35.984375 0 
L 9.8125 0 
z
" id="DejaVuSans-42"/>
     <path d="M 30.609375 48.390625 
Q 23.390625 48.390625 19.1875 42.75 
Q 14.984375 37.109375 14.984375 27.296875 
Q 14.984375 17.484375 19.15625 11.84375 
Q 23.34375 6.203125 30.609375 6.203125 
Q 37.796875 6.203125 41.984375 11.859375 
Q 46.1875 17.53125 46.1875 27.296875 
Q 46.1875 37.015625 41.984375 42.703125 
Q 37.796875 48.390625 30.609375 48.390625 
z
M 30.609375 56 
Q 42.328125 56 49.015625 48.375 
Q 55.71875 40.765625 55.71875 27.296875 
Q 55.71875 13.875 49.015625 6.21875 
Q 42.328125 -1.421875 30.609375 -1.421875 
Q 18.84375 -1.421875 12.171875 6.21875 
Q 5.515625 13.875 5.515625 27.296875 
Q 5.515625 40.765625 12.171875 48.375 
Q 18.84375 56 30.609375 56 
z
" id="DejaVuSans-6f"/>
     <path d="M 34.1875 63.1875 
L 20.796875 26.90625 
L 47.609375 26.90625 
z
M 28.609375 72.90625 
L 39.796875 72.90625 
L 67.578125 0 
L 57.328125 0 
L 50.6875 18.703125 
L 17.828125 18.703125 
L 11.1875 0 
L 0.78125 0 
z
" id="DejaVuSans-41"/>
     <path d="M 19.671875 64.796875 
L 19.671875 37.40625 
L 32.078125 37.40625 
Q 38.96875 37.40625 42.71875 40.96875 
Q 46.484375 44.53125 46.484375 51.125 
Q 46.484375 57.671875 42.71875 61.234375 
Q 38.96875 64.796875 32.078125 64.796875 
z
M 9.8125 72.90625 
L 32.078125 72.90625 
Q 44.34375 72.90625 50.609375 67.359375 
Q 56.890625 61.8125 56.890625 51.125 
Q 56.890625 40.328125 50.609375 34.8125 
Q 44.34375 29.296875 32.078125 29.296875 
L 19.671875 29.296875 
L 19.671875 0 
L 9.8125 0 
z
" id="DejaVuSans-50"/>
    </defs>
    <g transform="translate(7.2 16.318125)scale(0.12 -0.12)">
     <use xlink:href="#DejaVuSans-47"/>
     <use x="77.490234" xlink:href="#DejaVuSans-72"/>
     <use x="118.572266" xlink:href="#DejaVuSans-65"/>
     <use x="180.095703" xlink:href="#DejaVuSans-65"/>
     <use x="241.619141" xlink:href="#DejaVuSans-6e"/>
     <use x="304.998047" xlink:href="#DejaVuSans-20"/>
     <use x="336.785156" xlink:href="#DejaVuSans-6c"/>
     <use x="364.568359" xlink:href="#DejaVuSans-69"/>
     <use x="392.351562" xlink:href="#DejaVuSans-6e"/>
     <use x="455.730469" xlink:href="#DejaVuSans-65"/>
     <use x="517.253906" xlink:href="#DejaVuSans-20"/>
     <use x="549.041016" xlink:href="#DejaVuSans-3d"/>
     <use x="632.830078" xlink:href="#DejaVuSans-20"/>
     <use x="664.617188" xlink:href="#DejaVuSans-61"/>
     <use x="725.896484" xlink:href="#DejaVuSans-63"/>
     <use x="780.876953" xlink:href="#DejaVuSans-74"/>
     <use x="820.085938" xlink:href="#DejaVuSans-75"/>
     <use x="883.464844" xlink:href="#DejaVuSans-61"/>
     <use x="944.744141" xlink:href="#DejaVuSans-6c"/>
     <use x="972.527344" xlink:href="#DejaVuSans-20"/>
     <use x="1004.314453" xlink:href="#DejaVuSans-70"/>
     <use x="1067.791016" xlink:href="#DejaVuSans-61"/>
     <use x="1129.070312" xlink:href="#DejaVuSans-74"/>
     <use x="1168.279297" xlink:href="#DejaVuSans-68"/>
     <use x="1231.658203" xlink:href="#DejaVuSans-20"/>
     <use x="1263.445312" xlink:href="#DejaVuSans-2c"/>
     <use x="1295.232422" xlink:href="#DejaVuSans-20"/>
     <use x="1327.019531" xlink:href="#DejaVuSans-52"/>
     <use x="1396.439453" xlink:href="#DejaVuSans-65"/>
     <use x="1457.962891" xlink:href="#DejaVuSans-64"/>
     <use x="1521.439453" xlink:href="#DejaVuSans-20"/>
     <use x="1553.226562" xlink:href="#DejaVuSans-6c"/>
     <use x="1581.009766" xlink:href="#DejaVuSans-69"/>
     <use x="1608.792969" xlink:href="#DejaVuSans-6e"/>
     <use x="1672.171875" xlink:href="#DejaVuSans-65"/>
     <use x="1733.695312" xlink:href="#DejaVuSans-20"/>
     <use x="1765.482422" xlink:href="#DejaVuSans-3d"/>
     <use x="1849.271484" xlink:href="#DejaVuSans-20"/>
     <use x="1881.058594" xlink:href="#DejaVuSans-65"/>
     <use x="1942.582031" xlink:href="#DejaVuSans-73"/>
     <use x="1994.681641" xlink:href="#DejaVuSans-74"/>
     <use x="2033.890625" xlink:href="#DejaVuSans-69"/>
     <use x="2061.673828" xlink:href="#DejaVuSans-6d"/>
     <use x="2159.085938" xlink:href="#DejaVuSans-61"/>
     <use x="2220.365234" xlink:href="#DejaVuSans-74"/>
     <use x="2259.574219" xlink:href="#DejaVuSans-65"/>
     <use x="2321.097656" xlink:href="#DejaVuSans-64"/>
     <use x="2384.574219" xlink:href="#DejaVuSans-20"/>
     <use x="2416.361328" xlink:href="#DejaVuSans-70"/>
     <use x="2479.837891" xlink:href="#DejaVuSans-61"/>
     <use x="2541.117188" xlink:href="#DejaVuSans-74"/>
     <use x="2580.326172" xlink:href="#DejaVuSans-68"/>
     <use x="2643.705078" xlink:href="#DejaVuSans-2c"/>
     <use x="2675.492188" xlink:href="#DejaVuSans-20"/>
     <use x="2707.279297" xlink:href="#DejaVuSans-42"/>
     <use x="2775.882812" xlink:href="#DejaVuSans-6c"/>
     <use x="2803.666016" xlink:href="#DejaVuSans-75"/>
     <use x="2867.044922" xlink:href="#DejaVuSans-65"/>
     <use x="2928.568359" xlink:href="#DejaVuSans-20"/>
     <use x="2960.355469" xlink:href="#DejaVuSans-70"/>
     <use x="3023.832031" xlink:href="#DejaVuSans-6f"/>
     <use x="3085.013672" xlink:href="#DejaVuSans-69"/>
     <use x="3112.796875" xlink:href="#DejaVuSans-6e"/>
     <use x="3176.175781" xlink:href="#DejaVuSans-74"/>
     <use x="3215.384766" xlink:href="#DejaVuSans-73"/>
     <use x="3267.484375" xlink:href="#DejaVuSans-20"/>
     <use x="3299.271484" xlink:href="#DejaVuSans-3d"/>
     <use x="3383.060547" xlink:href="#DejaVuSans-20"/>
     <use x="3414.847656" xlink:href="#DejaVuSans-41"/>
     <use x="3483.255859" xlink:href="#DejaVuSans-50"/>
     <use x="3543.558594" xlink:href="#DejaVuSans-20"/>
     <use x="3575.345703" xlink:href="#DejaVuSans-6c"/>
     <use x="3603.128906" xlink:href="#DejaVuSans-6f"/>
     <use x="3664.310547" xlink:href="#DejaVuSans-63"/>
    </g>
   </g>
  </g>
 </g>
 <defs>
  <clipPath id="paa22a4733b">
   <rect height="217.44" width="334.8" x="62.954062" y="22.318125"/>
  </clipPath>
 </defs>
</svg>
