<svg version="1.1" viewBox="0.0 0.0 1124.0 444.0" fill="none" stroke="none" stroke-linecap="square" stroke-miterlimit="10" width="1124" height="444" xmlns:xlink="http://www.w3.org/1999/xlink" xmlns="http://www.w3.org/2000/svg"><path fill="#ffffff" d="M0 0L1124.0 0L1124.0 444.0L0 444.0L0 0Z" fill-rule="nonzero"/><path fill="#ffffff" d="M0 0L1124.0 0L1124.0 444.0L0 444.0L0 0Z" fill-rule="nonzero"/><path stroke="#cccccc" stroke-width="1.0" stroke-linecap="butt" d="M161.5 95.5L161.5 367.5" fill-rule="nonzero"/><path stroke="#cccccc" stroke-width="1.0" stroke-linecap="butt" d="M264.5 95.5L264.5 367.5" fill-rule="nonzero"/><path stroke="#cccccc" stroke-width="1.0" stroke-linecap="butt" d="M343.5 95.5L343.5 367.5" fill-rule="nonzero"/><path stroke="#cccccc" stroke-width="1.0" stroke-linecap="butt" d="M591.5 95.5L591.5 367.5" fill-rule="nonzero"/><path stroke="#cccccc" stroke-width="1.0" stroke-linecap="butt" d="M840.5 95.5L840.5 367.5" fill-rule="nonzero"/><path stroke="#cccccc" stroke-width="1.0" stroke-linecap="butt" d="M985.5 95.5L985.5 367.5" fill-rule="nonzero"/><path stroke="#cccccc" stroke-width="1.0" stroke-linecap="butt" d="M1088.5 95.5L1088.5 367.5" fill-rule="nonzero"/><path stroke="#cccccc" stroke-width="1.0" stroke-linecap="butt" d="M82.5 367.5L1101.5 367.5" fill-rule="nonzero"/><path stroke="#cccccc" stroke-width="1.0" stroke-linecap="butt" d="M82.5 276.5L1101.5 276.5" fill-rule="nonzero"/><path stroke="#cccccc" stroke-width="1.0" stroke-linecap="butt" d="M82.5 186.5L1101.5 186.5" fill-rule="nonzero"/><path stroke="#cccccc" stroke-width="1.0" stroke-linecap="butt" d="M82.5 95.5L1101.5 95.5" fill-rule="nonzero"/><clipPath id="id_0"><path d="M82.2 95.3L1101.8 95.3L1101.8 367.8L82.2 367.8L82.2 95.3Z" clip-rule="nonzero"/></clipPath><path fill="#4285f4" clip-path="url(#id_0)" d="M100.32581 140.71666C100.32581 143.20195 98.3111 145.21666 95.82581 145.21666C93.34053 145.21666 91.32581 143.20195 91.32581 140.71666C91.32581 138.23138 93.34053 136.21666 95.82581 136.21666C98.3111 136.21666 100.32581 138.23138 100.32581 140.71666Z" fill-rule="nonzero"/><path fill="#4285f4" clip-path="url(#id_0)" d="M348.4129 276.96667C348.4129 279.45193 346.3982 281.46667 343.9129 281.46667C341.4276 281.46667 339.4129 279.45193 339.4129 276.96667C339.4129 274.48138 341.4276 272.46667 343.9129 272.46667C346.3982 272.46667 348.4129 274.48138 348.4129 276.96667Z" fill-rule="nonzero"/><path fill="#4285f4" clip-path="url(#id_0)" d="M493.53455 304.21667C493.53455 306.70193 491.51984 308.71667 489.03455 308.71667C486.5493 308.71667 484.53455 306.70193 484.53455 304.21667C484.53455 301.73138 486.5493 299.71667 489.03455 299.71667C491.51984 299.71667 493.53455 301.73138 493.53455 304.21667Z" fill-rule="nonzero"/><path fill="#4285f4" clip-path="url(#id_0)" d="M596.5 213.38333C596.5 215.86862 594.4853 217.88333 592.0 217.88333C589.5147 217.88333 587.5 215.86862 587.5 213.38333C587.5 210.89806 589.5147 208.88333 592.0 208.88333C594.4853 208.88333 596.5 210.89806 596.5 213.38333Z" fill-rule="nonzero"/><path fill="#4285f4" clip-path="url(#id_0)" d="M676.3662 249.71666C676.3662 252.20195 674.3515 254.21666 671.8662 254.21666C669.3809 254.21666 667.3662 252.20195 667.3662 249.71666C667.3662 247.23138 669.3809 245.21666 671.8662 245.21666C674.3515 245.21666 676.3662 247.23138 676.3662 249.71666Z" fill-rule="nonzero"/><path fill="#4285f4" clip-path="url(#id_0)" d="M741.62164 286.05C741.62164 288.53528 739.60693 290.55 737.12164 290.55C734.63635 290.55 732.62164 288.53528 732.62164 286.05C732.62164 283.56473 734.63635 281.55 737.12164 281.55C739.60693 281.55 741.62164 283.56473 741.62164 286.05Z" fill-rule="nonzero"/><path fill="#4285f4" clip-path="url(#id_0)" d="M796.7943 304.21667C796.7943 306.70193 794.7796 308.71667 792.2943 308.71667C789.8091 308.71667 787.7943 306.70193 787.7943 304.21667C787.7943 301.73138 789.8091 299.71667 792.2943 299.71667C794.7796 299.71667 796.7943 301.73138 796.7943 304.21667Z" fill-rule="nonzero"/><path fill="#4285f4" clip-path="url(#id_0)" d="M844.5871 286.05C844.5871 288.53528 842.5724 290.55 840.0871 290.55C837.6018 290.55 835.5871 288.53528 835.5871 286.05C835.5871 283.56473 837.6018 281.55 840.0871 281.55C842.5724 281.55 844.5871 283.56473 844.5871 286.05Z" fill-rule="nonzero"/><path fill="#4285f4" clip-path="url(#id_0)" d="M886.7433 267.88333C886.7433 270.36862 884.7286 272.38333 882.2433 272.38333C879.758 272.38333 877.7433 270.36862 877.7433 267.88333C877.7433 265.39804 879.758 263.38333 882.2433 263.38333C884.7286 263.38333 886.7433 265.39804 886.7433 267.88333Z" fill-rule="nonzero"/><path fill="#4285f4" clip-path="url(#id_0)" d="M924.4533 249.71666C924.4533 252.20195 922.4386 254.21666 919.9533 254.21666C917.468 254.21666 915.4533 252.20195 915.4533 249.71666C915.4533 247.23138 917.468 245.21666 919.9533 245.21666C922.4386 245.21666 924.4533 247.23138 924.4533 249.71666Z" fill-rule="nonzero"/><path fill="#4285f4" clip-path="url(#id_0)" d="M958.56616 313.3C958.56616 315.78528 956.55145 317.8 954.06616 317.8C951.5809 317.8 949.56616 315.78528 949.56616 313.3C949.56616 310.81473 951.5809 308.8 954.06616 308.8C956.55145 308.8 958.56616 310.81473 958.56616 313.3Z" fill-rule="nonzero"/><path fill="#4285f4" clip-path="url(#id_0)" d="M989.70874 276.96667C989.70874 279.45193 987.69403 281.46667 985.20874 281.46667C982.72345 281.46667 980.70874 279.45193 980.70874 276.96667C980.70874 274.48138 982.72345 272.46667 985.20874 272.46667C987.69403 272.46667 989.70874 274.48138 989.70874 276.96667Z" fill-rule="nonzero"/><path fill="#4285f4" clip-path="url(#id_0)" d="M1018.3572 295.13333C1018.3572 297.61862 1016.3424 299.63333 1013.8572 299.63333C1011.3719 299.63333 1009.3572 297.61862 1009.3572 295.13333C1009.3572 292.64804 1011.3719 290.63333 1013.8572 290.63333C1016.3424 290.63333 1018.3572 292.64804 1018.3572 295.13333Z" fill-rule="nonzero"/><path fill="#4285f4" clip-path="url(#id_0)" d="M1044.8815 295.13333C1044.8815 297.61862 1042.8667 299.63333 1040.3815 299.63333C1037.8961 299.63333 1035.8815 297.61862 1035.8815 295.13333C1035.8815 292.64804 1037.8961 290.63333 1040.3815 290.63333C1042.8667 290.63333 1044.8815 292.64804 1044.8815 295.13333Z" fill-rule="nonzero"/><path fill="#4285f4" clip-path="url(#id_0)" d="M1069.575 276.96667C1069.575 279.45193 1067.5602 281.46667 1065.075 281.46667C1062.5897 281.46667 1060.575 279.45193 1060.575 276.96667C1060.575 274.48138 1062.5897 272.46667 1065.075 272.46667C1067.5602 272.46667 1069.575 274.48138 1069.575 276.96667Z" fill-rule="nonzero"/><path fill="#4285f4" clip-path="url(#id_0)" d="M1092.6742 322.38333C1092.6742 324.86862 1090.6594 326.88333 1088.1742 326.88333C1085.689 326.88333 1083.6742 324.86862 1083.6742 322.38333C1083.6742 319.89804 1085.689 317.88333 1088.1742 317.88333C1090.6594 317.88333 1092.6742 319.89804 1092.6742 322.38333Z" fill-rule="nonzero"/><path fill="#db4437" clip-path="url(#id_0)" d="M100.32581 149.8C100.32581 152.28528 98.3111 154.3 95.82581 154.3C93.34053 154.3 91.32581 152.28528 91.32581 149.8C91.32581 147.31471 93.34053 145.3 95.82581 145.3C98.3111 145.3 100.32581 147.31471 100.32581 149.8Z" fill-rule="nonzero"/><path fill="#db4437" clip-path="url(#id_0)" d="M348.4129 195.21666C348.4129 197.70195 346.3982 199.71666 343.9129 199.71666C341.4276 199.71666 339.4129 197.70195 339.4129 195.21666C339.4129 192.73138 341.4276 190.71666 343.9129 190.71666C346.3982 190.71666 348.4129 192.73138 348.4129 195.21666Z" fill-rule="nonzero"/><path fill="#db4437" clip-path="url(#id_0)" d="M493.53455 222.46666C493.53455 224.95195 491.51984 226.96666 489.03455 226.96666C486.5493 226.96666 484.53455 224.95195 484.53455 222.46666C484.53455 219.98138 486.5493 217.96666 489.03455 217.96666C491.51984 217.96666 493.53455 219.98138 493.53455 222.46666Z" fill-rule="nonzero"/><path fill="#db4437" clip-path="url(#id_0)" d="M596.5 231.55C596.5 234.03528 594.4853 236.05 592.0 236.05C589.5147 236.05 587.5 234.03528 587.5 231.55C587.5 229.06471 589.5147 227.05 592.0 227.05C594.4853 227.05 596.5 229.06471 596.5 231.55Z" fill-rule="nonzero"/><path fill="#db4437" clip-path="url(#id_0)" d="M676.3662 231.55C676.3662 234.03528 674.3515 236.05 671.8662 236.05C669.3809 236.05 667.3662 234.03528 667.3662 231.55C667.3662 229.06471 669.3809 227.05 671.8662 227.05C674.3515 227.05 676.3662 229.06471 676.3662 231.55Z" fill-rule="nonzero"/><path fill="#db4437" clip-path="url(#id_0)" d="M741.62164 267.88333C741.62164 270.36862 739.60693 272.38333 737.12164 272.38333C734.63635 272.38333 732.62164 270.36862 732.62164 267.88333C732.62164 265.39804 734.63635 263.38333 737.12164 263.38333C739.60693 263.38333 741.62164 265.39804 741.62164 267.88333Z" fill-rule="nonzero"/><path fill="#db4437" clip-path="url(#id_0)" d="M796.7943 295.13333C796.7943 297.61862 794.7796 299.63333 792.2943 299.63333C789.8091 299.63333 787.7943 297.61862 787.7943 295.13333C787.7943 292.64804 789.8091 290.63333 792.2943 290.63333C794.7796 290.63333 796.7943 292.64804 796.7943 295.13333Z" fill-rule="nonzero"/><path fill="#db4437" clip-path="url(#id_0)" d="M844.5871 267.88333C844.5871 270.36862 842.5724 272.38333 840.0871 272.38333C837.6018 272.38333 835.5871 270.36862 835.5871 267.88333C835.5871 265.39804 837.6018 263.38333 840.0871 263.38333C842.5724 263.38333 844.5871 265.39804 844.5871 267.88333Z" fill-rule="nonzero"/><path fill="#db4437" clip-path="url(#id_0)" d="M886.7433 276.96667C886.7433 279.45193 884.7286 281.46667 882.2433 281.46667C879.758 281.46667 877.7433 279.45193 877.7433 276.96667C877.7433 274.48138 879.758 272.46667 882.2433 272.46667C884.7286 272.46667 886.7433 274.48138 886.7433 276.96667Z" fill-rule="nonzero"/><path fill="#db4437" clip-path="url(#id_0)" d="M924.4533 276.96667C924.4533 279.45193 922.4386 281.46667 919.9533 281.46667C917.468 281.46667 915.4533 279.45193 915.4533 276.96667C915.4533 274.48138 917.468 272.46667 919.9533 272.46667C922.4386 272.46667 924.4533 274.48138 924.4533 276.96667Z" fill-rule="nonzero"/><path fill="#db4437" clip-path="url(#id_0)" d="M958.56616 267.88333C958.56616 270.36862 956.55145 272.38333 954.06616 272.38333C951.5809 272.38333 949.56616 270.36862 949.56616 267.88333C949.56616 265.39804 951.5809 263.38333 954.06616 263.38333C956.55145 263.38333 958.56616 265.39804 958.56616 267.88333Z" fill-rule="nonzero"/><path fill="#db4437" clip-path="url(#id_0)" d="M989.70874 304.21667C989.70874 306.70193 987.69403 308.71667 985.20874 308.71667C982.72345 308.71667 980.70874 306.70193 980.70874 304.21667C980.70874 301.73138 982.72345 299.71667 985.20874 299.71667C987.69403 299.71667 989.70874 301.73138 989.70874 304.21667Z" fill-rule="nonzero"/><path fill="#db4437" clip-path="url(#id_0)" d="M1018.3572 340.55C1018.3572 343.03528 1016.3424 345.05 1013.8572 345.05C1011.3719 345.05 1009.3572 343.03528 1009.3572 340.55C1009.3572 338.06473 1011.3719 336.05 1013.8572 336.05C1016.3424 336.05 1018.3572 338.06473 1018.3572 340.55Z" fill-rule="nonzero"/><path fill="#db4437" clip-path="url(#id_0)" d="M1044.8815 304.21667C1044.8815 306.70193 1042.8667 308.71667 1040.3815 308.71667C1037.8961 308.71667 1035.8815 306.70193 1035.8815 304.21667C1035.8815 301.73138 1037.8961 299.71667 1040.3815 299.71667C1042.8667 299.71667 1044.8815 301.73138 1044.8815 304.21667Z" fill-rule="nonzero"/><path fill="#db4437" clip-path="url(#id_0)" d="M1069.575 322.38333C1069.575 324.86862 1067.5602 326.88333 1065.075 326.88333C1062.5897 326.88333 1060.575 324.86862 1060.575 322.38333C1060.575 319.89804 1062.5897 317.88333 1065.075 317.88333C1067.5602 317.88333 1069.575 319.89804 1069.575 322.38333Z" fill-rule="nonzero"/><path fill="#db4437" clip-path="url(#id_0)" d="M1092.6742 313.3C1092.6742 315.78528 1090.6594 317.8 1088.1742 317.8C1085.689 317.8 1083.6742 315.78528 1083.6742 313.3C1083.6742 310.81473 1085.689 308.8 1088.1742 308.8C1090.6594 308.8 1092.6742 310.81473 1092.6742 313.3Z" fill-rule="nonzero"/><path fill="#f4b400" clip-path="url(#id_0)" d="M100.32581 177.05C100.32581 179.53528 98.3111 181.55 95.82581 181.55C93.34053 181.55 91.32581 179.53528 91.32581 177.05C91.32581 174.56471 93.34053 172.55 95.82581 172.55C98.3111 172.55 100.32581 174.56471 100.32581 177.05Z" fill-rule="nonzero"/><path fill="#f4b400" clip-path="url(#id_0)" d="M348.4129 177.05C348.4129 179.53528 346.3982 181.55 343.9129 181.55C341.4276 181.55 339.4129 179.53528 339.4129 177.05C339.4129 174.56471 341.4276 172.55 343.9129 172.55C346.3982 172.55 348.4129 174.56471 348.4129 177.05Z" fill-rule="nonzero"/><path fill="#f4b400" clip-path="url(#id_0)" d="M493.53455 222.46666C493.53455 224.95195 491.51984 226.96666 489.03455 226.96666C486.5493 226.96666 484.53455 224.95195 484.53455 222.46666C484.53455 219.98138 486.5493 217.96666 489.03455 217.96666C491.51984 217.96666 493.53455 219.98138 493.53455 222.46666Z" fill-rule="nonzero"/><path fill="#f4b400" clip-path="url(#id_0)" d="M596.5 204.3C596.5 206.78528 594.4853 208.8 592.0 208.8C589.5147 208.8 587.5 206.78528 587.5 204.3C587.5 201.81471 589.5147 199.8 592.0 199.8C594.4853 199.8 596.5 201.81471 596.5 204.3Z" fill-rule="nonzero"/><path fill="#f4b400" clip-path="url(#id_0)" d="M676.3662 286.05C676.3662 288.53528 674.3515 290.55 671.8662 290.55C669.3809 290.55 667.3662 288.53528 667.3662 286.05C667.3662 283.56473 669.3809 281.55 671.8662 281.55C674.3515 281.55 676.3662 283.56473 676.3662 286.05Z" fill-rule="nonzero"/><path fill="#f4b400" clip-path="url(#id_0)" d="M741.62164 295.13333C741.62164 297.61862 739.60693 299.63333 737.12164 299.63333C734.63635 299.63333 732.62164 297.61862 732.62164 295.13333C732.62164 292.64804 734.63635 290.63333 737.12164 290.63333C739.60693 290.63333 741.62164 292.64804 741.62164 295.13333Z" fill-rule="nonzero"/><path fill="#f4b400" clip-path="url(#id_0)" d="M796.7943 295.13333C796.7943 297.61862 794.7796 299.63333 792.2943 299.63333C789.8091 299.63333 787.7943 297.61862 787.7943 295.13333C787.7943 292.64804 789.8091 290.63333 792.2943 290.63333C794.7796 290.63333 796.7943 292.64804 796.7943 295.13333Z" fill-rule="nonzero"/><path fill="#f4b400" clip-path="url(#id_0)" d="M844.5871 295.13333C844.5871 297.61862 842.5724 299.63333 840.0871 299.63333C837.6018 299.63333 835.5871 297.61862 835.5871 295.13333C835.5871 292.64804 837.6018 290.63333 840.0871 290.63333C842.5724 290.63333 844.5871 292.64804 844.5871 295.13333Z" fill-rule="nonzero"/><path fill="#f4b400" clip-path="url(#id_0)" d="M886.7433 258.8C886.7433 261.28528 884.7286 263.3 882.2433 263.3C879.758 263.3 877.7433 261.28528 877.7433 258.8C877.7433 256.31473 879.758 254.3 882.2433 254.3C884.7286 254.3 886.7433 256.31473 886.7433 258.8Z" fill-rule="nonzero"/><path fill="#f4b400" clip-path="url(#id_0)" d="M924.4533 258.8C924.4533 261.28528 922.4386 263.3 919.9533 263.3C917.468 263.3 915.4533 261.28528 915.4533 258.8C915.4533 256.31473 917.468 254.3 919.9533 254.3C922.4386 254.3 924.4533 256.31473 924.4533 258.8Z" fill-rule="nonzero"/><path fill="#f4b400" clip-path="url(#id_0)" d="M958.56616 295.13333C958.56616 297.61862 956.55145 299.63333 954.06616 299.63333C951.5809 299.63333 949.56616 297.61862 949.56616 295.13333C949.56616 292.64804 951.5809 290.63333 954.06616 290.63333C956.55145 290.63333 958.56616 292.64804 958.56616 295.13333Z" fill-rule="nonzero"/><path fill="#f4b400" clip-path="url(#id_0)" d="M989.70874 340.55C989.70874 343.03528 987.69403 345.05 985.20874 345.05C982.72345 345.05 980.70874 343.03528 980.70874 340.55C980.70874 338.06473 982.72345 336.05 985.20874 336.05C987.69403 336.05 989.70874 338.06473 989.70874 340.55Z" fill-rule="nonzero"/><path fill="#f4b400" clip-path="url(#id_0)" d="M1018.3572 349.63333C1018.3572 352.11862 1016.3424 354.13333 1013.8572 354.13333C1011.3719 354.13333 1009.3572 352.11862 1009.3572 349.63333C1009.3572 347.14804 1011.3719 345.13333 1013.8572 345.13333C1016.3424 345.13333 1018.3572 347.14804 1018.3572 349.63333Z" fill-rule="nonzero"/><path fill="#f4b400" clip-path="url(#id_0)" d="M1044.8815 322.38333C1044.8815 324.86862 1042.8667 326.88333 1040.3815 326.88333C1037.8961 326.88333 1035.8815 324.86862 1035.8815 322.38333C1035.8815 319.89804 1037.8961 317.88333 1040.3815 317.88333C1042.8667 317.88333 1044.8815 319.89804 1044.8815 322.38333Z" fill-rule="nonzero"/><path fill="#f4b400" clip-path="url(#id_0)" d="M1069.575 340.55C1069.575 343.03528 1067.5602 345.05 1065.075 345.05C1062.5897 345.05 1060.575 343.03528 1060.575 340.55C1060.575 338.06473 1062.5897 336.05 1065.075 336.05C1067.5602 336.05 1069.575 338.06473 1069.575 340.55Z" fill-rule="nonzero"/><path fill="#f4b400" clip-path="url(#id_0)" d="M1092.6742 358.71667C1092.6742 361.20193 1090.6594 363.21667 1088.1742 363.21667C1085.689 363.21667 1083.6742 361.20193 1083.6742 358.71667C1083.6742 356.23138 1085.689 354.21667 1088.1742 354.21667C1090.6594 354.21667 1092.6742 356.23138 1092.6742 358.71667Z" fill-rule="nonzero"/><path fill="#0f9d58" clip-path="url(#id_0)" d="M95.82581 147.85556L102.75401 159.85556L88.897606 159.85556Z" fill-rule="nonzero"/><path fill="#0f9d58" clip-path="url(#id_0)" d="M343.9129 208.41112L350.8411 220.41112L336.9847 220.41112Z" fill-rule="nonzero"/><path fill="#0f9d58" clip-path="url(#id_0)" d="M489.03455 241.71666L495.96277 253.71666L482.10635 253.71666Z" fill-rule="nonzero"/><path fill="#0f9d58" clip-path="url(#id_0)" d="M592.0 208.41112L598.9282 220.41112L585.0718 220.41112Z" fill-rule="nonzero"/><path fill="#0f9d58" clip-path="url(#id_0)" d="M671.8662 247.77222L678.79443 259.77222L664.938 259.77222Z" fill-rule="nonzero"/><path fill="#0f9d58" clip-path="url(#id_0)" d="M737.12164 275.02222L744.04987 287.02222L730.1934 287.02222Z" fill-rule="nonzero"/><path fill="#0f9d58" clip-path="url(#id_0)" d="M792.2943 290.1611L799.22253 302.1611L785.36615 302.1611Z" fill-rule="nonzero"/><path fill="#0f9d58" clip-path="url(#id_0)" d="M840.0871 275.02222L847.0153 287.02222L833.1589 287.02222Z" fill-rule="nonzero"/><path fill="#0f9d58" clip-path="url(#id_0)" d="M882.2433 259.88333L889.1715 271.88333L875.31506 271.88333Z" fill-rule="nonzero"/><path fill="#0f9d58" clip-path="url(#id_0)" d="M919.9533 253.82777L926.88153 265.8278L913.0251 265.8278Z" fill-rule="nonzero"/><path fill="#0f9d58" clip-path="url(#id_0)" d="M954.06616 284.10556L960.9943 296.10556L947.13794 296.10556Z" fill-rule="nonzero"/><path fill="#0f9d58" clip-path="url(#id_0)" d="M985.20874 299.24445L992.13696 311.24445L978.2805 311.24445Z" fill-rule="nonzero"/><path fill="#0f9d58" clip-path="url(#id_0)" d="M1013.8572 320.4389L1020.78534 332.4389L1006.92896 332.4389Z" fill-rule="nonzero"/><path fill="#0f9d58" clip-path="url(#id_0)" d="M1040.3815 299.24445L1047.3097 311.24445L1033.4532 311.24445Z" fill-rule="nonzero"/><path fill="#0f9d58" clip-path="url(#id_0)" d="M1065.075 305.3L1072.0032 317.3L1058.1467 317.3Z" fill-rule="nonzero"/><path fill="#0f9d58" clip-path="url(#id_0)" d="M1088.1742 323.46667L1095.1024 335.46667L1081.246 335.46667Z" fill-rule="nonzero"/><path fill="#424242" d="M468.98438 418.8L468.98438 410.26874L471.40625 410.26874Q472.51562 410.26874 473.35938 410.76874Q474.21875 411.2531 474.6875 412.15936Q475.15625 413.0656 475.15625 414.2531L475.15625 414.78436Q475.15625 416.0031 474.6875 416.90936Q474.23438 417.8156 473.35938 418.3Q472.5 418.78436 471.35938 418.8L468.98438 418.8ZM470.10938 411.1906L470.10938 417.8781L471.29688 417.8781Q472.59375 417.8781 473.3125 417.08124Q474.04688 416.26874 474.04688 414.76874L474.04688 414.26874Q474.04688 412.8156 473.35938 412.01874Q472.6875 411.20624 471.42188 411.1906L470.10938 411.1906ZM478.0 418.8L476.92188 418.8L476.92188 412.45624L478.0 412.45624L478.0 418.8ZM476.82812 410.78436Q476.82812 410.51874 476.98438 410.33124Q477.15625 410.14374 477.46875 410.14374Q477.78125 410.14374 477.9375 410.33124Q478.10938 410.51874 478.10938 410.78436Q478.10938 411.03436 477.9375 411.22186Q477.78125 411.39374 477.46875 411.39374Q477.15625 411.39374 476.98438 411.22186Q476.82812 411.03436 476.82812 410.78436ZM483.51562 417.1125Q483.51562 416.675 483.17188 416.4406Q482.84375 416.1906 482.01562 416.01874Q481.20312 415.84686 480.71875 415.59686Q480.23438 415.34686 480.0 415.01874Q479.78125 414.675 479.78125 414.20624Q479.78125 413.425 480.4375 412.89374Q481.09375 412.34686 482.125 412.34686Q483.20312 412.34686 483.85938 412.90936Q484.53125 413.45624 484.53125 414.3156L483.45312 414.3156Q483.45312 413.8781 483.0625 413.5656Q482.6875 413.2375 482.125 413.2375Q481.53125 413.2375 481.1875 413.5031Q480.85938 413.7531 480.85938 414.15936Q480.85938 414.55 481.17188 414.7531Q481.48438 414.95624 482.29688 415.14374Q483.10938 415.3156 483.60938 415.5656Q484.10938 415.8156 484.34375 416.175Q484.59375 416.53436 484.59375 417.03436Q484.59375 417.89374 483.90625 418.40936Q483.23438 418.925 482.15625 418.925Q481.39062 418.925 480.79688 418.65936Q480.21875 418.3781 479.89062 417.89374Q479.5625 417.40936 479.5625 416.84686L480.64062 416.84686Q480.67188 417.39374 481.07812 417.72186Q481.48438 418.03436 482.15625 418.03436Q482.76562 418.03436 483.14062 417.78436Q483.51562 417.53436 483.51562 417.1125ZM487.29688 410.925L487.29688 412.45624L488.46875 412.45624L488.46875 413.3L487.29688 413.3L487.29688 417.22186Q487.29688 417.6125 487.45312 417.8Q487.60938 417.9875 487.98438 417.9875Q488.17188 417.9875 488.5 417.925L488.5 418.8Q488.07812 418.925 487.67188 418.925Q486.95312 418.925 486.57812 418.4875Q486.20312 418.03436 486.20312 417.22186L486.20312 413.3L485.04688 413.3L485.04688 412.45624L486.20312 412.45624L486.20312 410.925L487.29688 410.925ZM493.73438 418.8Q493.64062 418.6125 493.57812 418.1281Q492.82812 418.925 491.78125 418.925Q490.84375 418.925 490.23438 418.39374Q489.64062 417.8625 489.64062 417.03436Q489.64062 416.05 490.39062 415.5031Q491.14062 414.95624 492.51562 414.95624L493.5625 414.95624L493.5625 414.45624Q493.5625 413.89374 493.21875 413.5656Q492.89062 413.22186 492.21875 413.22186Q491.64062 413.22186 491.25 413.51874Q490.85938 413.8 490.85938 414.22186L489.76562 414.22186Q489.76562 413.7375 490.09375 413.3Q490.4375 412.8625 491.01562 412.6125Q491.59375 412.34686 492.28125 412.34686Q493.39062 412.34686 494.0 412.89374Q494.625 413.4406 494.65625 414.39374L494.65625 417.3156Q494.65625 418.1906 494.875 418.70624L494.875 418.8L493.73438 418.8ZM491.9375 417.97186Q492.45312 417.97186 492.90625 417.70624Q493.35938 417.4406 493.5625 417.01874L493.5625 415.72186L492.71875 415.72186Q490.71875 415.72186 490.71875 416.89374Q490.71875 417.39374 491.0625 417.6906Q491.40625 417.97186 491.9375 417.97186ZM497.84375 412.45624L497.875 413.2531Q498.60938 412.34686 499.78125 412.34686Q501.79688 412.34686 501.8125 414.6125L501.8125 418.8L500.71875 418.8L500.71875 414.59686Q500.71875 413.925 500.40625 413.59686Q500.10938 413.26874 499.45312 413.26874Q498.92188 413.26874 498.51562 413.55Q498.125 413.83124 497.90625 414.28436L497.90625 418.8L496.82812 418.8L496.82812 412.45624L497.84375 412.45624ZM506.35938 418.03436Q506.9375 418.03436 507.375 417.6906Q507.8125 417.33124 507.85938 416.8L508.89062 416.8Q508.85938 417.34686 508.5 417.84686Q508.15625 418.33124 507.57812 418.6281Q507.01562 418.925 506.35938 418.925Q505.0625 418.925 504.29688 418.0656Q503.54688 417.1906 503.54688 415.6906L503.54688 415.5031Q503.54688 414.58124 503.875 413.8625Q504.21875 413.14374 504.84375 412.7531Q505.48438 412.34686 506.35938 412.34686Q507.42188 412.34686 508.125 412.9875Q508.84375 413.6125 508.89062 414.64374L507.85938 414.64374Q507.8125 414.01874 507.39062 413.6281Q506.96875 413.2375 506.35938 413.2375Q505.53125 413.2375 505.07812 413.83124Q504.625 414.425 504.625 415.55L504.625 415.7531Q504.625 416.84686 505.07812 417.4406Q505.53125 418.03436 506.35938 418.03436ZM512.4531 418.925Q511.15625 418.925 510.34375 418.08124Q509.54688 417.22186 509.54688 415.8L509.54688 415.6125Q509.54688 414.65936 509.90625 413.925Q510.26562 413.175 510.90625 412.76874Q511.5625 412.34686 512.3125 412.34686Q513.5469 412.34686 514.2344 413.15936Q514.9219 413.97186 514.9219 415.4875L514.9219 415.9406L510.625 415.9406Q510.65625 416.8781 511.17188 417.45624Q511.70312 418.03436 512.5156 418.03436Q513.0781 418.03436 513.46875 417.8Q513.875 417.5656 514.1875 417.175L514.84375 417.6906Q514.0469 418.925 512.4531 418.925ZM512.3125 413.2375Q511.65625 413.2375 511.20312 413.72186Q510.76562 414.1906 510.67188 415.05L513.84375 415.05L513.84375 414.97186Q513.7969 414.14374 513.3906 413.6906Q513.0 413.2375 512.3125 413.2375ZM524.1875 415.70624Q524.1875 417.15936 523.5156 418.05Q522.8594 418.925 521.7344 418.925Q520.53125 418.925 519.875 418.0656L519.8125 418.8L518.8281 418.8L518.8281 409.8L519.90625 409.8L519.90625 413.15936Q520.5625 412.34686 521.71875 412.34686Q522.875 412.34686 523.53125 413.22186Q524.1875 414.08124 524.1875 415.6125L524.1875 415.70624ZM523.1094 415.58124Q523.1094 414.47186 522.6719 413.8781Q522.25 413.26874 521.4531 413.26874Q520.375 413.26874 519.90625 414.2531L519.90625 417.0031Q520.40625 418.0031 521.4531 418.0031Q522.2344 418.0031 522.6719 417.39374Q523.1094 416.78436 523.1094 415.58124ZM528.4531 418.925Q527.15625 418.925 526.34375 418.08124Q525.5469 417.22186 525.5469 415.8L525.5469 415.6125Q525.5469 414.65936 525.90625 413.925Q526.2656 413.175 526.90625 412.76874Q527.5625 412.34686 528.3125 412.34686Q529.5469 412.34686 530.2344 413.15936Q530.9219 413.97186 530.9219 415.4875L530.9219 415.9406L526.625 415.9406Q526.65625 416.8781 527.1719 417.45624Q527.7031 418.03436 528.5156 418.03436Q529.0781 418.03436 529.46875 417.8Q529.875 417.5656 530.1875 417.175L530.84375 417.6906Q530.0469 418.925 528.4531 418.925ZM528.3125 413.2375Q527.65625 413.2375 527.2031 413.72186Q526.7656 414.1906 526.6719 415.05L529.84375 415.05L529.84375 414.97186Q529.7969 414.14374 529.3906 413.6906Q529.0 413.2375 528.3125 413.2375ZM533.2969 410.925L533.2969 412.45624L534.46875 412.45624L534.46875 413.3L533.2969 413.3L533.2969 417.22186Q533.2969 417.6125 533.4531 417.8Q533.6094 417.9875 533.9844 417.9875Q534.1719 417.9875 534.5 417.925L534.5 418.8Q534.0781 418.925 533.6719 418.925Q532.9531 418.925 532.5781 418.4875Q532.2031 418.03436 532.2031 417.22186L532.2031 413.3L531.0469 413.3L531.0469 412.45624L532.2031 412.45624L532.2031 410.925L533.2969 410.925ZM541.4375 417.3L542.65625 412.45624L543.7344 412.45624L541.8906 418.8L541.0156 418.8L539.46875 413.9875L537.96875 418.8L537.09375 418.8L535.25 412.45624L536.3281 412.45624L537.5781 417.20624L539.0625 412.45624L539.9219 412.45624L541.4375 417.3ZM547.4531 418.925Q546.15625 418.925 545.34375 418.08124Q544.5469 417.22186 544.5469 415.8L544.5469 415.6125Q544.5469 414.65936 544.90625 413.925Q545.2656 413.175 545.90625 412.76874Q546.5625 412.34686 547.3125 412.34686Q548.5469 412.34686 549.2344 413.15936Q549.9219 413.97186 549.9219 415.4875L549.9219 415.9406L545.625 415.9406Q545.65625 416.8781 546.1719 417.45624Q546.7031 418.03436 547.5156 418.03436Q548.0781 418.03436 548.46875 417.8Q548.875 417.5656 549.1875 417.175L549.84375 417.6906Q549.0469 418.925 547.4531 418.925ZM547.3125 413.2375Q546.65625 413.2375 546.2031 413.72186Q545.7656 414.1906 545.6719 415.05L548.84375 415.05L548.84375 414.97186Q548.7969 414.14374 548.3906 413.6906Q548.0 413.2375 547.3125 413.2375ZM553.4531 418.925Q552.15625 418.925 551.34375 418.08124Q550.5469 417.22186 550.5469 415.8L550.5469 415.6125Q550.5469 414.65936 550.90625 413.925Q551.2656 413.175 551.90625 412.76874Q552.5625 412.34686 553.3125 412.34686Q554.5469 412.34686 555.2344 413.15936Q555.9219 413.97186 555.9219 415.4875L555.9219 415.9406L551.625 415.9406Q551.65625 416.8781 552.1719 417.45624Q552.7031 418.03436 553.5156 418.03436Q554.0781 418.03436 554.46875 417.8Q554.875 417.5656 555.1875 417.175L555.84375 417.6906Q555.0469 418.925 553.4531 418.925ZM553.3125 413.2375Q552.65625 413.2375 552.2031 413.72186Q551.7656 414.1906 551.6719 415.05L554.84375 415.05L554.84375 414.97186Q554.7969 414.14374 554.3906 413.6906Q554.0 413.2375 553.3125 413.2375ZM557.84375 412.45624L557.875 413.2531Q558.6094 412.34686 559.78125 412.34686Q561.7969 412.34686 561.8125 414.6125L561.8125 418.8L560.71875 418.8L560.71875 414.59686Q560.71875 413.925 560.40625 413.59686Q560.1094 413.26874 559.4531 413.26874Q558.9219 413.26874 558.5156 413.55Q558.125 413.83124 557.90625 414.28436L557.90625 418.8L556.8281 418.8L556.8281 412.45624L557.84375 412.45624ZM569.8906 413.425Q569.6406 413.39374 569.3594 413.39374Q568.28125 413.39374 567.90625 414.3L567.90625 418.8L566.8281 418.8L566.8281 412.45624L567.875 412.45624L567.8906 413.1906Q568.4219 412.34686 569.40625 412.34686Q569.71875 412.34686 569.8906 412.425L569.8906 413.425ZM573.4531 418.925Q572.15625 418.925 571.34375 418.08124Q570.5469 417.22186 570.5469 415.8L570.5469 415.6125Q570.5469 414.65936 570.90625 413.925Q571.2656 413.175 571.90625 412.76874Q572.5625 412.34686 573.3125 412.34686Q574.5469 412.34686 575.2344 413.15936Q575.9219 413.97186 575.9219 415.4875L575.9219 415.9406L571.625 415.9406Q571.65625 416.8781 572.1719 417.45624Q572.7031 418.03436 573.5156 418.03436Q574.0781 418.03436 574.46875 417.8Q574.875 417.5656 575.1875 417.175L575.84375 417.6906Q575.0469 418.925 573.4531 418.925ZM573.3125 413.2375Q572.65625 413.2375 572.2031 413.72186Q571.7656 414.1906 571.6719 415.05L574.84375 415.05L574.84375 414.97186Q574.7969 414.14374 574.3906 413.6906Q574.0 413.2375 573.3125 413.2375ZM579.3594 418.03436Q579.9375 418.03436 580.375 417.6906Q580.8125 417.33124 580.8594 416.8L581.8906 416.8Q581.8594 417.34686 581.5 417.84686Q581.15625 418.33124 580.5781 418.6281Q580.0156 418.925 579.3594 418.925Q578.0625 418.925 577.2969 418.0656Q576.5469 417.1906 576.5469 415.6906L576.5469 415.5031Q576.5469 414.58124 576.875 413.8625Q577.21875 413.14374 577.84375 412.7531Q578.4844 412.34686 579.3594 412.34686Q580.4219 412.34686 581.125 412.9875Q581.84375 413.6125 581.8906 414.64374L580.8594 414.64374Q580.8125 414.01874 580.3906 413.6281Q579.96875 413.2375 579.3594 413.2375Q578.53125 413.2375 578.0781 413.83124Q577.625 414.425 577.625 415.55L577.625 415.7531Q577.625 416.84686 578.0781 417.4406Q578.53125 418.03436 579.3594 418.03436ZM585.4531 418.925Q584.15625 418.925 583.34375 418.08124Q582.5469 417.22186 582.5469 415.8L582.5469 415.6125Q582.5469 414.65936 582.90625 413.925Q583.2656 413.175 583.90625 412.76874Q584.5625 412.34686 585.3125 412.34686Q586.5469 412.34686 587.2344 413.15936Q587.9219 413.97186 587.9219 415.4875L587.9219 415.9406L583.625 415.9406Q583.65625 416.8781 584.1719 417.45624Q584.7031 418.03436 585.5156 418.03436Q586.0781 418.03436 586.46875 417.8Q586.875 417.5656 587.1875 417.175L587.84375 417.6906Q587.0469 418.925 585.4531 418.925ZM585.3125 413.2375Q584.65625 413.2375 584.2031 413.72186Q583.7656 414.1906 583.6719 415.05L586.84375 415.05L586.84375 414.97186Q586.7969 414.14374 586.3906 413.6906Q586.0 413.2375 585.3125 413.2375ZM590.0 418.8L588.9219 418.8L588.9219 412.45624L590.0 412.45624L590.0 418.8ZM588.8281 410.78436Q588.8281 410.51874 588.9844 410.33124Q589.15625 410.14374 589.46875 410.14374Q589.78125 410.14374 589.9375 410.33124Q590.1094 410.51874 590.1094 410.78436Q590.1094 411.03436 589.9375 411.22186Q589.78125 411.39374 589.46875 411.39374Q589.15625 411.39374 588.9844 411.22186Q588.8281 411.03436 588.8281 410.78436ZM593.90625 417.33124L595.4844 412.45624L596.59375 412.45624L594.3125 418.8L593.4844 418.8L591.1875 412.45624L592.2969 412.45624L593.90625 417.33124ZM600.4531 418.925Q599.15625 418.925 598.34375 418.08124Q597.5469 417.22186 597.5469 415.8L597.5469 415.6125Q597.5469 414.65936 597.90625 413.925Q598.2656 413.175 598.90625 412.76874Q599.5625 412.34686 600.3125 412.34686Q601.5469 412.34686 602.2344 413.15936Q602.9219 413.97186 602.9219 415.4875L602.9219 415.9406L598.625 415.9406Q598.65625 416.8781 599.1719 417.45624Q599.7031 418.03436 600.5156 418.03436Q601.0781 418.03436 601.46875 417.8Q601.875 417.5656 602.1875 417.175L602.84375 417.6906Q602.0469 418.925 600.4531 418.925ZM600.3125 413.2375Q599.65625 413.2375 599.2031 413.72186Q598.7656 414.1906 598.6719 415.05L601.84375 415.05L601.84375 414.97186Q601.7969 414.14374 601.3906 413.6906Q601.0 413.2375 600.3125 413.2375ZM606.8906 413.425Q606.6406 413.39374 606.3594 413.39374Q605.28125 413.39374 604.90625 414.3L604.90625 418.8L603.8281 418.8L603.8281 412.45624L604.875 412.45624L604.8906 413.1906Q605.4219 412.34686 606.40625 412.34686Q606.71875 412.34686 606.8906 412.425L606.8906 413.425ZM614.7344 418.8Q614.6406 418.6125 614.5781 418.1281Q613.8281 418.925 612.78125 418.925Q611.84375 418.925 611.2344 418.39374Q610.6406 417.8625 610.6406 417.03436Q610.6406 416.05 611.3906 415.5031Q612.1406 414.95624 613.5156 414.95624L614.5625 414.95624L614.5625 414.45624Q614.5625 413.89374 614.21875 413.5656Q613.8906 413.22186 613.21875 413.22186Q612.6406 413.22186 612.25 413.51874Q611.8594 413.8 611.8594 414.22186L610.7656 414.22186Q610.7656 413.7375 611.09375 413.3Q611.4375 412.8625 612.0156 412.6125Q612.59375 412.34686 613.28125 412.34686Q614.3906 412.34686 615.0 412.89374Q615.625 413.4406 615.65625 414.39374L615.65625 417.3156Q615.65625 418.1906 615.875 418.70624L615.875 418.8L614.7344 418.8ZM612.9375 417.97186Q613.4531 417.97186 613.90625 417.70624Q614.3594 417.4406 614.5625 417.01874L614.5625 415.72186L613.71875 415.72186Q611.71875 415.72186 611.71875 416.89374Q611.71875 417.39374 612.0625 417.6906Q612.40625 417.97186 612.9375 417.97186ZM618.84375 412.45624L618.875 413.2531Q619.6094 412.34686 620.78125 412.34686Q622.7969 412.34686 622.8125 414.6125L622.8125 418.8L621.71875 418.8L621.71875 414.59686Q621.71875 413.925 621.40625 413.59686Q621.1094 413.26874 620.4531 413.26874Q619.9219 413.26874 619.5156 413.55Q619.125 413.83124 618.90625 414.28436L618.90625 418.8L617.8281 418.8L617.8281 412.45624L618.84375 412.45624ZM624.5625 415.58124Q624.5625 414.1125 625.25 413.2375Q625.9375 412.34686 627.0625 412.34686Q628.1719 412.34686 628.8281 413.09686L628.8281 409.8L629.90625 409.8L629.90625 418.8L628.90625 418.8L628.8594 418.1125Q628.2031 418.925 627.0469 418.925Q625.9531 418.925 625.25 418.01874Q624.5625 417.1125 624.5625 415.65936L624.5625 415.58124ZM625.6406 415.70624Q625.6406 416.78436 626.0781 417.39374Q626.53125 418.0031 627.3125 418.0031Q628.34375 418.0031 628.8281 417.0656L628.8281 414.15936Q628.34375 413.26874 627.3281 413.26874Q626.53125 413.26874 626.0781 413.8781Q625.6406 414.4875 625.6406 415.70624ZM636.2969 410.925L636.2969 412.45624L637.46875 412.45624L637.46875 413.3L636.2969 413.3L636.2969 417.22186Q636.2969 417.6125 636.4531 417.8Q636.6094 417.9875 636.9844 417.9875Q637.1719 417.9875 637.5 417.925L637.5 418.8Q637.0781 418.925 636.6719 418.925Q635.9531 418.925 635.5781 418.4875Q635.2031 418.03436 635.2031 417.22186L635.2031 413.3L634.0469 413.3L634.0469 412.45624L635.2031 412.45624L635.2031 410.925L636.2969 410.925ZM641.8906 413.425Q641.6406 413.39374 641.3594 413.39374Q640.28125 413.39374 639.90625 414.3L639.90625 418.8L638.8281 418.8L638.8281 412.45624L639.875 412.45624L639.8906 413.1906Q640.4219 412.34686 641.40625 412.34686Q641.71875 412.34686 641.8906 412.425L641.8906 413.425ZM646.7344 418.8Q646.6406 418.6125 646.5781 418.1281Q645.8281 418.925 644.78125 418.925Q643.84375 418.925 643.2344 418.39374Q642.6406 417.8625 642.6406 417.03436Q642.6406 416.05 643.3906 415.5031Q644.1406 414.95624 645.5156 414.95624L646.5625 414.95624L646.5625 414.45624Q646.5625 413.89374 646.21875 413.5656Q645.8906 413.22186 645.21875 413.22186Q644.6406 413.22186 644.25 413.51874Q643.8594 413.8 643.8594 414.22186L642.7656 414.22186Q642.7656 413.7375 643.09375 413.3Q643.4375 412.8625 644.0156 412.6125Q644.59375 412.34686 645.28125 412.34686Q646.3906 412.34686 647.0 412.89374Q647.625 413.4406 647.65625 414.39374L647.65625 417.3156Q647.65625 418.1906 647.875 418.70624L647.875 418.8L646.7344 418.8ZM644.9375 417.97186Q645.4531 417.97186 645.90625 417.70624Q646.3594 417.4406 646.5625 417.01874L646.5625 415.72186L645.71875 415.72186Q643.71875 415.72186 643.71875 416.89374Q643.71875 417.39374 644.0625 417.6906Q644.40625 417.97186 644.9375 417.97186ZM650.84375 412.45624L650.875 413.2531Q651.6094 412.34686 652.78125 412.34686Q654.7969 412.34686 654.8125 414.6125L654.8125 418.8L653.71875 418.8L653.71875 414.59686Q653.71875 413.925 653.40625 413.59686Q653.1094 413.26874 652.4531 413.26874Q651.9219 413.26874 651.5156 413.55Q651.125 413.83124 650.90625 414.28436L650.90625 418.8L649.8281 418.8L649.8281 412.45624L650.84375 412.45624ZM660.5156 417.1125Q660.5156 416.675 660.1719 416.4406Q659.84375 416.1906 659.0156 416.01874Q658.2031 415.84686 657.71875 415.59686Q657.2344 415.34686 657.0 415.01874Q656.78125 414.675 656.78125 414.20624Q656.78125 413.425 657.4375 412.89374Q658.09375 412.34686 659.125 412.34686Q660.2031 412.34686 660.8594 412.90936Q661.53125 413.45624 661.53125 414.3156L660.4531 414.3156Q660.4531 413.8781 660.0625 413.5656Q659.6875 413.2375 659.125 413.2375Q658.53125 413.2375 658.1875 413.5031Q657.8594 413.7531 657.8594 414.15936Q657.8594 414.55 658.1719 414.7531Q658.4844 414.95624 659.2969 415.14374Q660.1094 415.3156 660.6094 415.5656Q661.1094 415.8156 661.34375 416.175Q661.59375 416.53436 661.59375 417.03436Q661.59375 417.89374 660.90625 418.40936Q660.2344 418.925 659.15625 418.925Q658.3906 418.925 657.7969 418.65936Q657.21875 418.3781 656.8906 417.89374Q656.5625 417.40936 656.5625 416.84686L657.6406 416.84686Q657.6719 417.39374 658.0781 417.72186Q658.4844 418.03436 659.15625 418.03436Q659.7656 418.03436 660.1406 417.78436Q660.5156 417.53436 660.5156 417.1125ZM663.84375 412.45624L663.875 413.15936Q664.5625 412.34686 665.75 412.34686Q667.0781 412.34686 667.5625 413.3625Q667.875 412.90936 668.375 412.6281Q668.8906 412.34686 669.5781 412.34686Q671.6719 412.34686 671.7031 414.55L671.7031 418.8L670.625 418.8L670.625 414.6125Q670.625 413.9406 670.3125 413.6125Q670.0 413.26874 669.2656 413.26874Q668.65625 413.26874 668.25 413.6281Q667.8594 413.9875 667.7969 414.59686L667.7969 418.8L666.71875 418.8L666.71875 414.64374Q666.71875 413.26874 665.3594 413.26874Q664.2969 413.26874 663.90625 414.175L663.90625 418.8L662.8125 418.8L662.8125 412.45624L663.84375 412.45624ZM675.0 418.8L673.9219 418.8L673.9219 412.45624L675.0 412.45624L675.0 418.8ZM673.8281 410.78436Q673.8281 410.51874 673.9844 410.33124Q674.15625 410.14374 674.46875 410.14374Q674.78125 410.14374 674.9375 410.33124Q675.1094 410.51874 675.1094 410.78436Q675.1094 411.03436 674.9375 411.22186Q674.78125 411.39374 674.46875 411.39374Q674.15625 411.39374 673.9844 411.22186Q673.8281 411.03436 673.8281 410.78436ZM678.2969 410.925L678.2969 412.45624L679.46875 412.45624L679.46875 413.3L678.2969 413.3L678.2969 417.22186Q678.2969 417.6125 678.4531 417.8Q678.6094 417.9875 678.9844 417.9875Q679.1719 417.9875 679.5 417.925L679.5 418.8Q679.0781 418.925 678.6719 418.925Q677.9531 418.925 677.5781 418.4875Q677.2031 418.03436 677.2031 417.22186L677.2031 413.3L676.0469 413.3L676.0469 412.45624L677.2031 412.45624L677.2031 410.925L678.2969 410.925ZM682.2969 410.925L682.2969 412.45624L683.46875 412.45624L683.46875 413.3L682.2969 413.3L682.2969 417.22186Q682.2969 417.6125 682.4531 417.8Q682.6094 417.9875 682.9844 417.9875Q683.1719 417.9875 683.5 417.925L683.5 418.8Q683.0781 418.925 682.6719 418.925Q681.9531 418.925 681.5781 418.4875Q681.2031 418.03436 681.2031 417.22186L681.2031 413.3L680.0469 413.3L680.0469 412.45624L681.2031 412.45624L681.2031 410.925L682.2969 410.925ZM687.4531 418.925Q686.15625 418.925 685.34375 418.08124Q684.5469 417.22186 684.5469 415.8L684.5469 415.6125Q684.5469 414.65936 684.90625 413.925Q685.2656 413.175 685.90625 412.76874Q686.5625 412.34686 687.3125 412.34686Q688.5469 412.34686 689.2344 413.15936Q689.9219 413.97186 689.9219 415.4875L689.9219 415.9406L685.625 415.9406Q685.65625 416.8781 686.1719 417.45624Q686.7031 418.03436 687.5156 418.03436Q688.0781 418.03436 688.46875 417.8Q688.875 417.5656 689.1875 417.175L689.84375 417.6906Q689.0469 418.925 687.4531 418.925ZM687.3125 413.2375Q686.65625 413.2375 686.2031 413.72186Q685.7656 414.1906 685.6719 415.05L688.84375 415.05L688.84375 414.97186Q688.7969 414.14374 688.3906 413.6906Q688.0 413.2375 687.3125 413.2375ZM693.8906 413.425Q693.6406 413.39374 693.3594 413.39374Q692.28125 413.39374 691.90625 414.3L691.90625 418.8L690.8281 418.8L690.8281 412.45624L691.875 412.45624L691.8906 413.1906Q692.4219 412.34686 693.40625 412.34686Q693.71875 412.34686 693.8906 412.425L693.8906 413.425ZM697.78125 415.33124Q697.78125 414.01874 698.125 412.8Q698.4844 411.58124 699.1875 410.58124Q699.8906 409.58124 700.65625 409.175L700.875 409.89374Q700.0156 410.55 699.46875 411.89374Q698.9219 413.2375 698.875 414.90936L698.8594 415.40936Q698.8594 417.675 699.6875 419.33124Q700.1875 420.33124 700.875 420.89374L700.65625 421.55Q699.875 421.1281 699.15625 420.09686Q697.78125 418.1125 697.78125 415.33124ZM702.84375 412.45624L702.875 413.15936Q703.5625 412.34686 704.75 412.34686Q706.0781 412.34686 706.5625 413.3625Q706.875 412.90936 707.375 412.6281Q707.8906 412.34686 708.5781 412.34686Q710.6719 412.34686 710.7031 414.55L710.7031 418.8L709.625 418.8L709.625 414.6125Q709.625 413.9406 709.3125 413.6125Q709.0 413.26874 708.2656 413.26874Q707.65625 413.26874 707.25 413.6281Q706.8594 413.9875 706.7969 414.59686L706.7969 418.8L705.71875 418.8L705.71875 414.64374Q705.71875 413.26874 704.3594 413.26874Q703.2969 413.26874 702.90625 414.175L702.90625 418.8L701.8125 418.8L701.8125 412.45624L702.84375 412.45624ZM715.3281 415.39374Q715.3281 416.70624 714.9844 417.90936Q714.6406 419.09686 713.9219 420.1125Q713.21875 421.1281 712.4531 421.55L712.21875 420.89374Q713.125 420.20624 713.6719 418.7531Q714.21875 417.28436 714.2344 415.51874L714.2344 415.33124Q714.2344 414.09686 713.96875 413.03436Q713.71875 411.97186 713.25 411.14374Q712.7969 410.3 712.21875 409.83124L712.4531 409.175Q713.21875 409.59686 713.9219 410.59686Q714.625 411.59686 714.96875 412.8156Q715.3281 414.01874 715.3281 415.39374Z" fill-rule="nonzero"/><path fill="#424242" d="M30.403112 293.8Q29.981237 295.2375 29.371862 295.90936Q28.762487 296.5656 27.871862 296.5656Q26.871862 296.5656 26.215612 295.76874Q25.543737 294.95624 25.543737 293.65936Q25.543737 292.78436 25.887487 292.09686Q26.231237 291.40936 26.824987 291.03436Q27.418737 290.64374 28.137487 290.64374L28.137487 291.78436Q27.356237 291.78436 26.918737 292.28436Q26.481237 292.76874 26.481237 293.65936Q26.481237 294.4875 26.856237 294.95624Q27.215612 295.425 27.856237 295.425Q28.387487 295.425 28.746862 294.9875Q29.106237 294.53436 29.403112 293.47186Q29.699987 292.40936 30.059362 291.8156Q30.418737 291.20624 30.903112 290.925Q31.387487 290.6281 32.028114 290.6281Q33.07499 290.6281 33.69999 291.4406Q34.32499 292.2531 34.32499 293.59686Q34.32499 294.4875 33.98124 295.2531Q33.63749 296.0031 33.059364 296.425Q32.465614 296.83124 31.731237 296.83124L31.731237 295.70624Q32.496864 295.70624 32.94999 295.1281Q33.403114 294.55 33.403114 293.59686Q33.403114 292.70624 33.04374 292.2375Q32.66874 291.76874 32.04374 291.76874Q31.418737 291.76874 31.074987 292.20624Q30.731237 292.64374 30.403112 293.8ZM34.19999 288.3L34.19999 289.3781L27.856237 289.3781L27.856237 288.3L34.19999 288.3ZM26.184362 289.47186Q25.918737 289.47186 25.731237 289.3156Q25.543737 289.14374 25.543737 288.83124Q25.543737 288.51874 25.731237 288.3625Q25.918737 288.1906 26.184362 288.1906Q26.434362 288.1906 26.621862 288.3625Q26.793737 288.51874 26.793737 288.83124Q26.793737 289.14374 26.621862 289.3156Q26.434362 289.47186 26.184362 289.47186ZM30.981237 286.7375Q29.496862 286.7375 28.621862 286.05Q27.746862 285.3625 27.746862 284.2375Q27.746862 283.08124 28.559362 282.425L27.856237 282.3781L27.856237 281.3781L34.04374 281.3781Q35.278114 281.3781 35.98124 282.1125Q36.69999 282.84686 36.69999 284.0656Q36.69999 284.7531 36.403114 285.40936Q36.10624 286.0656 35.60624 286.40936L34.94999 285.84686Q35.809364 285.15936 35.809364 284.14374Q35.809364 283.3625 35.35624 282.925Q34.91874 282.47186 34.10624 282.47186L33.559364 282.47186Q34.32499 283.1281 34.32499 284.2531Q34.32499 285.3625 33.434364 286.05Q32.528114 286.7375 30.981237 286.7375ZM31.106237 285.64374Q32.16874 285.64374 32.79374 285.20624Q33.403114 284.76874 33.403114 283.97186Q33.403114 282.95624 32.465614 282.47186L29.574987 282.47186Q28.668737 282.97186 28.668737 283.97186Q28.668737 284.7531 29.278112 285.20624Q29.887487 285.64374 31.106237 285.64374ZM27.856237 278.45624L28.653112 278.425Q27.746862 277.6906 27.746862 276.51874Q27.746862 274.5031 30.012487 274.4875L34.19999 274.4875L34.19999 275.58124L29.996862 275.58124Q29.324987 275.58124 28.996862 275.89374Q28.668737 276.1906 28.668737 276.84686Q28.668737 277.3781 28.949987 277.78436Q29.231237 278.175 29.684362 278.39374L34.19999 278.39374L34.19999 279.47186L27.856237 279.47186L27.856237 278.45624ZM34.19999 268.5656Q34.01249 268.65936 33.528114 268.72186Q34.32499 269.47186 34.32499 270.51874Q34.32499 271.45624 33.79374 272.0656Q33.26249 272.65936 32.434364 272.65936Q31.449987 272.65936 30.903112 271.90936Q30.356237 271.15936 30.356237 269.78436L30.356237 268.7375L29.856237 268.7375Q29.293737 268.7375 28.965612 269.08124Q28.621862 269.40936 28.621862 270.08124Q28.621862 270.65936 28.918737 271.05Q29.199987 271.4406 29.621862 271.4406L29.621862 272.53436Q29.137487 272.53436 28.699987 272.20624Q28.262487 271.8625 28.012487 271.28436Q27.746862 270.70624 27.746862 270.01874Q27.746862 268.90936 28.293737 268.3Q28.840612 267.675 29.793737 267.64374L32.715614 267.64374Q33.590614 267.64374 34.10624 267.425L34.19999 267.425L34.19999 268.5656ZM33.371864 270.3625Q33.371864 269.84686 33.10624 269.39374Q32.840614 268.9406 32.41874 268.7375L31.121862 268.7375L31.121862 269.58124Q31.121862 271.58124 32.29374 271.58124Q32.79374 271.58124 33.090614 271.2375Q33.371864 270.89374 33.371864 270.3625ZM34.19999 264.3L34.19999 265.3781L25.199987 265.3781L25.199987 264.3L34.19999 264.3ZM32.51249 255.78438Q32.07499 255.78438 31.840612 256.1281Q31.590612 256.45624 31.418737 257.28436Q31.246862 258.09686 30.996862 258.58124Q30.746862 259.0656 30.418737 259.3Q30.074987 259.51874 29.606237 259.51874Q28.824987 259.51874 28.293737 258.8625Q27.746862 258.20624 27.746862 257.175Q27.746862 256.09686 28.309362 255.44063Q28.856237 254.76875 29.715612 254.76875L29.715612 255.84688Q29.278112 255.84688 28.965612 256.2375Q28.637487 256.6125 28.637487 257.175Q28.637487 257.76874 28.903112 258.1125Q29.153112 258.4406 29.559362 258.4406Q29.949987 258.4406 30.153112 258.1281Q30.356237 257.8156 30.543737 257.0031Q30.715612 256.1906 30.965612 255.69063Q31.215612 255.19063 31.574987 254.95625Q31.934362 254.70625 32.434364 254.70625Q33.29374 254.70625 33.809364 255.39375Q34.32499 256.0656 34.32499 257.14374Q34.32499 257.90936 34.059364 258.5031Q33.778114 259.08124 33.29374 259.40936Q32.809364 259.7375 32.246864 259.7375L32.246864 258.65936Q32.79374 258.6281 33.121864 258.22186Q33.434364 257.8156 33.434364 257.14374Q33.434364 256.53436 33.184364 256.15936Q32.934364 255.78438 32.51249 255.78438ZM26.324987 252.00313L27.856237 252.00313L27.856237 250.83125L28.699987 250.83125L28.699987 252.00313L32.621864 252.00313Q33.01249 252.00313 33.19999 251.84688Q33.38749 251.69063 33.38749 251.31563Q33.38749 251.12813 33.32499 250.8L34.19999 250.8Q34.32499 251.22188 34.32499 251.62813Q34.32499 252.34688 33.88749 252.72188Q33.434364 253.09688 32.621864 253.09688L28.699987 253.09688L28.699987 254.25313L27.856237 254.25313L27.856237 253.09688L26.324987 253.09688L26.324987 252.00313ZM28.824987 246.40938Q28.793737 246.65938 28.793737 246.94063Q28.793737 248.01875 29.699987 248.39375L34.19999 248.39375L34.19999 249.47188L27.856237 249.47188L27.856237 248.425L28.590612 248.40938Q27.746862 247.87813 27.746862 246.89375Q27.746862 246.58125 27.824987 246.40938L28.824987 246.40938ZM34.32499 242.84688Q34.32499 244.14375 33.48124 244.95625Q32.621864 245.75313 31.199987 245.75313L31.012487 245.75313Q30.059362 245.75313 29.324987 245.39375Q28.574987 245.03438 28.168737 244.39375Q27.746862 243.7375 27.746862 242.9875Q27.746862 241.75313 28.559362 241.06563Q29.371862 240.37813 30.887487 240.37813L31.340612 240.37813L31.340612 244.675Q32.278114 244.64375 32.85624 244.12813Q33.434364 243.59688 33.434364 242.78438Q33.434364 242.22188 33.19999 241.83125Q32.965614 241.425 32.57499 241.1125L33.090614 240.45625Q34.32499 241.25313 34.32499 242.84688ZM28.637487 242.9875Q28.637487 243.64375 29.121862 244.09688Q29.590612 244.53438 30.449987 244.62813L30.449987 241.45625L30.371862 241.45625Q29.543737 241.50313 29.090612 241.90938Q28.637487 242.3 28.637487 242.9875ZM27.856237 238.45625L28.653112 238.425Q27.746862 237.69063 27.746862 236.51875Q27.746862 234.50313 30.012487 234.4875L34.19999 234.4875L34.19999 235.58125L29.996862 235.58125Q29.324987 235.58125 28.996862 235.89375Q28.668737 236.19063 28.668737 236.84688Q28.668737 237.37813 28.949987 237.78438Q29.231237 238.175 29.684362 238.39375L34.19999 238.39375L34.19999 239.47188L27.856237 239.47188L27.856237 238.45625ZM30.981237 232.7375Q29.496862 232.7375 28.621862 232.05Q27.746862 231.3625 27.746862 230.2375Q27.746862 229.08125 28.559362 228.425L27.856237 228.37813L27.856237 227.37813L34.04374 227.37813Q35.278114 227.37813 35.98124 228.1125Q36.69999 228.84688 36.69999 230.06563Q36.69999 230.75313 36.403114 231.40938Q36.10624 232.06563 35.60624 232.40938L34.94999 231.84688Q35.809364 231.15938 35.809364 230.14375Q35.809364 229.3625 35.35624 228.925Q34.91874 228.47188 34.10624 228.47188L33.559364 228.47188Q34.32499 229.12813 34.32499 230.25313Q34.32499 231.3625 33.434364 232.05Q32.528114 232.7375 30.981237 232.7375ZM31.106237 231.64375Q32.16874 231.64375 32.79374 231.20625Q33.403114 230.76875 33.403114 229.97188Q33.403114 228.95625 32.465614 228.47188L29.574987 228.47188Q28.668737 228.97188 28.668737 229.97188Q28.668737 230.75313 29.278112 231.20625Q29.887487 231.64375 31.106237 231.64375ZM26.324987 224.00313L27.856237 224.00313L27.856237 222.83125L28.699987 222.83125L28.699987 224.00313L32.621864 224.00313Q33.01249 224.00313 33.19999 223.84688Q33.38749 223.69063 33.38749 223.31563Q33.38749 223.12813 33.32499 222.8L34.19999 222.8Q34.32499 223.22188 34.32499 223.62813Q34.32499 224.34688 33.88749 224.72188Q33.434364 225.09688 32.621864 225.09688L28.699987 225.09688L28.699987 226.25313L27.856237 226.25313L27.856237 225.09688L26.324987 225.09688L26.324987 224.00313ZM28.621862 220.39375Q27.746862 219.675 27.746862 218.51875Q27.746862 216.50313 30.012487 216.4875L34.19999 216.4875L34.19999 217.58125L29.996862 217.58125Q29.324987 217.58125 28.996862 217.89375Q28.668737 218.19063 28.668737 218.84688Q28.668737 219.37813 28.949987 219.78438Q29.231237 220.175 29.684362 220.39375L34.19999 220.39375L34.19999 221.47188L25.199987 221.47188L25.199987 220.39375L28.621862 220.39375ZM30.731237 211.51875Q29.418737 211.51875 28.199987 211.175Q26.981237 210.81563 25.981237 210.1125Q24.981237 209.40938 24.574987 208.64375L25.293737 208.425Q25.949987 209.28438 27.293737 209.83125Q28.637487 210.37813 30.309362 210.425L30.809362 210.44063Q33.07499 210.44063 34.73124 209.6125Q35.73124 209.1125 36.29374 208.425L36.94999 208.64375Q36.528114 209.425 35.496864 210.14375Q33.51249 211.51875 30.731237 211.51875ZM30.981237 207.7375Q29.512487 207.7375 28.637487 207.05Q27.746862 206.3625 27.746862 205.2375Q27.746862 204.12813 28.496862 203.47188L25.199987 203.47188L25.199987 202.39375L34.19999 202.39375L34.19999 203.39375L33.51249 203.44063Q34.32499 204.09688 34.32499 205.25313Q34.32499 206.34688 33.41874 207.05Q32.51249 207.7375 31.059362 207.7375L30.981237 207.7375ZM31.106237 206.65938Q32.184364 206.65938 32.79374 206.22188Q33.403114 205.76875 33.403114 204.9875Q33.403114 203.95625 32.465614 203.47188L29.559362 203.47188Q28.668737 203.95625 28.668737 204.97188Q28.668737 205.76875 29.278112 206.22188Q29.887487 206.65938 31.106237 206.65938ZM34.19999 200.31563L25.668737 200.31563L25.668737 197.51875Q25.668737 196.12813 26.246862 195.44063Q26.809362 194.7375 27.934362 194.7375Q28.543737 194.7375 29.012487 195.08125Q29.465612 195.40938 29.715612 196.00313Q29.903112 195.3 30.449987 194.90938Q30.981237 194.50313 31.731237 194.50313Q32.88749 194.50313 33.54374 195.25313Q34.19999 195.9875 34.19999 197.34688L34.19999 200.31563ZM30.215612 199.19063L33.278114 199.19063L33.278114 197.33125Q33.278114 196.53438 32.871864 196.08125Q32.465614 195.62813 31.746862 195.62813Q30.215612 195.62813 30.215612 197.31563L30.215612 199.19063ZM29.309362 199.19063L29.309362 197.4875Q29.309362 196.75313 28.949987 196.31563Q28.574987 195.8625 27.934362 195.8625Q27.231237 195.8625 26.918737 196.26875Q26.590612 196.675 26.590612 197.51875L26.590612 199.19063L29.309362 199.19063ZM27.856237 192.45625L28.559362 192.425Q27.746862 191.7375 27.746862 190.55Q27.746862 189.22188 28.762487 188.7375Q28.309362 188.425 28.028112 187.925Q27.746862 187.40938 27.746862 186.72188Q27.746862 184.62813 29.949987 184.59688L34.19999 184.59688L34.19999 185.675L30.012487 185.675Q29.340612 185.675 29.012487 185.9875Q28.668737 186.3 28.668737 187.03438Q28.668737 187.64375 29.028112 188.05Q29.387487 188.44063 29.996862 188.50313L34.19999 188.50313L34.19999 189.58125L30.043737 189.58125Q28.668737 189.58125 28.668737 190.94063Q28.668737 192.00313 29.574987 192.39375L34.19999 192.39375L34.19999 193.4875L27.856237 193.4875L27.856237 192.45625ZM30.793737 179.97188Q32.10624 179.97188 33.309364 180.31563Q34.496864 180.65938 35.51249 181.37813Q36.528114 182.08125 36.94999 182.84688L36.29374 183.08125Q35.60624 182.175 34.153114 181.62813Q32.684364 181.08125 30.918737 181.06563L30.731237 181.06563Q29.496862 181.06563 28.434362 181.33125Q27.371862 181.58125 26.543737 182.05Q25.699987 182.50313 25.231237 183.08125L24.574987 182.84688Q24.996862 182.08125 25.996862 181.37813Q26.996862 180.675 28.215612 180.33125Q29.418737 179.97188 30.793737 179.97188Z" fill-rule="nonzero"/><path fill="#757575" d="M62.278126 369.1125L59.41875 369.1125L59.41875 368.2375L62.278126 368.2375L62.278126 369.1125ZM67.16875 363.76874L67.16875 364.675L66.96562 364.675Q65.7 364.70624 64.95 365.4406Q64.2 366.15936 64.075 367.47186Q64.7625 366.70624 65.91875 366.70624Q67.02812 366.70624 67.7 367.4875Q68.37187 368.26874 68.37187 369.51874Q68.37187 370.83124 67.65312 371.6281Q66.93437 372.425 65.71562 372.425Q64.49687 372.425 63.73125 371.4875Q62.98125 370.53436 62.98125 369.05L62.98125 368.64374Q62.98125 366.28436 63.98125 365.03436Q64.98125 363.78436 66.96562 363.76874L67.16875 363.76874ZM65.74687 367.6125Q65.18437 367.6125 64.71562 367.9406Q64.24687 368.26874 64.05937 368.78436L64.05937 369.175Q64.05937 370.2375 64.52812 370.8781Q65.0125 371.51874 65.71562 371.51874Q66.45 371.51874 66.87187 370.9875Q67.29375 370.4406 67.29375 369.5656Q67.29375 368.6906 66.87187 368.15936Q66.45 367.6125 65.74687 367.6125ZM75.2625 368.65936Q75.2625 370.5656 74.60625 371.5031Q73.96562 372.425 72.575 372.425Q71.21562 372.425 70.55937 371.51874Q69.90312 370.6125 69.87187 368.8L69.87187 367.3625Q69.87187 365.47186 70.5125 364.5656Q71.16875 363.64374 72.55937 363.64374Q73.93437 363.64374 74.59062 364.53436Q75.24687 365.40936 75.2625 367.2531L75.2625 368.65936ZM74.16875 367.175Q74.16875 365.8 73.77812 365.175Q73.40312 364.53436 72.55937 364.53436Q71.73125 364.53436 71.34062 365.175Q70.96562 365.8 70.96562 367.09686L70.96562 368.83124Q70.96562 370.20624 71.35625 370.8781Q71.7625 371.53436 72.575 371.53436Q73.37187 371.53436 73.7625 370.90936Q74.15312 370.28436 74.16875 368.95624L74.16875 367.175Z" fill-rule="nonzero"/><path fill="#757575" d="M62.278126 278.27917L59.41875 278.27917L59.41875 277.40417L62.278126 277.40417L62.278126 278.27917ZM63.403126 277.18542L63.840626 272.93542L68.21562 272.93542L68.21562 273.93542L64.7625 273.93542L64.49687 276.26355Q65.1375 275.88855 65.93437 275.88855Q67.09062 275.88855 67.77812 276.6698Q68.46562 277.43542 68.46562 278.74792Q68.46562 280.06042 67.74687 280.82605Q67.04375 281.59167 65.7625 281.59167Q64.6375 281.59167 63.91875 280.96667Q63.2 280.32605 63.10625 279.21667L64.12187 279.21667Q64.23125 279.95105 64.65312 280.32605Q65.075 280.70105 65.7625 280.70105Q66.5125 280.70105 66.95 280.18542Q67.3875 279.6698 67.3875 278.76355Q67.3875 277.90417 66.91875 277.38855Q66.45 276.87292 65.66875 276.87292Q64.96562 276.87292 64.55937 277.1698L64.27812 277.40417L63.403126 277.18542ZM75.2625 277.82605Q75.2625 279.7323 74.60625 280.6698Q73.96562 281.59167 72.575 281.59167Q71.21562 281.59167 70.55937 280.68542Q69.90312 279.77917 69.87187 277.96667L69.87187 276.52917Q69.87187 274.63855 70.5125 273.7323Q71.16875 272.81042 72.55937 272.81042Q73.93437 272.81042 74.59062 273.70105Q75.24687 274.57605 75.2625 276.4198L75.2625 277.82605ZM74.16875 276.34167Q74.16875 274.96667 73.77812 274.34167Q73.40312 273.70105 72.55937 273.70105Q71.73125 273.70105 71.34062 274.34167Q70.96562 274.96667 70.96562 276.26355L70.96562 277.99792Q70.96562 279.37292 71.35625 280.0448Q71.7625 280.70105 72.575 280.70105Q73.37187 280.70105 73.7625 280.07605Q74.15312 279.45105 74.16875 278.12292L74.16875 276.34167Z" fill-rule="nonzero"/><path fill="#757575" d="M62.278126 187.44583L59.41875 187.44583L59.41875 186.57083L62.278126 186.57083L62.278126 187.44583ZM67.48125 187.77396L68.66875 187.77396L68.66875 188.64896L67.48125 188.64896L67.48125 190.63333L66.40312 190.63333L66.40312 188.64896L62.5125 188.64896L62.5125 188.00833L66.325 182.10208L67.48125 182.10208L67.48125 187.77396ZM63.746876 187.77396L66.40312 187.77396L66.40312 183.58646L66.2625 183.82083L63.746876 187.77396ZM75.2625 186.9927Q75.2625 188.89896 74.60625 189.83646Q73.96562 190.75833 72.575 190.75833Q71.21562 190.75833 70.55937 189.85208Q69.90312 188.94583 69.87187 187.13333L69.87187 185.69583Q69.87187 183.8052 70.5125 182.89896Q71.16875 181.97708 72.55937 181.97708Q73.93437 181.97708 74.59062 182.8677Q75.24687 183.7427 75.2625 185.58646L75.2625 186.9927ZM74.16875 185.50833Q74.16875 184.13333 73.77812 183.50833Q73.40312 182.8677 72.55937 182.8677Q71.73125 182.8677 71.34062 183.50833Q70.96562 184.13333 70.96562 185.4302L70.96562 187.16458Q70.96562 188.53958 71.35625 189.21146Q71.7625 189.8677 72.575 189.8677Q73.37187 189.8677 73.7625 189.2427Q74.15312 188.6177 74.16875 187.28958L74.16875 185.50833Z" fill-rule="nonzero"/><path fill="#757575" d="M62.278126 96.6125L59.41875 96.6125L59.41875 95.7375L62.278126 95.7375L62.278126 96.6125ZM64.48125 95.00313L65.29375 95.00313Q66.075 94.9875 66.5125 94.59688Q66.95 94.20625 66.95 93.53438Q66.95 92.03438 65.45 92.03438Q64.74687 92.03438 64.325 92.44063Q63.91875 92.84688 63.91875 93.50313L62.825 93.50313Q62.825 92.4875 63.559376 91.81563Q64.30937 91.14375 65.45 91.14375Q66.65312 91.14375 67.34062 91.78438Q68.02812 92.425 68.02812 93.56563Q68.02812 94.12813 67.66875 94.64375Q67.30937 95.15938 66.68437 95.425Q67.3875 95.64375 67.7625 96.15938Q68.15312 96.675 68.15312 97.425Q68.15312 98.56563 67.40312 99.25313Q66.65312 99.925 65.45 99.925Q64.2625 99.925 63.496876 99.26875Q62.746876 98.6125 62.746876 97.55L63.840626 97.55Q63.840626 98.22188 64.27812 98.62813Q64.71562 99.03438 65.46562 99.03438Q66.24687 99.03438 66.65312 98.62813Q67.075 98.20625 67.075 97.44063Q67.075 96.70625 66.62187 96.31563Q66.16875 95.90938 65.29375 95.89375L64.48125 95.89375L64.48125 95.00313ZM75.2625 96.15938Q75.2625 98.06563 74.60625 99.00313Q73.96562 99.925 72.575 99.925Q71.21562 99.925 70.55937 99.01875Q69.90312 98.1125 69.87187 96.3L69.87187 94.8625Q69.87187 92.97188 70.5125 92.06563Q71.16875 91.14375 72.55937 91.14375Q73.93437 91.14375 74.59062 92.03438Q75.24687 92.90938 75.2625 94.75313L75.2625 96.15938ZM74.16875 94.675Q74.16875 93.3 73.77812 92.675Q73.40312 92.03438 72.55937 92.03438Q71.73125 92.03438 71.34062 92.675Q70.96562 93.3 70.96562 94.59688L70.96562 96.33125Q70.96562 97.70625 71.35625 98.37813Q71.7625 99.03438 72.575 99.03438Q73.37187 99.03438 73.7625 98.40938Q74.15312 97.78438 74.16875 96.45625L74.16875 94.675Z" fill-rule="nonzero"/><path fill="#757575" d="M158.64375 382.15936Q158.64375 384.0656 157.9875 385.0031Q157.34688 385.925 155.95625 385.925Q154.59688 385.925 153.94063 385.01874Q153.28438 384.1125 153.25313 382.3L153.25313 380.8625Q153.25313 378.97186 153.89375 378.0656Q154.55 377.14374 155.94063 377.14374Q157.31563 377.14374 157.97188 378.03436Q158.62813 378.90936 158.64375 380.7531L158.64375 382.15936ZM157.55 380.675Q157.55 379.3 157.15938 378.675Q156.78438 378.03436 155.94063 378.03436Q155.1125 378.03436 154.72188 378.675Q154.34688 379.3 154.34688 380.59686L154.34688 382.33124Q154.34688 383.70624 154.7375 384.3781Q155.14375 385.03436 155.95625 385.03436Q156.75313 385.03436 157.14375 384.40936Q157.53438 383.78436 157.55 382.45624L157.55 380.675ZM160.425 385.2375Q160.425 384.95624 160.58125 384.76874Q160.75313 384.58124 161.08125 384.58124Q161.425 384.58124 161.59688 384.76874Q161.76875 384.95624 161.76875 385.2375Q161.76875 385.5031 161.59688 385.6906Q161.425 385.8625 161.08125 385.8625Q160.75313 385.8625 160.58125 385.6906Q160.425 385.5031 160.425 385.2375ZM167.55 377.26874L167.55 378.175L167.34688 378.175Q166.08125 378.20624 165.33125 378.9406Q164.58125 379.65936 164.45625 380.97186Q165.14375 380.20624 166.3 380.20624Q167.40938 380.20624 168.08125 380.9875Q168.75313 381.76874 168.75313 383.01874Q168.75313 384.33124 168.03438 385.1281Q167.31563 385.925 166.09688 385.925Q164.87813 385.925 164.1125 384.9875Q163.3625 384.03436 163.3625 382.55L163.3625 382.14374Q163.3625 379.78436 164.3625 378.53436Q165.3625 377.28436 167.34688 377.26874L167.55 377.26874ZM166.12813 381.1125Q165.56563 381.1125 165.09688 381.4406Q164.62813 381.76874 164.44063 382.28436L164.44063 382.675Q164.44063 383.7375 164.90938 384.3781Q165.39375 385.01874 166.09688 385.01874Q166.83125 385.01874 167.25313 384.4875Q167.675 383.9406 167.675 383.0656Q167.675 382.1906 167.25313 381.65936Q166.83125 381.1125 166.12813 381.1125Z" fill-rule="nonzero"/><path fill="#757575" d="M261.6092 382.15936Q261.6092 384.0656 260.95294 385.0031Q260.31232 385.925 258.9217 385.925Q257.56232 385.925 256.90607 385.01874Q256.24982 384.1125 256.21857 382.3L256.21857 380.8625Q256.21857 378.97186 256.8592 378.0656Q257.51544 377.14374 258.90607 377.14374Q260.28107 377.14374 260.93732 378.03436Q261.59357 378.90936 261.6092 380.7531L261.6092 382.15936ZM260.51544 380.675Q260.51544 379.3 260.12482 378.675Q259.74982 378.03436 258.90607 378.03436Q258.07794 378.03436 257.68732 378.675Q257.31232 379.3 257.31232 380.59686L257.31232 382.33124Q257.31232 383.70624 257.70294 384.3781Q258.1092 385.03436 258.9217 385.03436Q259.71857 385.03436 260.1092 384.40936Q260.49982 383.78436 260.51544 382.45624L260.51544 380.675ZM263.39044 385.2375Q263.39044 384.95624 263.5467 384.76874Q263.71857 384.58124 264.0467 384.58124Q264.39044 384.58124 264.56232 384.76874Q264.7342 384.95624 264.7342 385.2375Q264.7342 385.5031 264.56232 385.6906Q264.39044 385.8625 264.0467 385.8625Q263.71857 385.8625 263.5467 385.6906Q263.39044 385.5031 263.39044 385.2375ZM271.43732 379.4875Q271.43732 380.1281 271.09357 380.6281Q270.74982 381.1281 270.18732 381.40936Q270.84357 381.6906 271.2342 382.2531Q271.62482 382.8 271.62482 383.5031Q271.62482 384.59686 270.87482 385.26874Q270.14044 385.925 268.9217 385.925Q267.68732 385.925 266.93732 385.26874Q266.20294 384.59686 266.20294 383.5031Q266.20294 382.8 266.57794 382.2531Q266.95294 381.6906 267.62482 381.40936Q267.06232 381.1281 266.7342 380.6281Q266.40607 380.1281 266.40607 379.4875Q266.40607 378.40936 267.09357 377.78436Q267.78107 377.14374 268.9217 377.14374Q270.0467 377.14374 270.7342 377.78436Q271.43732 378.40936 271.43732 379.4875ZM270.5467 383.47186Q270.5467 382.7531 270.09357 382.3156Q269.64044 381.8625 268.90607 381.8625Q268.1717 381.8625 267.71857 382.3156Q267.28107 382.7531 267.28107 383.4875Q267.28107 384.20624 267.71857 384.6281Q268.15607 385.03436 268.9217 385.03436Q269.6717 385.03436 270.1092 384.6125Q270.5467 384.1906 270.5467 383.47186ZM268.9217 378.03436Q268.28107 378.03436 267.87482 378.4406Q267.4842 378.83124 267.4842 379.51874Q267.4842 380.15936 267.87482 380.5656Q268.26544 380.97186 268.90607 380.97186Q269.56232 380.97186 269.95294 380.5656Q270.34357 380.15936 270.34357 379.51874Q270.34357 378.8625 269.93732 378.45624Q269.53107 378.03436 268.9217 378.03436Z" fill-rule="nonzero"/><path fill="#757575" d="M344.67853 385.8L343.6004 385.8L343.6004 378.58124L341.4129 379.3781L341.4129 378.39374L344.52228 377.22186L344.67853 377.22186L344.67853 385.8Z" fill-rule="nonzero"/><path fill="#757575" d="M594.7969 385.8L589.2031 385.8L589.2031 385.01874L592.15625 381.7375Q592.8125 380.9875 593.0625 380.53436Q593.3125 380.0656 593.3125 379.5656Q593.3125 378.89374 592.90625 378.47186Q592.5156 378.03436 591.8281 378.03436Q591.03125 378.03436 590.5781 378.5031Q590.125 378.95624 590.125 379.78436L589.0469 379.78436Q589.0469 378.59686 589.7969 377.8781Q590.5625 377.14374 591.8281 377.14374Q593.03125 377.14374 593.71875 377.76874Q594.40625 378.39374 594.40625 379.4406Q594.40625 380.6906 592.7969 382.4406L590.5156 384.90936L594.7969 384.90936L594.7969 385.8Z" fill-rule="nonzero"/><path fill="#757575" d="M841.86835 382.9406L843.05585 382.9406L843.05585 383.8156L841.86835 383.8156L841.86835 385.8L840.7902 385.8L840.7902 383.8156L836.8996 383.8156L836.8996 383.175L840.7121 377.26874L841.86835 377.26874L841.86835 382.9406ZM838.134 382.9406L840.7902 382.9406L840.7902 378.7531L840.6496 378.9875L838.134 382.9406Z" fill-rule="nonzero"/><path fill="#757575" d="M986.6775 377.26874L986.6775 378.175L986.47437 378.175Q985.20874 378.20624 984.45874 378.9406Q983.70874 379.65936 983.58374 380.97186Q984.27124 380.20624 985.4275 380.20624Q986.53687 380.20624 987.20874 380.9875Q987.8806 381.76874 987.8806 383.01874Q987.8806 384.33124 987.16187 385.1281Q986.4431 385.925 985.22437 385.925Q984.0056 385.925 983.24 384.9875Q982.49 384.03436 982.49 382.55L982.49 382.14374Q982.49 379.78436 983.49 378.53436Q984.49 377.28436 986.47437 377.26874L986.6775 377.26874ZM985.2556 381.1125Q984.6931 381.1125 984.22437 381.4406Q983.7556 381.76874 983.5681 382.28436L983.5681 382.675Q983.5681 383.7375 984.03687 384.3781Q984.52124 385.01874 985.22437 385.01874Q985.95874 385.01874 986.3806 384.4875Q986.8025 383.9406 986.8025 383.0656Q986.8025 382.1906 986.3806 381.65936Q985.95874 381.1125 985.2556 381.1125Z" fill-rule="nonzero"/><path fill="#757575" d="M1090.5648 379.4875Q1090.5648 380.1281 1090.2211 380.6281Q1089.8773 381.1281 1089.3148 381.40936Q1089.9711 381.6906 1090.3617 382.2531Q1090.7523 382.8 1090.7523 383.5031Q1090.7523 384.59686 1090.0023 385.26874Q1089.268 385.925 1088.0492 385.925Q1086.8148 385.925 1086.0648 385.26874Q1085.3304 384.59686 1085.3304 383.5031Q1085.3304 382.8 1085.7054 382.2531Q1086.0804 381.6906 1086.7523 381.40936Q1086.1898 381.1281 1085.8617 380.6281Q1085.5336 380.1281 1085.5336 379.4875Q1085.5336 378.40936 1086.2211 377.78436Q1086.9086 377.14374 1088.0492 377.14374Q1089.1742 377.14374 1089.8617 377.78436Q1090.5648 378.40936 1090.5648 379.4875ZM1089.6742 383.47186Q1089.6742 382.7531 1089.2211 382.3156Q1088.768 381.8625 1088.0336 381.8625Q1087.2992 381.8625 1086.8461 382.3156Q1086.4086 382.7531 1086.4086 383.4875Q1086.4086 384.20624 1086.8461 384.6281Q1087.2836 385.03436 1088.0492 385.03436Q1088.7992 385.03436 1089.2367 384.6125Q1089.6742 384.1906 1089.6742 383.47186ZM1088.0492 378.03436Q1087.4086 378.03436 1087.0023 378.4406Q1086.6117 378.83124 1086.6117 379.51874Q1086.6117 380.15936 1087.0023 380.5656Q1087.393 380.97186 1088.0336 380.97186Q1088.6898 380.97186 1089.0804 380.5656Q1089.4711 380.15936 1089.4711 379.51874Q1089.4711 378.8625 1089.0648 378.45624Q1088.6586 378.03436 1088.0492 378.03436Z" fill-rule="nonzero"/><path fill="#4285f4" d="M526.0 67.0C526.0 70.313705 523.3137 73.0 520.0 73.0C516.6863 73.0 514.0 70.313705 514.0 67.0C514.0 63.68629 516.6863 61.0 520.0 61.0C523.3137 61.0 526.0 63.68629 526.0 67.0Z" fill-rule="nonzero"/><path fill="#db4437" d="M554.0 67.0C554.0 70.313705 551.3137 73.0 548.0 73.0C544.6863 73.0 542.0 70.313705 542.0 67.0C542.0 63.68629 544.6863 61.0 548.0 61.0C551.3137 61.0 554.0 63.68629 554.0 67.0Z" fill-rule="nonzero"/><path fill="#f4b400" d="M582.0 67.0C582.0 70.313705 579.3137 73.0 576.0 73.0C572.6863 73.0 570.0 70.313705 570.0 67.0C570.0 63.68629 572.6863 61.0 576.0 61.0C579.3137 61.0 582.0 63.68629 582.0 67.0Z" fill-rule="nonzero"/><path fill="#0f9d58" d="M604.0 61.0L609.19617 70.0L598.80383 70.0Z" fill-rule="nonzero"/><path fill="#757575" d="M495.35938 35.45L492.03125 35.45L492.03125 41.2L490.14062 41.2L490.14062 26.98125L494.84375 26.98125Q497.25 26.98125 498.54688 28.075Q499.84375 29.16875 499.84375 31.2625Q499.84375 32.590626 499.125 33.575Q498.40625 34.559376 497.125 35.04375L500.46875 41.075L500.46875 41.2L498.45312 41.2L495.35938 35.45ZM492.03125 33.91875L494.90625 33.91875Q496.29688 33.91875 497.125 33.2Q497.95312 32.465626 497.95312 31.2625Q497.95312 29.934376 497.15625 29.23125Q496.375 28.528126 494.89062 28.528126L492.03125 28.528126L492.03125 33.91875ZM506.34375 34.85625Q503.92188 34.16875 502.82812 33.16875Q501.73438 32.153126 501.73438 30.66875Q501.73438 28.98125 503.07812 27.8875Q504.42188 26.778126 506.5625 26.778126Q508.03125 26.778126 509.17188 27.35625Q510.32812 27.91875 510.95312 28.91875Q511.57812 29.903126 511.57812 31.090626L509.70312 31.090626Q509.70312 29.809376 508.875 29.075Q508.0625 28.325 506.5625 28.325Q505.17188 28.325 504.39062 28.934376Q503.625 29.54375 503.625 30.6375Q503.625 31.496876 504.35938 32.10625Q505.09375 32.7 506.85938 33.2Q508.64062 33.7 509.64062 34.309376Q510.64062 34.903126 511.125 35.7Q511.60938 36.496876 511.60938 37.590626Q511.60938 39.309376 510.26562 40.35625Q508.92188 41.403126 506.65625 41.403126Q505.20312 41.403126 503.92188 40.840626Q502.65625 40.278126 501.96875 39.309376Q501.28125 38.325 501.28125 37.075L503.17188 37.075Q503.17188 38.371876 504.125 39.121876Q505.07812 39.85625 506.65625 39.85625Q508.14062 39.85625 508.9375 39.2625Q509.73438 38.653126 509.73438 37.60625Q509.73438 36.559376 509.0 35.996876Q508.26562 35.41875 506.34375 34.85625ZM518.34375 34.85625Q515.9219 34.16875 514.8281 33.16875Q513.7344 32.153126 513.7344 30.66875Q513.7344 28.98125 515.0781 27.8875Q516.4219 26.778126 518.5625 26.778126Q520.03125 26.778126 521.1719 27.35625Q522.3281 27.91875 522.9531 28.91875Q523.5781 29.903126 523.5781 31.090626L521.7031 31.090626Q521.7031 29.809376 520.875 29.075Q520.0625 28.325 518.5625 28.325Q517.1719 28.325 516.3906 28.934376Q515.625 29.54375 515.625 30.6375Q515.625 31.496876 516.3594 32.10625Q517.09375 32.7 518.8594 33.2Q520.6406 33.7 521.6406 34.309376Q522.6406 34.903126 523.125 35.7Q523.6094 36.496876 523.6094 37.590626Q523.6094 39.309376 522.2656 40.35625Q520.9219 41.403126 518.65625 41.403126Q517.2031 41.403126 515.9219 40.840626Q514.65625 40.278126 513.96875 39.309376Q513.28125 38.325 513.28125 37.075L515.1719 37.075Q515.1719 38.371876 516.125 39.121876Q517.0781 39.85625 518.65625 39.85625Q520.1406 39.85625 520.9375 39.2625Q521.7344 38.653126 521.7344 37.60625Q521.7344 36.559376 521.0 35.996876Q520.2656 35.41875 518.34375 34.85625ZM528.15625 41.2L526.28125 41.2L526.28125 26.98125L528.15625 26.98125L528.15625 41.2ZM539.3594 38.746876L541.96875 30.6375L543.8125 30.6375L540.03125 41.2L538.65625 41.2L534.8281 30.6375L536.6719 30.6375L539.3594 38.746876ZM552.0156 38.403126Q552.0156 37.66875 551.46875 37.2625Q550.9219 36.85625 549.5469 36.559376Q548.1719 36.2625 547.3594 35.85625Q546.5625 35.45 546.1719 34.8875Q545.7969 34.309376 545.7969 33.528126Q545.7969 32.23125 546.8906 31.340626Q547.9844 30.434376 549.7031 30.434376Q551.5 30.434376 552.6094 31.371876Q553.7344 32.29375 553.7344 33.73125L551.90625 33.73125Q551.90625 32.996876 551.28125 32.465626Q550.65625 31.91875 549.7031 31.91875Q548.7031 31.91875 548.1406 32.35625Q547.59375 32.778126 547.59375 33.48125Q547.59375 34.121876 548.1094 34.465626Q548.625 34.79375 549.9844 35.10625Q551.34375 35.403126 552.1719 35.825Q553.0156 36.23125 553.4219 36.825Q553.8281 37.41875 553.8281 38.2625Q553.8281 39.684376 552.6875 40.54375Q551.5625 41.403126 549.75 41.403126Q548.4844 41.403126 547.5 40.95Q546.53125 40.496876 545.96875 39.7Q545.4219 38.8875 545.4219 37.95L547.2344 37.95Q547.28125 38.85625 547.9531 39.3875Q548.6406 39.91875 549.75 39.91875Q550.78125 39.91875 551.3906 39.5125Q552.0156 39.090626 552.0156 38.403126ZM560.4219 35.825Q560.4219 33.403126 561.5781 31.91875Q562.7344 30.434376 564.59375 30.434376Q566.4531 30.434376 567.53125 31.7L567.53125 26.2L569.34375 26.2L569.34375 41.2L567.6875 41.2L567.59375 40.059376Q566.5156 41.403126 564.5781 41.403126Q562.75 41.403126 561.5781 39.903126Q560.4219 38.3875 560.4219 35.965626L560.4219 35.825ZM562.2344 36.028126Q562.2344 37.825 562.96875 38.840626Q563.71875 39.85625 565.03125 39.85625Q566.75 39.85625 567.53125 38.325L567.53125 33.465626Q566.7344 31.965626 565.0469 31.965626Q563.71875 31.965626 562.96875 32.996876Q562.2344 34.028126 562.2344 36.028126ZM573.8281 41.2L572.03125 41.2L572.03125 30.6375L573.8281 30.6375L573.8281 41.2ZM571.875 27.825Q571.875 27.3875 572.1406 27.090626Q572.4219 26.778126 572.9375 26.778126Q573.46875 26.778126 573.7344 27.090626Q574.0156 27.3875 574.0156 27.825Q574.0156 28.2625 573.7344 28.559376Q573.46875 28.85625 572.9375 28.85625Q572.4219 28.85625 572.1406 28.559376Q571.875 28.2625 571.875 27.825ZM583.0156 38.403126Q583.0156 37.66875 582.46875 37.2625Q581.9219 36.85625 580.5469 36.559376Q579.1719 36.2625 578.3594 35.85625Q577.5625 35.45 577.1719 34.8875Q576.7969 34.309376 576.7969 33.528126Q576.7969 32.23125 577.8906 31.340626Q578.9844 30.434376 580.7031 30.434376Q582.5 30.434376 583.6094 31.371876Q584.7344 32.29375 584.7344 33.73125L582.90625 33.73125Q582.90625 32.996876 582.28125 32.465626Q581.65625 31.91875 580.7031 31.91875Q579.7031 31.91875 579.1406 32.35625Q578.59375 32.778126 578.59375 33.48125Q578.59375 34.121876 579.1094 34.465626Q579.625 34.79375 580.9844 35.10625Q582.34375 35.403126 583.1719 35.825Q584.0156 36.23125 584.4219 36.825Q584.8281 37.41875 584.8281 38.2625Q584.8281 39.684376 583.6875 40.54375Q582.5625 41.403126 580.75 41.403126Q579.4844 41.403126 578.5 40.95Q577.53125 40.496876 576.96875 39.7Q576.4219 38.8875 576.4219 37.95L578.2344 37.95Q578.28125 38.85625 578.9531 39.3875Q579.6406 39.91875 580.75 39.91875Q581.78125 39.91875 582.3906 39.5125Q583.0156 39.090626 583.0156 38.403126ZM589.3125 28.075L589.3125 30.6375L591.2969 30.6375L591.2969 32.028126L589.3125 32.028126L589.3125 38.575Q589.3125 39.215626 589.5781 39.54375Q589.84375 39.85625 590.4844 39.85625Q590.7969 39.85625 591.34375 39.73125L591.34375 41.2Q590.625 41.403126 589.9531 41.403126Q588.75 41.403126 588.125 40.66875Q587.5156 39.934376 587.5156 38.575L587.5156 32.028126L585.59375 32.028126L585.59375 30.6375L587.5156 30.6375L587.5156 28.075L589.3125 28.075ZM600.3906 41.2Q600.2344 40.8875 600.1406 40.090626Q598.875 41.403126 597.125 41.403126Q595.5625 41.403126 594.5625 40.5125Q593.5625 39.621876 593.5625 38.2625Q593.5625 36.621876 594.8125 35.715626Q596.0781 34.79375 598.34375 34.79375L600.1094 34.79375L600.1094 33.965626Q600.1094 33.0125 599.53125 32.45Q598.96875 31.8875 597.875 31.8875Q596.90625 31.8875 596.25 32.3875Q595.59375 32.871876 595.59375 33.559376L593.78125 33.559376Q593.78125 32.778126 594.34375 32.04375Q594.90625 31.29375 595.8594 30.871876Q596.8281 30.434376 597.9844 30.434376Q599.8125 30.434376 600.84375 31.35625Q601.875 32.2625 601.9219 33.871876L601.9219 38.73125Q601.9219 40.184376 602.28125 41.04375L602.28125 41.2L600.3906 41.2ZM597.3906 39.825Q598.25 39.825 599.0 39.3875Q599.7656 38.95 600.1094 38.246876L600.1094 36.075L598.6875 36.075Q595.375 36.075 595.375 38.0125Q595.375 38.871876 595.9375 39.35625Q596.5 39.825 597.3906 39.825ZM606.5781 30.6375L606.6406 31.965626Q607.84375 30.434376 609.7969 30.434376Q613.15625 30.434376 613.1719 34.215626L613.1719 41.2L611.375 41.2L611.375 34.2Q611.3594 33.059376 610.84375 32.5125Q610.34375 31.965626 609.25 31.965626Q608.375 31.965626 607.7031 32.434376Q607.0469 32.903126 606.6719 33.66875L606.6719 41.2L604.875 41.2L604.875 30.6375L606.5781 30.6375ZM620.1094 39.91875Q621.0781 39.91875 621.7969 39.340626Q622.5156 38.746876 622.59375 37.871876L624.3125 37.871876Q624.25 38.778126 623.6719 39.60625Q623.1094 40.41875 622.1406 40.91875Q621.1875 41.403126 620.1094 41.403126Q617.9531 41.403126 616.6719 39.965626Q615.40625 38.5125 615.40625 36.0125L615.40625 35.715626Q615.40625 34.16875 615.96875 32.965626Q616.53125 31.7625 617.59375 31.10625Q618.65625 30.434376 620.09375 30.434376Q621.875 30.434376 623.0469 31.496876Q624.2344 32.559376 624.3125 34.2625L622.59375 34.2625Q622.5156 33.246876 621.8125 32.590626Q621.125 31.91875 620.09375 31.91875Q618.71875 31.91875 617.9531 32.91875Q617.2031 33.903126 617.2031 35.778126L617.2031 36.121876Q617.2031 37.95 617.9531 38.934376Q618.7031 39.91875 620.1094 39.91875ZM630.25 41.403126Q628.1094 41.403126 626.75 39.996876Q625.40625 38.575 625.40625 36.215626L625.40625 35.871876Q625.40625 34.309376 626.0 33.075Q626.6094 31.840626 627.6875 31.1375Q628.7656 30.434376 630.03125 30.434376Q632.09375 30.434376 633.2344 31.79375Q634.375 33.153126 634.375 35.684376L634.375 36.434376L627.21875 36.434376Q627.25 37.996876 628.125 38.965626Q629.0 39.91875 630.34375 39.91875Q631.3125 39.91875 631.96875 39.528126Q632.6406 39.1375 633.1406 38.496876L634.2344 39.35625Q632.90625 41.403126 630.25 41.403126ZM630.03125 31.91875Q628.9375 31.91875 628.1875 32.715626Q627.4531 33.5125 627.28125 34.95L632.5625 34.95L632.5625 34.809376Q632.4844 33.434376 631.8125 32.684376Q631.15625 31.91875 630.03125 31.91875Z" fill-rule="nonzero"/></svg>