<?xml version="1.0" encoding="utf-8" standalone="no"?>
<!DOCTYPE svg PUBLIC "-//W3C//DTD SVG 1.1//EN"
  "http://www.w3.org/Graphics/SVG/1.1/DTD/svg11.dtd">
<!-- Created with matplotlib (http://matplotlib.org/) -->
<svg height="288pt" version="1.1" viewBox="0 0 432 288" width="432pt" xmlns="http://www.w3.org/2000/svg" xmlns:xlink="http://www.w3.org/1999/xlink">
 <defs>
  <style type="text/css">
*{stroke-linecap:butt;stroke-linejoin:round;}
  </style>
 </defs>
 <g id="figure_1">
  <g id="patch_1">
   <path d="M 0 288 
L 432 288 
L 432 0 
L 0 0 
z
" style="fill:#ffffff;"/>
  </g>
  <g id="patch_2">
   <path d="M 14.3 273.7 
L 417.7 273.7 
L 417.7 14.3 
L 14.3 14.3 
z
" style="fill:#ffffff;"/>
  </g>
  <g id="pane3d_1">
   <g id="patch_3">
    <path d="M 67.776904 216.381742 
L 183.232094 152.782739 
L 181.309888 31.255484 
L 59.417314 88.39788 
" style="fill:#f2f2f2;opacity:0.5;stroke:#f2f2f2;stroke-linejoin:miter;"/>
   </g>
  </g>
  <g id="pane3d_2">
   <g id="patch_4">
    <path d="M 183.232094 152.782739 
L 370.258648 188.338686 
L 378.083615 63.146826 
L 181.309888 31.255484 
" style="fill:#e6e6e6;opacity:0.5;stroke:#e6e6e6;stroke-linejoin:miter;"/>
   </g>
  </g>
  <g id="pane3d_3">
   <g id="patch_5">
    <path d="M 67.776904 216.381742 
L 264.55411 257.792435 
L 370.258648 188.338686 
L 183.232094 152.782739 
" style="fill:#ececec;opacity:0.5;stroke:#ececec;stroke-linejoin:miter;"/>
   </g>
  </g>
  <g id="axis3d_1">
   <g id="line2d_1">
    <path d="M 67.776904 216.381742 
L 264.55411 257.792435 
" style="fill:none;stroke:#000000;stroke-linecap:square;stroke-width:0.8;"/>
   </g>
   <g id="text_1">
    <!-- x -->
    <defs>
     <path d="M 54.890625 54.6875 
L 35.109375 28.078125 
L 55.90625 0 
L 45.3125 0 
L 29.390625 21.484375 
L 13.484375 0 
L 2.875 0 
L 24.125 28.609375 
L 4.6875 54.6875 
L 15.28125 54.6875 
L 29.78125 35.203125 
L 44.28125 54.6875 
z
" id="DejaVuSans-78"/>
    </defs>
    <g transform="translate(144.006797 267.692774)scale(0.1 -0.1)">
     <use xlink:href="#DejaVuSans-78"/>
    </g>
   </g>
   <g id="Line3DCollection_1">
    <path d="M 86.418184 220.304698 
L 201.003531 156.161298 
L 199.970683 34.27986 
" style="fill:none;stroke:#b0b0b0;stroke-width:0.8;"/>
    <path d="M 109.18335 225.095503 
L 222.691093 160.284359 
L 222.754043 37.972385 
" style="fill:none;stroke:#b0b0b0;stroke-width:0.8;"/>
    <path d="M 132.19511 229.938203 
L 244.596463 164.448827 
L 245.777895 41.703887 
" style="fill:none;stroke:#b0b0b0;stroke-width:0.8;"/>
    <path d="M 155.457493 234.833645 
L 266.722939 168.65533 
L 269.046069 45.474987 
" style="fill:none;stroke:#b0b0b0;stroke-width:0.8;"/>
    <path d="M 178.974616 239.782696 
L 289.073885 172.904508 
L 292.562473 49.286317 
" style="fill:none;stroke:#b0b0b0;stroke-width:0.8;"/>
    <path d="M 202.750685 244.78624 
L 311.652735 177.197013 
L 316.3311 53.138525 
" style="fill:none;stroke:#b0b0b0;stroke-width:0.8;"/>
    <path d="M 226.790003 249.845184 
L 334.462991 181.533511 
L 340.356032 57.032273 
" style="fill:none;stroke:#b0b0b0;stroke-width:0.8;"/>
    <path d="M 251.096964 254.960452 
L 357.508231 185.914682 
L 364.641435 60.968236 
" style="fill:none;stroke:#b0b0b0;stroke-width:0.8;"/>
   </g>
   <g id="xtick_1">
    <g id="line2d_2">
     <path d="M 87.405506 219.752007 
L 84.43985 221.412144 
" style="fill:none;stroke:#000000;stroke-linecap:square;stroke-width:0.8;"/>
    </g>
    <g id="text_2">
     <!-- −1.0 -->
     <defs>
      <path d="M 10.59375 35.5 
L 73.1875 35.5 
L 73.1875 27.203125 
L 10.59375 27.203125 
z
" id="DejaVuSans-2212"/>
      <path d="M 12.40625 8.296875 
L 28.515625 8.296875 
L 28.515625 63.921875 
L 10.984375 60.40625 
L 10.984375 69.390625 
L 28.421875 72.90625 
L 38.28125 72.90625 
L 38.28125 8.296875 
L 54.390625 8.296875 
L 54.390625 0 
L 12.40625 0 
z
" id="DejaVuSans-31"/>
      <path d="M 10.6875 12.40625 
L 21 12.40625 
L 21 0 
L 10.6875 0 
z
" id="DejaVuSans-2e"/>
      <path d="M 31.78125 66.40625 
Q 24.171875 66.40625 20.328125 58.90625 
Q 16.5 51.421875 16.5 36.375 
Q 16.5 21.390625 20.328125 13.890625 
Q 24.171875 6.390625 31.78125 6.390625 
Q 39.453125 6.390625 43.28125 13.890625 
Q 47.125 21.390625 47.125 36.375 
Q 47.125 51.421875 43.28125 58.90625 
Q 39.453125 66.40625 31.78125 66.40625 
z
M 31.78125 74.21875 
Q 44.046875 74.21875 50.515625 64.515625 
Q 56.984375 54.828125 56.984375 36.375 
Q 56.984375 17.96875 50.515625 8.265625 
Q 44.046875 -1.421875 31.78125 -1.421875 
Q 19.53125 -1.421875 13.0625 8.265625 
Q 6.59375 17.96875 6.59375 36.375 
Q 6.59375 54.828125 13.0625 64.515625 
Q 19.53125 74.21875 31.78125 74.21875 
z
" id="DejaVuSans-30"/>
     </defs>
     <g transform="translate(66.501732 240.640429)scale(0.1 -0.1)">
      <use xlink:href="#DejaVuSans-2212"/>
      <use x="83.789062" xlink:href="#DejaVuSans-31"/>
      <use x="147.412109" xlink:href="#DejaVuSans-2e"/>
      <use x="179.199219" xlink:href="#DejaVuSans-30"/>
     </g>
    </g>
   </g>
   <g id="xtick_2">
    <g id="line2d_3">
     <path d="M 110.161764 224.536844 
L 107.222846 226.21492 
" style="fill:none;stroke:#000000;stroke-linecap:square;stroke-width:0.8;"/>
    </g>
    <g id="text_3">
     <!-- −0.8 -->
     <defs>
      <path d="M 31.78125 34.625 
Q 24.75 34.625 20.71875 30.859375 
Q 16.703125 27.09375 16.703125 20.515625 
Q 16.703125 13.921875 20.71875 10.15625 
Q 24.75 6.390625 31.78125 6.390625 
Q 38.8125 6.390625 42.859375 10.171875 
Q 46.921875 13.96875 46.921875 20.515625 
Q 46.921875 27.09375 42.890625 30.859375 
Q 38.875 34.625 31.78125 34.625 
z
M 21.921875 38.8125 
Q 15.578125 40.375 12.03125 44.71875 
Q 8.5 49.078125 8.5 55.328125 
Q 8.5 64.0625 14.71875 69.140625 
Q 20.953125 74.21875 31.78125 74.21875 
Q 42.671875 74.21875 48.875 69.140625 
Q 55.078125 64.0625 55.078125 55.328125 
Q 55.078125 49.078125 51.53125 44.71875 
Q 48 40.375 41.703125 38.8125 
Q 48.828125 37.15625 52.796875 32.3125 
Q 56.78125 27.484375 56.78125 20.515625 
Q 56.78125 9.90625 50.3125 4.234375 
Q 43.84375 -1.421875 31.78125 -1.421875 
Q 19.734375 -1.421875 13.25 4.234375 
Q 6.78125 9.90625 6.78125 20.515625 
Q 6.78125 27.484375 10.78125 32.3125 
Q 14.796875 37.15625 21.921875 38.8125 
z
M 18.3125 54.390625 
Q 18.3125 48.734375 21.84375 45.5625 
Q 25.390625 42.390625 31.78125 42.390625 
Q 38.140625 42.390625 41.71875 45.5625 
Q 45.3125 48.734375 45.3125 54.390625 
Q 45.3125 60.0625 41.71875 63.234375 
Q 38.140625 66.40625 31.78125 66.40625 
Q 25.390625 66.40625 21.84375 63.234375 
Q 18.3125 60.0625 18.3125 54.390625 
z
" id="DejaVuSans-38"/>
     </defs>
     <g transform="translate(89.264522 245.508297)scale(0.1 -0.1)">
      <use xlink:href="#DejaVuSans-2212"/>
      <use x="83.789062" xlink:href="#DejaVuSans-30"/>
      <use x="147.412109" xlink:href="#DejaVuSans-2e"/>
      <use x="179.199219" xlink:href="#DejaVuSans-38"/>
     </g>
    </g>
   </g>
   <g id="xtick_3">
    <g id="line2d_4">
     <path d="M 133.164364 229.373478 
L 130.252941 231.069786 
" style="fill:none;stroke:#000000;stroke-linecap:square;stroke-width:0.8;"/>
    </g>
    <g id="text_4">
     <!-- −0.6 -->
     <defs>
      <path d="M 33.015625 40.375 
Q 26.375 40.375 22.484375 35.828125 
Q 18.609375 31.296875 18.609375 23.390625 
Q 18.609375 15.53125 22.484375 10.953125 
Q 26.375 6.390625 33.015625 6.390625 
Q 39.65625 6.390625 43.53125 10.953125 
Q 47.40625 15.53125 47.40625 23.390625 
Q 47.40625 31.296875 43.53125 35.828125 
Q 39.65625 40.375 33.015625 40.375 
z
M 52.59375 71.296875 
L 52.59375 62.3125 
Q 48.875 64.0625 45.09375 64.984375 
Q 41.3125 65.921875 37.59375 65.921875 
Q 27.828125 65.921875 22.671875 59.328125 
Q 17.53125 52.734375 16.796875 39.40625 
Q 19.671875 43.65625 24.015625 45.921875 
Q 28.375 48.1875 33.59375 48.1875 
Q 44.578125 48.1875 50.953125 41.515625 
Q 57.328125 34.859375 57.328125 23.390625 
Q 57.328125 12.15625 50.6875 5.359375 
Q 44.046875 -1.421875 33.015625 -1.421875 
Q 20.359375 -1.421875 13.671875 8.265625 
Q 6.984375 17.96875 6.984375 36.375 
Q 6.984375 53.65625 15.1875 63.9375 
Q 23.390625 74.21875 37.203125 74.21875 
Q 40.921875 74.21875 44.703125 73.484375 
Q 48.484375 72.75 52.59375 71.296875 
z
" id="DejaVuSans-36"/>
     </defs>
     <g transform="translate(112.274311 250.428987)scale(0.1 -0.1)">
      <use xlink:href="#DejaVuSans-2212"/>
      <use x="83.789062" xlink:href="#DejaVuSans-30"/>
      <use x="147.412109" xlink:href="#DejaVuSans-2e"/>
      <use x="179.199219" xlink:href="#DejaVuSans-36"/>
     </g>
    </g>
   </g>
   <g id="xtick_4">
    <g id="line2d_5">
     <path d="M 156.41733 234.262755 
L 153.534175 235.977594 
" style="fill:none;stroke:#000000;stroke-linecap:square;stroke-width:0.8;"/>
    </g>
    <g id="text_5">
     <!-- −0.4 -->
     <defs>
      <path d="M 37.796875 64.3125 
L 12.890625 25.390625 
L 37.796875 25.390625 
z
M 35.203125 72.90625 
L 47.609375 72.90625 
L 47.609375 25.390625 
L 58.015625 25.390625 
L 58.015625 17.1875 
L 47.609375 17.1875 
L 47.609375 0 
L 37.796875 0 
L 37.796875 17.1875 
L 4.890625 17.1875 
L 4.890625 26.703125 
z
" id="DejaVuSans-34"/>
     </defs>
     <g transform="translate(135.535143 255.403362)scale(0.1 -0.1)">
      <use xlink:href="#DejaVuSans-2212"/>
      <use x="83.789062" xlink:href="#DejaVuSans-30"/>
      <use x="147.412109" xlink:href="#DejaVuSans-2e"/>
      <use x="179.199219" xlink:href="#DejaVuSans-34"/>
     </g>
    </g>
   </g>
   <g id="xtick_5">
    <g id="line2d_6">
     <path d="M 179.92477 239.205538 
L 177.07068 240.939214 
" style="fill:none;stroke:#000000;stroke-linecap:square;stroke-width:0.8;"/>
    </g>
    <g id="text_6">
     <!-- −0.2 -->
     <defs>
      <path d="M 19.1875 8.296875 
L 53.609375 8.296875 
L 53.609375 0 
L 7.328125 0 
L 7.328125 8.296875 
Q 12.9375 14.109375 22.625 23.890625 
Q 32.328125 33.6875 34.8125 36.53125 
Q 39.546875 41.84375 41.421875 45.53125 
Q 43.3125 49.21875 43.3125 52.78125 
Q 43.3125 58.59375 39.234375 62.25 
Q 35.15625 65.921875 28.609375 65.921875 
Q 23.96875 65.921875 18.8125 64.3125 
Q 13.671875 62.703125 7.8125 59.421875 
L 7.8125 69.390625 
Q 13.765625 71.78125 18.9375 73 
Q 24.125 74.21875 28.421875 74.21875 
Q 39.75 74.21875 46.484375 68.546875 
Q 53.21875 62.890625 53.21875 53.421875 
Q 53.21875 48.921875 51.53125 44.890625 
Q 49.859375 40.875 45.40625 35.40625 
Q 44.1875 33.984375 37.640625 27.21875 
Q 31.109375 20.453125 19.1875 8.296875 
z
" id="DejaVuSans-32"/>
     </defs>
     <g transform="translate(159.051147 260.432307)scale(0.1 -0.1)">
      <use xlink:href="#DejaVuSans-2212"/>
      <use x="83.789062" xlink:href="#DejaVuSans-30"/>
      <use x="147.412109" xlink:href="#DejaVuSans-2e"/>
      <use x="179.199219" xlink:href="#DejaVuSans-32"/>
     </g>
    </g>
   </g>
   <g id="xtick_6">
    <g id="line2d_7">
     <path d="M 203.690885 244.202713 
L 200.866677 245.955536 
" style="fill:none;stroke:#000000;stroke-linecap:square;stroke-width:0.8;"/>
    </g>
    <g id="text_7">
     <!-- 0.0 -->
     <g transform="translate(187.016389 265.516723)scale(0.1 -0.1)">
      <use xlink:href="#DejaVuSans-30"/>
      <use x="63.623047" xlink:href="#DejaVuSans-2e"/>
      <use x="95.410156" xlink:href="#DejaVuSans-30"/>
     </g>
    </g>
   </g>
   <g id="xtick_7">
    <g id="line2d_8">
     <path d="M 227.719969 249.25518 
L 224.926481 251.02747 
" style="fill:none;stroke:#000000;stroke-linecap:square;stroke-width:0.8;"/>
    </g>
    <g id="text_8">
     <!-- 0.2 -->
     <g transform="translate(211.055498 270.657535)scale(0.1 -0.1)">
      <use xlink:href="#DejaVuSans-30"/>
      <use x="63.623047" xlink:href="#DejaVuSans-2e"/>
      <use x="95.410156" xlink:href="#DejaVuSans-32"/>
     </g>
    </g>
   </g>
   <g id="xtick_8">
    <g id="line2d_9">
     <path d="M 252.016409 254.363862 
L 249.254504 256.155946 
" style="fill:none;stroke:#000000;stroke-linecap:square;stroke-width:0.8;"/>
    </g>
    <g id="text_9">
     <!-- 0.4 -->
     <g transform="translate(235.36273 275.855685)scale(0.1 -0.1)">
      <use xlink:href="#DejaVuSans-30"/>
      <use x="63.623047" xlink:href="#DejaVuSans-2e"/>
      <use x="95.410156" xlink:href="#DejaVuSans-34"/>
     </g>
    </g>
   </g>
  </g>
  <g id="axis3d_2">
   <g id="line2d_10">
    <path d="M 370.258648 188.338686 
L 264.55411 257.792435 
" style="fill:none;stroke:#000000;stroke-linecap:square;stroke-width:0.8;"/>
   </g>
   <g id="text_10">
    <!-- y -->
    <defs>
     <path d="M 32.171875 -5.078125 
Q 28.375 -14.84375 24.75 -17.8125 
Q 21.140625 -20.796875 15.09375 -20.796875 
L 7.90625 -20.796875 
L 7.90625 -13.28125 
L 13.1875 -13.28125 
Q 16.890625 -13.28125 18.9375 -11.515625 
Q 21 -9.765625 23.484375 -3.21875 
L 25.09375 0.875 
L 2.984375 54.6875 
L 12.5 54.6875 
L 29.59375 11.921875 
L 46.6875 54.6875 
L 56.203125 54.6875 
z
" id="DejaVuSans-79"/>
    </defs>
    <g transform="translate(344.76943 247.895322)scale(0.1 -0.1)">
     <use xlink:href="#DejaVuSans-79"/>
    </g>
   </g>
   <g id="Line3DCollection_2">
    <path d="M 66.08408 85.272546 
L 74.068346 212.916073 
L 270.332508 253.995707 
" style="fill:none;stroke:#b0b0b0;stroke-width:0.8;"/>
    <path d="M 81.097765 78.234234 
L 88.246612 205.105912 
L 283.346835 245.444571 
" style="fill:none;stroke:#b0b0b0;stroke-width:0.8;"/>
    <path d="M 95.833864 71.326053 
L 102.175973 197.432862 
L 296.122243 237.050419 
" style="fill:none;stroke:#b0b0b0;stroke-width:0.8;"/>
    <path d="M 110.300005 64.544426 
L 115.862924 189.893345 
L 308.665252 228.808966 
" style="fill:none;stroke:#b0b0b0;stroke-width:0.8;"/>
    <path d="M 124.503537 57.885908 
L 129.313741 182.483903 
L 320.982146 220.716083 
" style="fill:none;stroke:#b0b0b0;stroke-width:0.8;"/>
    <path d="M 138.451548 51.347177 
L 142.534481 175.2012 
L 333.078985 212.767789 
" style="fill:none;stroke:#b0b0b0;stroke-width:0.8;"/>
    <path d="M 152.150872 44.925029 
L 155.530998 168.042011 
L 344.961613 204.960242 
" style="fill:none;stroke:#b0b0b0;stroke-width:0.8;"/>
    <path d="M 165.6081 38.616374 
L 168.308947 161.003221 
L 356.63567 197.289739 
" style="fill:none;stroke:#b0b0b0;stroke-width:0.8;"/>
    <path d="M 178.829594 32.418229 
L 180.873797 154.081818 
L 368.106601 189.7527 
" style="fill:none;stroke:#b0b0b0;stroke-width:0.8;"/>
   </g>
   <g id="xtick_9">
    <g id="line2d_11">
     <path d="M 268.689874 253.651891 
L 273.62145 254.684108 
" style="fill:none;stroke:#000000;stroke-linecap:square;stroke-width:0.8;"/>
    </g>
    <g id="text_11">
     <!-- −1.0 -->
     <g transform="translate(271.694907 272.74921)scale(0.1 -0.1)">
      <use xlink:href="#DejaVuSans-2212"/>
      <use x="83.789062" xlink:href="#DejaVuSans-31"/>
      <use x="147.412109" xlink:href="#DejaVuSans-2e"/>
      <use x="179.199219" xlink:href="#DejaVuSans-30"/>
     </g>
    </g>
   </g>
   <g id="xtick_10">
    <g id="line2d_12">
     <path d="M 281.714611 245.107095 
L 286.614901 246.120272 
" style="fill:none;stroke:#000000;stroke-linecap:square;stroke-width:0.8;"/>
    </g>
    <g id="text_12">
     <!-- −0.8 -->
     <g transform="translate(284.578006 264.098848)scale(0.1 -0.1)">
      <use xlink:href="#DejaVuSans-2212"/>
      <use x="83.789062" xlink:href="#DejaVuSans-30"/>
      <use x="147.412109" xlink:href="#DejaVuSans-2e"/>
      <use x="179.199219" xlink:href="#DejaVuSans-38"/>
     </g>
    </g>
   </g>
   <g id="xtick_11">
    <g id="line2d_13">
     <path d="M 294.500325 236.719108 
L 299.369643 237.713768 
" style="fill:none;stroke:#000000;stroke-linecap:square;stroke-width:0.8;"/>
    </g>
    <g id="text_13">
     <!-- −0.6 -->
     <g transform="translate(297.224706 255.607215)scale(0.1 -0.1)">
      <use xlink:href="#DejaVuSans-2212"/>
      <use x="83.789062" xlink:href="#DejaVuSans-30"/>
      <use x="147.412109" xlink:href="#DejaVuSans-2e"/>
      <use x="179.199219" xlink:href="#DejaVuSans-36"/>
     </g>
    </g>
   </g>
   <g id="xtick_12">
    <g id="line2d_14">
     <path d="M 307.053536 228.483654 
L 311.892193 229.460298 
" style="fill:none;stroke:#000000;stroke-linecap:square;stroke-width:0.8;"/>
    </g>
    <g id="text_14">
     <!-- −0.4 -->
     <g transform="translate(309.641456 247.269982)scale(0.1 -0.1)">
      <use xlink:href="#DejaVuSans-2212"/>
      <use x="83.789062" xlink:href="#DejaVuSans-30"/>
      <use x="147.412109" xlink:href="#DejaVuSans-2e"/>
      <use x="179.199219" xlink:href="#DejaVuSans-34"/>
     </g>
    </g>
   </g>
   <g id="xtick_13">
    <g id="line2d_15">
     <path d="M 319.38053 220.396608 
L 324.188834 221.355722 
" style="fill:none;stroke:#000000;stroke-linecap:square;stroke-width:0.8;"/>
    </g>
    <g id="text_15">
     <!-- −0.2 -->
     <g transform="translate(321.834471 239.082977)scale(0.1 -0.1)">
      <use xlink:href="#DejaVuSans-2212"/>
      <use x="83.789062" xlink:href="#DejaVuSans-30"/>
      <use x="147.412109" xlink:href="#DejaVuSans-2e"/>
      <use x="179.199219" xlink:href="#DejaVuSans-32"/>
     </g>
    </g>
   </g>
   <g id="xtick_14">
    <g id="line2d_16">
     <path d="M 331.487366 212.453995 
L 336.265625 213.396047 
" style="fill:none;stroke:#000000;stroke-linecap:square;stroke-width:0.8;"/>
    </g>
    <g id="text_16">
     <!-- 0.0 -->
     <g transform="translate(337.999586 231.042175)scale(0.1 -0.1)">
      <use xlink:href="#DejaVuSans-30"/>
      <use x="63.623047" xlink:href="#DejaVuSans-2e"/>
      <use x="95.410156" xlink:href="#DejaVuSans-30"/>
     </g>
    </g>
   </g>
   <g id="xtick_15">
    <g id="line2d_17">
     <path d="M 343.37989 204.65198 
L 348.128409 205.577421 
" style="fill:none;stroke:#000000;stroke-linecap:square;stroke-width:0.8;"/>
    </g>
    <g id="text_17">
     <!-- 0.2 -->
     <g transform="translate(349.762897 223.143695)scale(0.1 -0.1)">
      <use xlink:href="#DejaVuSans-30"/>
      <use x="63.623047" xlink:href="#DejaVuSans-2e"/>
      <use x="95.410156" xlink:href="#DejaVuSans-32"/>
     </g>
    </g>
   </g>
   <g id="xtick_16">
    <g id="line2d_18">
     <path d="M 355.063743 196.986862 
L 359.782826 197.896128 
" style="fill:none;stroke:#000000;stroke-linecap:square;stroke-width:0.8;"/>
    </g>
    <g id="text_18">
     <!-- 0.4 -->
     <g transform="translate(361.319825 215.383791)scale(0.1 -0.1)">
      <use xlink:href="#DejaVuSans-30"/>
      <use x="63.623047" xlink:href="#DejaVuSans-2e"/>
      <use x="95.410156" xlink:href="#DejaVuSans-34"/>
     </g>
    </g>
   </g>
   <g id="xtick_17">
    <g id="line2d_19">
     <path d="M 366.544369 189.45507 
L 371.234317 190.348581 
" style="fill:none;stroke:#000000;stroke-linecap:square;stroke-width:0.8;"/>
    </g>
    <g id="text_19">
     <!-- 0.6 -->
     <g transform="translate(372.675753 207.758847)scale(0.1 -0.1)">
      <use xlink:href="#DejaVuSans-30"/>
      <use x="63.623047" xlink:href="#DejaVuSans-2e"/>
      <use x="95.410156" xlink:href="#DejaVuSans-36"/>
     </g>
    </g>
   </g>
  </g>
  <g id="axis3d_3">
   <g id="line2d_20">
    <path d="M 370.258648 188.338686 
L 378.083615 63.146826 
" style="fill:none;stroke:#000000;stroke-linecap:square;stroke-width:0.8;"/>
   </g>
   <g id="text_20">
    <!-- z -->
    <defs>
     <path d="M 5.515625 54.6875 
L 48.1875 54.6875 
L 48.1875 46.484375 
L 14.40625 7.171875 
L 48.1875 7.171875 
L 48.1875 0 
L 4.296875 0 
L 4.296875 8.203125 
L 38.09375 47.515625 
L 5.515625 47.515625 
z
" id="DejaVuSans-7a"/>
    </defs>
    <g transform="translate(414.735808 126.376389)scale(0.1 -0.1)">
     <use xlink:href="#DejaVuSans-7a"/>
    </g>
   </g>
   <g id="Line3DCollection_3">
    <path d="M 370.745057 180.556617 
L 183.112363 145.213019 
L 67.2581 208.438953 
" style="fill:none;stroke:#b0b0b0;stroke-width:0.8;"/>
    <path d="M 372.218894 156.976661 
L 182.749772 122.28901 
L 65.685429 184.361635 
" style="fill:none;stroke:#b0b0b0;stroke-width:0.8;"/>
    <path d="M 373.722121 132.926498 
L 182.380258 98.927254 
L 64.080347 159.78811 
" style="fill:none;stroke:#b0b0b0;stroke-width:0.8;"/>
    <path d="M 375.255625 108.391921 
L 182.003619 75.115091 
L 62.441842 134.702879 
" style="fill:none;stroke:#b0b0b0;stroke-width:0.8;"/>
    <path d="M 376.820331 83.358145 
L 181.619648 50.839368 
L 60.768858 109.089791 
" style="fill:none;stroke:#b0b0b0;stroke-width:0.8;"/>
   </g>
   <g id="xtick_18">
    <g id="line2d_21">
     <path d="M 369.179384 180.261698 
L 373.879667 181.147071 
" style="fill:none;stroke:#000000;stroke-linecap:square;stroke-width:0.8;"/>
    </g>
    <g id="text_21">
     <!-- 1.0 -->
     <g transform="translate(382.329882 186.360183)scale(0.1 -0.1)">
      <use xlink:href="#DejaVuSans-31"/>
      <use x="63.623047" xlink:href="#DejaVuSans-2e"/>
      <use x="95.410156" xlink:href="#DejaVuSans-30"/>
     </g>
    </g>
   </g>
   <g id="xtick_19">
    <g id="line2d_22">
     <path d="M 370.637253 156.687097 
L 375.385505 157.556398 
" style="fill:none;stroke:#000000;stroke-linecap:square;stroke-width:0.8;"/>
    </g>
    <g id="text_22">
     <!-- 1.2 -->
     <g transform="translate(383.993028 162.812852)scale(0.1 -0.1)">
      <use xlink:href="#DejaVuSans-31"/>
      <use x="63.623047" xlink:href="#DejaVuSans-2e"/>
      <use x="95.410156" xlink:href="#DejaVuSans-32"/>
     </g>
    </g>
   </g>
   <g id="xtick_20">
    <g id="line2d_23">
     <path d="M 372.124184 132.642563 
L 376.921392 133.494972 
" style="fill:none;stroke:#000000;stroke-linecap:square;stroke-width:0.8;"/>
    </g>
    <g id="text_23">
     <!-- 1.4 -->
     <g transform="translate(385.689267 138.796975)scale(0.1 -0.1)">
      <use xlink:href="#DejaVuSans-31"/>
      <use x="63.623047" xlink:href="#DejaVuSans-2e"/>
      <use x="95.410156" xlink:href="#DejaVuSans-34"/>
     </g>
    </g>
   </g>
   <g id="xtick_21">
    <g id="line2d_24">
     <path d="M 373.641053 108.113901 
L 378.488237 108.948557 
" style="fill:none;stroke:#000000;stroke-linecap:square;stroke-width:0.8;"/>
    </g>
    <g id="text_24">
     <!-- 1.6 -->
     <g transform="translate(387.419596 114.298428)scale(0.1 -0.1)">
      <use xlink:href="#DejaVuSans-31"/>
      <use x="63.623047" xlink:href="#DejaVuSans-2e"/>
      <use x="95.410156" xlink:href="#DejaVuSans-36"/>
     </g>
    </g>
   </g>
   <g id="xtick_22">
    <g id="line2d_25">
     <path d="M 375.188774 83.086342 
L 380.086985 83.902342 
" style="fill:none;stroke:#000000;stroke-linecap:square;stroke-width:0.8;"/>
    </g>
    <g id="text_25">
     <!-- 1.8 -->
     <g transform="translate(389.185055 89.302512)scale(0.1 -0.1)">
      <use xlink:href="#DejaVuSans-31"/>
      <use x="63.623047" xlink:href="#DejaVuSans-2e"/>
      <use x="95.410156" xlink:href="#DejaVuSans-38"/>
     </g>
    </g>
   </g>
  </g>
  <g id="axes_1">
   <g id="line2d_26">
    <path clip-path="url(#p4cb6566757)" d="M 195.919477 128.327033 
L 195.745156 128.360715 
L 195.554074 128.495374 
L 195.146247 128.734325 
L 195.046855 128.717636 
L 194.709 129.009818 
L 192.29051 130.643692 
L 191.968447 130.789654 
L 191.39768 131.08491 
L 191.188522 131.391316 
L 191.115302 131.245868 
L 190.669664 131.461275 
L 188.03082 132.827042 
L 187.617187 132.990298 
L 187.220205 133.268555 
L 186.785148 133.454987 
L 185.864917 133.921166 
L 184.690685 134.531645 
L 183.915985 134.863792 
L 183.420985 135.210828 
L 182.367957 135.766289 
L 178.993641 137.536073 
L 178.643541 137.919719 
L 178.412161 137.885329 
L 174.47346 140.115627 
L 167.242129 144.073736 
L 166.279198 144.596215 
L 165.312928 145.190851 
L 164.718561 145.573326 
L 164.039722 145.943808 
L 163.779499 146.240879 
L 163.085732 146.554187 
L 162.486065 147.079033 
L 157.511073 150.598352 
L 157.356411 150.821924 
L 156.590936 151.289329 
L 155.825662 151.980534 
L 154.658951 152.925596 
L 147.535639 158.494745 
L 145.138034 160.456606 
L 141.75227 163.50866 
L 139.138449 166.03915 
L 138.308777 166.795694 
L 135.093843 169.806124 
L 130.958346 173.508839 
L 127.246618 176.295387 
L 126.267125 176.98253 
L 124.312594 177.905056 
L 122.733399 178.429728 
L 121.292786 179.013983 
L 120.272439 179.557201 
L 116.946395 181.150466 
L 115.244288 182.122285 
L 114.616559 182.332018 
L 113.999359 182.60972 
L 113.712356 182.796373 
L 113.313553 183.287217 
L 113.206215 183.297753 
L 113.150867 183.530165 
L 113.369496 184.377026 
L 113.859999 184.994269 
L 114.498246 185.316238 
L 115.265495 185.704534 
L 116.806136 186.290671 
L 119.922799 187.350814 
L 122.87517 188.275359 
L 124.782136 188.822324 
L 132.095208 190.880857 
L 134.141479 191.446193 
L 146.180718 193.881179 
L 149.918638 194.417101 
L 154.193204 194.854786 
L 164.01595 195.835432 
L 167.057985 196.232304 
L 170.58989 196.785335 
L 176.626241 197.979196 
L 183.282661 199.866165 
L 186.184767 200.806723 
L 192.299021 202.808994 
L 198.238203 204.680666 
L 200.423859 205.262487 
L 202.586411 205.850531 
L 205.140302 206.405694 
L 206.192486 206.558141 
L 213.046289 207.711942 
L 214.10186 207.878033 
L 214.826791 208.058136 
L 215.473164 208.047158 
L 216.515749 208.191933 
L 217.261548 208.374229 
L 222.239537 209.112827 
L 227.473001 210.231214 
L 229.208598 210.547867 
L 239.385879 212.059017 
L 241.112914 212.32244 
L 244.917621 212.964702 
L 246.53913 213.325427 
L 249.362637 213.894674 
L 250.40827 213.727203 
L 252.411227 213.326611 
L 253.168681 213.190351 
L 253.277816 213.086933 
L 253.629166 213.073371 
L 253.753673 212.970291 
L 254.1439 212.927873 
L 254.492577 212.815667 
L 255.96062 212.25055 
L 256.120027 212.113794 
L 256.542991 212.049009 
L 257.036435 211.722379 
L 257.613444 211.489243 
L 257.992157 211.309263 
L 260.623921 209.972177 
L 265.907059 207.186011 
L 276.781091 201.353132 
L 279.856104 199.541182 
L 286.982622 194.405112 
L 292.489179 190.179182 
L 293.278528 189.664636 
L 294.53986 188.706422 
L 298.31873 186.486666 
L 302.276929 184.412375 
L 307.244147 182.107086 
L 311.719005 180.509966 
L 315.461412 179.502065 
L 316.424061 179.207682 
L 318.220628 178.763495 
L 321.234675 177.96832 
L 324.01173 177.041318 
L 325.783056 176.481894 
L 327.934319 175.451907 
L 329.682281 174.507531 
L 330.660296 174.125572 
L 331.081705 173.875561 
L 332.024043 173.269564 
L 331.994365 173.220512 
L 331.899571 173.123874 
L 331.58828 172.817107 
L 331.426954 172.663418 
L 330.066124 172.124344 
L 328.558539 171.538666 
L 328.440986 171.445108 
L 328.063148 171.367316 
L 326.725104 170.922535 
L 325.651935 170.51108 
L 324.306294 169.821602 
L 322.487188 169.034994 
L 314.944623 166.511096 
L 312.359706 165.72745 
L 310.877029 165.266815 
L 307.261811 164.195237 
L 305.947181 163.921595 
L 294.853694 161.790915 
L 292.326005 161.519931 
L 290.757372 161.390161 
L 287.653501 161.015546 
L 286.584073 160.96034 
L 285.010055 160.827128 
L 266.297081 159.448226 
L 264.900921 159.276359 
L 258.354002 158.431328 
L 257.505457 158.397348 
L 256.29145 158.301456 
L 254.289266 158.156658 
L 251.586406 158.013554 
L 250.196607 157.844405 
L 240.844602 157.428947 
L 240.069781 157.495881 
L 238.992231 157.523393 
L 237.594435 157.555873 
L 236.534896 157.528462 
L 235.075865 157.551527 
L 222.481854 158.333192 
L 221.023214 158.310074 
L 219.592126 158.409789 
L 218.277487 158.348449 
L 217.660309 158.379639 
L 216.132132 158.302181 
L 215.062246 158.143053 
L 214.093869 157.906097 
L 213.162081 157.591383 
L 212.130474 157.307364 
L 211.762291 157.093202 
L 211.394899 156.947801 
L 210.523338 156.58787 
L 208.788199 155.792259 
L 208.420213 155.624608 
L 206.619962 154.636547 
L 206.307779 154.57522 
L 203.599854 153.558036 
L 203.405984 153.501027 
L 202.719435 153.339489 
L 200.135798 153.515263 
L 199.763772 153.404143 
L 199.140566 152.891985 
L 199.156498 152.626764 
L 200.969884 147.577595 
L 201.705197 145.907306 
L 202.764637 143.990339 
L 202.524079 144.000706 
L 207.11143 132.186835 
L 209.223775 124.860055 
L 210.764869 117.218079 
L 211.40439 113.252342 
L 211.746172 111.530148 
L 213.1171 100.478484 
L 213.413315 97.837694 
L 213.64441 95.831341 
L 213.821576 92.696069 
L 214.144962 84.5746 
L 214.173589 82.114033 
L 214.266272 80.761879 
L 214.283679 76.980625 
L 213.816776 70.564612 
L 213.569081 68.92734 
L 213.641193 68.521297 
L 213.484831 68.161389 
L 213.372045 67.029756 
L 212.924501 64.666955 
L 212.764565 63.975792 
L 212.797806 63.687268 
L 212.62915 63.412772 
L 212.562464 63.071749 
L 212.612036 62.708841 
L 212.449585 62.438825 
L 212.540047 62.125086 
L 212.370549 61.461566 
L 212.108845 60.803401 
L 212.341431 60.467256 
L 212.096053 60.152073 
L 211.995266 59.816835 
L 211.716352 59.215104 
L 211.360616 57.616264 
L 211.658688 57.408194 
L 211.290398 57.136617 
L 211.513539 56.659878 
L 211.461998 56.410758 
L 211.103589 56.008491 
L 211.310064 55.702894 
L 210.872454 55.262145 
L 211.089098 54.963037 
L 210.709617 54.812693 
L 210.387095 54.093854 
L 210.526916 53.860506 
L 210.397787 53.640575 
L 210.503916 53.4269 
L 210.180076 53.092166 
L 209.683094 52.814318 
L 209.35856 52.319885 
L 209.080067 52.06657 
L 209.122519 51.996169 
L 210.255954 52.214499 
L 208.875056 51.837994 
L 208.575588 51.570097 
L 207.697734 51.256957 
L 207.194263 51.36979 
L 207.220699 51.390979 
L 206.982789 51.545924 
L 206.89228 51.654091 
L 207.107587 51.755739 
L 207.0089 51.821319 
L 206.781146 51.927002 
L 206.928611 52.076946 
L 206.555364 52.231324 
L 206.386626 52.557707 
L 206.617962 52.676117 
L 206.053619 52.850016 
L 206.041821 53.000618 
L 206.322789 53.076384 
L 205.998618 53.405658 
L 205.664577 53.555485 
L 205.648449 53.739383 
L 205.316447 53.809986 
L 205.222719 54.10702 
L 204.593542 55.281228 
L 204.291914 55.646228 
L 203.499263 56.183722 
L 203.321738 56.333675 
L 203.643071 56.547445 
L 202.738154 57.435267 
L 202.226063 57.498952 
L 201.810812 58.035701 
L 200.873547 58.92057 
L 200.491756 59.331951 
L 200.251014 59.448871 
L 200.230132 59.648839 
L 199.184972 60.307931 
L 199.090893 60.486295 
L 198.374471 60.70608 
L 198.011683 61.165866 
L 197.820625 61.348678 
L 197.452848 61.489226 
L 197.324298 61.742713 
L 196.502283 62.307823 
L 196.477947 62.61439 
L 196.064413 62.796875 
L 195.386803 63.58418 
L 194.990861 63.731974 
L 194.802235 64.017797 
L 194.379491 64.152933 
L 193.158939 65.281347 
L 192.380214 65.708137 
L 189.643107 67.389753 
L 189.572308 67.662193 
L 189.055894 67.781461 
L 188.822738 68.052131 
L 188.448481 68.264398 
L 188.32187 68.527152 
L 184.204731 71.037193 
L 183.856471 71.192614 
L 183.434169 71.213698 
L 183.082531 71.438311 
L 182.879822 71.433128 
L 182.134338 71.916891 
L 181.371999 72.197492 
L 180.869362 72.19088 
L 180.478954 72.340472 
L 180.000392 72.392302 
L 179.548778 72.575244 
L 179.395412 72.882509 
L 178.338737 73.482895 
L 177.942076 73.379965 
L 176.585474 74.299913 
L 176.2444 74.48461 
L 175.512681 74.632613 
L 175.264864 74.82977 
L 174.333083 75.111264 
L 173.221191 75.684993 
L 172.52354 76.176416 
L 169.969296 77.461452 
L 168.716138 78.094826 
L 167.172942 78.831475 
L 165.675475 79.539082 
L 165.438074 79.457439 
L 164.137722 80.331534 
L 163.522474 80.597514 
L 159.692006 82.332974 
L 158.405984 82.823795 
L 153.67858 84.879654 
L 155.329256 85.41315 
L 153.824188 85.377415 
L 153.30553 85.573951 
L 153.00957 85.63739 
L 153.895693 86.02655 
L 153.062898 86.451931 
L 151.597756 86.449026 
L 151.306986 86.571948 
L 153.530515 86.968013 
L 153.017395 87.236933 
L 150.325375 86.890454 
L 150.066205 87.153419 
L 149.851967 87.195285 
L 149.616036 86.988391 
L 149.122624 87.035757 
L 148.593192 86.666704 
L 148.254396 86.866187 
L 148.027654 86.849856 
L 147.953574 87.015142 
L 147.03167 86.82602 
L 146.357327 86.818795 
L 145.726462 87.536207 
L 145.752111 85.816065 
L 146.83066 87.827143 
L 146.199829 88.10589 
L 146.124333 87.839411 
L 146.1017 87.853423 
L 144.672158 87.871055 
L 143.655024 87.415644 
L 142.930821 87.505978 
L 142.353833 87.304761 
L 141.388572 87.235759 
L 140.525408 87.520011 
L 140.38127 87.648286 
L 140.516959 87.791269 
L 140.277006 87.866312 
L 139.264821 88.026451 
L 138.95013 88.220826 
L 139.020247 88.273756 
L 138.54726 88.441224 
L 137.47178 89.285787 
L 140.450211 89.749322 
L 140.075587 89.740317 
L 139.992312 89.837098 
L 137.50327 89.425627 
L 137.009692 89.614861 
L 137.082595 89.669301 
L 137.469294 90.278164 
L 137.343488 90.225246 
L 136.195889 88.888133 
L 137.218622 90.3983 
L 137.163264 90.569966 
L 137.088256 90.205253 
L 137.023108 90.259966 
L 136.708246 90.721664 
L 136.427508 90.644233 
L 136.115001 90.766309 
L 135.733624 90.88871 
L 135.283803 90.201454 
L 135.438284 90.116889 
L 134.900804 90.245742 
L 133.829284 91.356758 
L 134.678472 90.829198 
L 134.620794 90.819291 
L 133.937176 90.796593 
L 133.353349 90.782203 
L 133.281988 90.962001 
L 132.726256 90.981248 
L 132.614436 91.000186 
L 131.81347 91.438381 
L 130.94269 91.624637 
L 130.417404 92.075139 
L 130.370701 92.177487 
L 130.445185 91.221104 
L 130.513085 91.313916 
L 132.171349 91.635999 
L 130.407477 92.330025 
L 129.160003 92.312733 
L 129.132298 92.373269 
L 128.676589 92.343394 
L 127.776426 92.850502 
L 124.595673 89.657487 
L 124.520977 89.730976 
L 128.162204 92.409571 
L 127.847145 92.314831 
L 127.847344 92.485349 
L 127.531064 92.572108 
L 127.579653 92.672963 
L 126.907415 92.833094 
L 126.730179 93.088632 
L 124.575629 92.754997 
L 125.806609 92.996598 
L 126.69028 92.688964 
L 126.591271 92.763523 
L 126.528612 93.005597 
L 125.094161 93.391278 
L 125.631321 93.473081 
L 125.604999 93.536646 
L 125.58624 93.914228 
L 123.252579 94.334858 
L 123.473607 94.386772 
L 123.416762 94.44167 
L 124.966965 94.249089 
L 124.931309 94.039959 
L 124.933642 94.44873 
L 124.888965 94.454438 
L 125.377367 94.460132 
L 125.920905 94.895901 
L 125.894926 94.916089 
L 126.878069 94.86514 
L 126.661198 94.872921 
L 126.967722 95.215632 
L 124.290077 95.137639 
L 124.214873 95.377987 
L 124.276914 95.266658 
L 124.095358 95.240586 
L 124.256632 95.257963 
L 124.042017 95.421491 
L 124.150793 95.399289 
L 124.63327 95.284564 
L 124.496566 95.397934 
L 125.566745 95.490685 
L 125.26912 95.531336 
L 125.26933 95.586368 
L 125.22901 95.551588 
L 125.149731 95.592371 
L 124.461903 95.543343 
L 125.152065 95.610659 
L 125.772778 95.900657 
L 125.533577 95.894312 
L 125.496095 96.013294 
L 123.976974 96.444032 
L 122.661686 96.13906 
L 122.680417 96.159001 
L 124.627674 96.1729 
L 124.609077 96.214664 
L 121.696006 96.594692 
L 123.886911 96.437796 
L 123.87374 96.412288 
L 123.498981 96.300493 
L 123.53635 96.329511 
L 123.337019 97.373835 
L 124.238542 96.610789 
L 123.285729 97.554153 
L 123.349211 97.70958 
L 123.52088 98.029436 
L 124.056234 98.615192 
L 125.312398 97.784566 
L 123.718248 98.66606 
L 122.508246 98.216457 
L 126.558312 99.645809 
L 126.579982 99.610206 
L 125.847981 97.611523 
L 125.480064 97.495065 
L 127.177244 98.507696 
L 128.247439 99.10681 
L 128.281275 99.177318 
L 128.244273 99.132648 
L 128.951597 99.483933 
L 129.120945 99.558973 
L 129.115222 99.527995 
L 129.480726 99.72004 
L 128.8446 99.741791 
L 129.22278 100.131257 
L 129.316639 100.039541 
L 129.509859 100.116044 
L 129.701228 99.507556 
L 130.737978 101.217108 
L 131.048132 100.369435 
L 131.197775 100.400191 
L 131.602913 100.616078 
L 131.931234 100.664754 
L 132.385407 101.006122 
L 132.508475 100.960168 
L 131.568641 101.133601 
L 131.585492 101.208006 
L 131.182652 101.733093 
L 133.589376 101.579122 
L 130.944574 101.657563 
L 132.019097 101.534865 
L 132.471681 101.689216 
L 134.882363 101.928767 
L 135.287882 102.821475 
L 135.753532 102.898203 
L 137.889147 102.340445 
L 134.883627 102.900376 
L 135.181288 103.172798 
L 135.609207 103.319374 
L 138.965537 102.827022 
L 139.257306 102.941863 
L 138.222353 103.956907 
L 140.293061 104.79719 
L 141.880791 105.356825 
L 140.747119 105.300247 
L 141.09053 105.415147 
L 145.522747 106.675829 
L 151.268385 108.088448 
L 151.70317 108.176746 
L 151.468639 107.996958 
L 160.067788 109.170281 
L 175.255247 110.594157 
L 178.969968 111.433893 
L 180.384914 111.796495 
L 184.204946 112.403442 
L 181.385745 112.051402 
L 184.649549 112.885258 
L 188.252082 114.106489 
L 192.044302 114.730551 
L 192.494335 114.919721 
L 190.299994 114.992934 
L 191.185507 115.400754 
L 194.25256 115.742154 
L 196.513111 116.915854 
L 194.330328 116.94486 
L 195.184007 117.371702 
L 198.309905 117.816412 
L 201.872589 119.708978 
L 202.319606 119.958926 
L 199.354072 119.575916 
L 202.304207 121.091572 
L 206.227375 121.986391 
L 203.363025 121.60631 
L 207.735587 123.487922 
L 210.430022 124.353038 
L 213.085605 124.890085 
L 216.262709 125.269777 
L 221.182741 125.145279 
L 222.903961 125.107465 
L 227.646375 125.137208 
L 230.822862 125.441036 
L 233.060392 125.845115 
L 238.940929 127.142453 
L 241.915343 127.667695 
L 249.645798 129.980245 
L 255.001534 132.391446 
L 255.718911 132.747281 
L 257.838819 133.352925 
L 262.136504 134.014182 
L 262.508916 134.057862 
L 263.776545 134.270935 
L 263.893118 134.221572 
L 264.14921 134.167348 
L 264.79344 134.124206 
L 265.516592 134.251876 
L 266.348587 133.998364 
L 266.279889 133.87012 
L 266.81306 133.399707 
L 267.260078 133.331213 
L 267.805155 133.033518 
L 268.235653 132.775968 
L 268.821324 132.388801 
L 269.223625 132.069956 
L 269.618814 131.890213 
L 269.572994 131.720326 
L 269.9929 131.375941 
L 269.943029 131.186514 
L 270.266483 131.133841 
L 270.221201 130.943019 
L 270.679153 130.92964 
L 271.05581 130.516014 
L 270.920814 130.283833 
L 271.552078 129.753283 
L 271.951081 129.716073 
L 272.120853 129.586233 
L 271.964551 129.360042 
L 273.445459 128.314446 
L 273.797725 128.090699 
L 274.225635 128.052073 
L 274.541719 127.606156 
L 275.462917 127.337967 
L 275.857659 127.099438 
L 275.996806 126.771172 
L 276.123511 126.631638 
L 276.567322 126.581913 
L 276.88638 126.297029 
L 277.115106 126.180315 
L 277.323226 125.869033 
L 278.004005 125.666543 
L 279.846126 124.323763 
L 280.411111 124.054458 
L 281.802418 123.276528 
L 282.591546 122.944959 
L 283.267575 122.545363 
L 286.36412 121.251984 
L 287.753853 120.54757 
L 289.459792 119.661678 
L 290.747271 118.940434 
L 292.869872 117.505305 
L 295.182237 116.02712 
L 295.991144 115.758024 
L 301.145602 112.951294 
L 303.495928 112.214971 
L 305.572165 111.554317 
L 307.927463 110.692153 
L 312.855273 108.780891 
L 313.892688 108.253273 
L 315.913692 107.413556 
L 317.909803 106.468641 
L 319.817772 105.634547 
L 321.504742 104.840103 
L 322.826739 104.109943 
L 323.30589 103.491894 
L 324.500211 102.286379 
L 324.792047 102.122208 
L 325.235123 101.608303 
L 326.180548 100.796239 
L 326.594242 100.353962 
L 327.239411 99.67692 
L 328.494893 98.341538 
L 331.131604 94.898294 
L 331.942742 93.59133 
L 332.233116 93.111161 
L 333.057384 91.87468 
L 334.055596 90.569425 
L 333.196286 90.177838 
L 333.469228 89.748736 
L 334.435035 89.900998 
L 334.503061 89.756936 
L 334.331695 89.781799 
L 334.81038 89.26721 
L 335.009682 88.903917 
L 334.693095 89.155768 
L 334.954718 88.83072 
L 335.340647 88.098089 
L 335.852343 87.877025 
L 335.949783 87.417805 
L 336.271973 87.236887 
L 337.927604 85.748623 
L 337.080567 85.539415 
L 339.335282 85.992433 
L 338.39416 85.720906 
L 338.567379 85.679428 
L 339.869916 86.118713 
L 339.917155 86.153413 
L 341.047711 86.495692 
L 340.668929 86.310038 
L 340.29981 87.134163 
L 340.351335 87.150559 
L 340.466787 87.23983 
L 340.528382 86.632804 
L 340.572464 86.709399 
L 340.569769 86.505477 
L 340.863936 86.165313 
L 340.792998 86.182468 
L 340.691012 86.104804 
L 340.514278 86.082967 
L 340.352549 86.253946 
L 340.42273 86.0456 
L 340.050255 85.967805 
L 339.943666 86.384749 
L 339.66983 86.017538 
L 339.798457 85.820521 
L 339.154856 85.874439 
L 338.871443 85.926281 
L 338.642783 85.923715 
L 338.435546 85.868518 
L 337.861813 85.909056 
L 337.03468 86.048627 
L 335.884836 86.043199 
L 335.892308 85.822065 
L 334.549295 85.853903 
L 335.188774 86.31201 
L 335.003093 86.265016 
L 333.72156 86.061015 
L 332.342532 85.963446 
L 332.584747 85.788191 
L 330.933706 85.55209 
L 330.455056 85.442369 
L 330.074574 85.597711 
L 327.913642 85.150708 
L 320.247582 83.917833 
L 319.388482 83.681585 
L 318.510982 83.442188 
L 316.355619 82.917918 
L 315.38158 82.91438 
L 315.021837 82.777724 
L 312.334171 82.692997 
L 310.536352 82.448257 
L 310.200977 82.19829 
L 307.395785 81.414092 
L 305.653726 80.801641 
L 305.071068 80.818312 
L 304.759348 80.590051 
L 304.331891 80.483666 
L 303.731582 80.566297 
L 303.32366 80.440293 
L 302.847909 80.464706 
L 302.070031 80.215846 
L 301.155387 80.135732 
L 300.841153 79.90549 
L 300.420213 79.843286 
L 299.869323 79.891869 
L 297.804011 79.268591 
L 297.578815 78.931601 
L 294.592345 77.990031 
L 294.020843 78.07957 
L 293.147249 77.749827 
L 292.196683 77.522026 
L 291.74224 77.410384 
L 291.349381 77.185558 
L 290.793163 77.133054 
L 290.033159 76.727481 
L 288.982283 76.598851 
L 288.074329 76.28746 
L 286.776834 75.838028 
L 286.508391 75.557992 
L 285.625046 75.334685 
L 285.285999 75.098366 
L 282.638578 74.219483 
L 282.326238 74.234174 
L 281.906984 74.011019 
L 281.078643 73.734069 
L 280.682982 73.520386 
L 277.874163 72.888547 
L 276.652449 72.406228 
L 275.306737 72.091823 
L 273.592231 71.56702 
L 273.115849 71.205266 
L 270.492703 70.262303 
L 273.641548 70.875392 
L 267.81725 69.742156 
L 267.505228 69.809964 
L 266.249188 69.554059 
L 264.154287 69.25593 
L 262.837333 69.095986 
L 262.041416 68.966135 
L 260.065534 69.299738 
L 259.635142 69.246469 
L 259.917884 68.648027 
L 254.561092 68.493045 
L 253.12016 68.628339 
L 252.708336 68.694089 
L 252.299269 68.646366 
L 251.692076 68.792857 
L 250.91042 68.916854 
L 250.495169 68.822386 
L 249.565258 69.107721 
L 248.74292 69.098285 
L 246.616275 68.908451 
L 245.576667 68.859886 
L 245.308893 68.666487 
L 243.449144 68.474889 
L 243.129207 68.338844 
L 242.614859 68.336536 
L 241.594208 68.06382 
L 238.702504 66.802415 
L 238.372726 66.781763 
L 237.896842 66.431039 
L 234.64981 65.144057 
L 232.40163 64.294625 
L 229.68235 63.120984 
L 227.972756 62.414852 
L 227.076567 62.11706 
L 226.966823 61.920424 
L 226.366598 61.723472 
L 225.741701 61.649584 
L 225.246906 61.42084 
L 225.255857 61.137337 
L 224.574531 60.932176 
L 223.990625 60.611341 
L 223.190592 60.265757 
L 219.993687 59.189768 
L 219.134002 58.954452 
L 216.596114 57.832849 
L 214.880717 57.44249 
L 214.870819 57.335194 
L 214.570537 57.31324 
L 213.378467 56.911132 
L 212.35471 56.590582 
L 212.102181 56.55313 
L 211.673481 56.497957 
L 210.864511 56.663226 
L 210.343936 56.681066 
L 209.656226 56.599839 
L 207.446508 56.774445 
L 207.206984 56.746735 
L 206.713825 56.87996 
L 206.500295 57.126051 
L 206.410266 57.334993 
L 206.753771 57.407506 
L 206.320042 57.702511 
L 206.181193 58.112426 
L 206.196735 58.912469 
L 206.389918 59.035548 
L 206.246957 59.072081 
L 206.295653 59.793727 
L 206.435112 59.837338 
L 206.302203 59.994048 
L 206.313476 60.546659 
L 206.256868 60.51795 
L 205.72647 60.718752 
L 205.761173 60.747937 
L 205.553835 60.764614 
L 205.534582 60.791735 
L 205.744027 60.778395 
L 205.264226 60.914412 
L 205.151504 60.991985 
L 204.799821 60.977799 
L 204.893356 60.919195 
L 204.557013 60.925155 
L 204.433375 60.922539 
L 202.397085 58.714475 
L 202.156034 58.721404 
L 202.307204 58.719437 
L 202.590069 58.890923 
L 201.871922 58.573293 
L 201.650174 58.667596 
L 201.434267 58.738475 
L 201.48766 58.822046 
L 201.674833 59.09906 
L 201.552705 59.155358 
L 201.067821 58.879222 
L 201.21021 58.895177 
L 200.448281 59.172219 
L 200.061329 59.394003 
L 200.232204 59.451261 
L 199.466002 59.62819 
L 198.979839 59.952688 
L 198.723964 60.058201 
L 198.831446 60.228057 
L 198.406317 60.323812 
L 197.484327 60.775471 
L 197.646942 60.877381 
L 196.858158 60.961315 
L 196.188776 61.27447 
L 196.041354 61.29207 
L 195.94839 61.416609 
L 195.700751 61.512098 
L 195.696708 61.671979 
L 195.443487 61.607241 
L 194.684307 61.988237 
L 194.53331 62.047946 
L 194.541126 62.17604 
L 193.956611 62.271698 
L 193.917718 62.320336 
L 193.344153 62.496828 
L 193.608048 62.633877 
L 192.916057 62.901254 
L 192.668742 63.009991 
L 191.956037 63.016827 
L 192.033203 63.152458 
L 191.447569 63.208568 
L 190.800723 63.591808 
L 190.28191 63.845099 
L 189.998218 63.973869 
L 190.043582 64.268237 
L 189.45169 64.218607 
L 189.228927 64.353605 
L 189.406185 64.542713 
L 189.149349 64.633066 
L 188.798461 64.959675 
L 187.862481 65.298219 
L 187.057356 65.182506 
L 185.988819 65.51834 
L 186.210816 65.802901 
L 185.507032 65.838578 
L 185.486562 66.083343 
L 184.529096 66.599327 
L 183.804233 66.940581 
L 182.682167 67.108167 
L 180.969158 67.837347 
L 181.064747 68.091665 
L 179.868777 68.632678 
L 179.39798 68.701448 
L 179.077766 68.978066 
L 178.746594 69.075331 
L 177.872413 69.597833 
L 176.973723 69.688013 
L 175.803791 70.401929 
L 175.893137 70.783413 
L 173.384932 72.058947 
L 172.851087 72.217111 
L 172.194953 72.78347 
L 171.712817 72.765394 
L 170.716805 73.086177 
L 169.936945 73.218325 
L 157.900164 78.43503 
L 149.651179 80.973745 
L 147.036429 81.628472 
L 145.409881 82.131907 
L 140.347154 83.552473 
L 139.850053 83.683151 
L 139.835348 83.826221 
L 135.867216 84.924501 
L 135.420573 85.050799 
L 135.344969 85.49255 
L 135.141498 85.664288 
L 134.538856 85.840514 
L 134.569668 84.560237 
L 134.094443 84.661701 
L 134.215978 86.483171 
L 133.050037 86.337045 
L 131.913309 86.917397 
L 131.403405 87.042116 
L 130.677968 86.845538 
L 130.263379 87.085806 
L 127.90861 87.874415 
L 127.475841 87.794179 
L 126.349315 88.126877 
L 124.701262 88.559105 
L 123.363593 88.821735 
L 123.450596 89.166808 
L 120.705095 89.430444 
L 120.348891 89.242671 
L 120.115356 89.417012 
L 119.486221 89.458195 
L 119.376137 89.78887 
L 119.155613 89.494633 
L 118.855027 89.990454 
L 118.391135 89.680168 
L 117.991778 89.864225 
L 113.993313 89.889647 
L 113.897295 90.076954 
L 113.498561 90.025514 
L 113.123422 90.073304 
L 111.73414 89.77165 
L 113.292057 90.519549 
L 110.373029 89.165356 
L 108.08946 88.564493 
L 107.41741 88.25851 
L 106.897463 88.115329 
L 105.97176 87.841959 
L 107.488487 88.402864 
L 105.090246 87.770638 
L 103.987992 87.817723 
L 101.384164 88.642034 
L 100.940967 88.927256 
L 100.26164 89.793469 
L 99.229632 92.729941 
L 99.10667 93.849159 
L 99.039982 95.618543 
L 99.150044 100.058725 
L 99.16864 101.46591 
L 99.152646 103.019215 
L 99.62851 103.789145 
L 99.784957 104.795885 
L 99.226817 105.101313 
L 99.239008 106.714589 
L 99.168691 108.311793 
L 99.37752 109.131827 
L 99.291127 111.406451 
L 98.815757 111.618032 
L 98.827196 112.22093 
L 99.216299 113.230558 
L 99.188514 113.767077 
L 98.689175 114.008373 
L 98.7829 114.750879 
L 98.495269 115.207079 
L 98.315719 116.413106 
L 98.950809 117.408017 
L 98.751689 119.407424 
L 98.763916 119.94347 
L 98.562072 121.933581 
L 98.412527 124.634289 
L 98.303829 126.018562 
L 98.022596 131.145567 
L 97.372868 138.955812 
L 97.224035 141.280396 
L 97.095284 142.055902 
L 97.020808 144.525217 
L 96.815607 146.983849 
L 96.589279 151.243178 
L 96.269104 155.523406 
L 96.317269 156.32054 
L 96.113671 158.718982 
L 96.065623 159.640309 
L 95.905416 160.340454 
L 95.869747 162.13739 
L 95.453037 166.155824 
L 94.87277 170.302442 
L 94.602504 170.928618 
L 94.256112 173.317255 
L 93.888197 174.673931 
L 93.768159 176.922002 
L 93.463732 179.005393 
L 93.170085 181.048391 
L 92.550719 184.125226 
L 91.843828 187.678196 
L 91.469561 189.627279 
L 90.830643 191.782562 
L 90.182338 193.870692 
L 90.309958 194.582811 
L 90.585633 194.763019 
L 91.362443 195.023609 
L 91.897754 195.216007 
L 93.151919 195.453435 
L 93.98372 195.637863 
L 94.842417 195.962428 
L 95.809299 196.278883 
L 97.639202 196.767927 
L 98.641465 197.052745 
L 101.852939 198.189201 
L 105.646796 199.355173 
L 118.547931 204.255309 
L 123.83653 206.483601 
L 126.345948 207.448336 
L 135.445542 210.372005 
L 137.558709 210.696037 
L 148.835938 211.548686 
L 157.627964 211.773713 
L 167.299919 212.913537 
L 170.80377 213.708455 
L 174.866407 214.813074 
L 182.444769 217.020936 
L 185.476676 217.878377 
L 189.386477 218.9292 
L 193.287104 219.693423 
L 200.004023 220.864158 
L 203.008762 221.179813 
L 213.454584 223.252949 
L 217.816809 224.388038 
L 218.929254 224.595426 
L 220.040138 224.954608 
L 222.023214 225.507295 
L 222.985351 225.732666 
L 225.486326 226.269682 
L 226.533232 226.455194 
L 228.86146 227.128775 
L 232.203422 228.210118 
L 235.601531 228.991709 
L 236.10903 229.221222 
L 236.519265 229.272775 
L 239.488826 230.202178 
L 240.405931 230.714564 
L 240.792461 230.945988 
L 241.141003 231.044841 
L 241.603651 231.059125 
L 242.50212 230.812053 
L 243.268879 230.241774 
L 243.976712 229.445354 
L 245.546455 227.192923 
L 247.112781 224.43182 
L 248.790153 220.903398 
L 250.701762 215.764277 
L 252.199523 210.630198 
L 252.67559 208.810951 
L 253.97792 203.176394 
L 255.667176 193.210578 
L 256.167365 187.896012 
L 256.387244 181.461164 
L 256.445458 177.137963 
L 256.469505 175.011217 
L 256.360549 173.84791 
L 256.412958 168.650524 
L 256.366482 167.595156 
L 256.445076 166.648903 
L 256.298732 164.572619 
L 256.309246 163.618905 
L 256.114076 161.617864 
L 255.967831 159.695798 
L 255.310411 154.929153 
L 254.718907 151.248607 
L 254.29866 149.37726 
L 253.40798 144.912337 
L 253.346517 144.122041 
L 252.44726 140.882435 
L 250.521495 134.425598 
L 250.138665 132.988636 
L 249.61611 132.215005 
L 249.73073 132.287009 
L 250.397837 132.809642 
L 251.300079 133.624263 
L 251.788286 133.695124 
L 252.200186 133.610898 
L 252.535289 133.060236 
L 252.66177 132.656387 
L 252.873881 131.917935 
L 252.898321 131.513793 
L 252.961711 130.648101 
L 253.104922 130.469994 
L 253.574703 129.808314 
L 254.017858 129.361085 
L 254.7643 128.968458 
L 256.499926 128.236853 
L 257.211554 128.086383 
L 260.141145 127.243833 
L 265.43665 125.584663 
L 268.748481 124.374263 
L 275.593705 121.999679 
L 276.460645 121.668007 
L 282.559512 119.778611 
L 285.342806 119.437406 
L 290.045044 118.371303 
L 295.451327 117.596703 
L 299.317226 116.939164 
L 302.056596 116.469767 
L 309.974472 114.992483 
L 311.353603 114.739259 
L 315.201556 113.74281 
L 316.566463 113.131096 
L 319.055894 111.926829 
L 322.677653 110.265176 
L 327.262118 107.6806 
L 328.04805 107.110772 
L 330.622308 105.206217 
L 332.454624 103.885262 
L 336.318351 100.523271 
L 337.306416 99.716275 
L 337.967316 99.207425 
L 338.982975 98.380571 
L 339.780598 97.731019 
L 340.925682 97.93329 
L 340.001936 97.684567 
L 341.49061 96.669066 
L 341.668272 96.515671 
L 341.79347 96.215074 
L 342.002012 96.073433 
L 343.091149 96.292202 
L 342.17469 95.871713 
L 342.351308 95.663778 
L 341.585621 95.48363 
L 342.320241 95.926284 
L 343.55598 93.047909 
L 343.630899 92.648684 
L 343.488025 92.516367 
L 343.719268 92.086479 
L 343.690207 91.942853 
L 343.82764 91.055752 
L 344.006721 89.324654 
L 343.883801 86.514675 
L 343.995777 85.872293 
L 343.729217 85.198236 
L 343.732409 84.353526 
L 343.391816 82.438747 
L 343.482366 82.025851 
L 343.585134 82.148639 
L 343.658424 82.448162 
L 343.769499 82.960851 
L 344.001954 83.549097 
L 344.680178 85.984265 
L 345.049072 87.680292 
L 345.214609 88.698031 
L 346.222518 89.388247 
L 346.373883 90.576486 
L 345.319493 91.418099 
L 345.505822 92.703614 
L 345.770666 93.080606 
L 346.333628 99.078209 
L 346.483031 99.680703 
L 346.5408 100.460956 
L 346.318223 102.708794 
L 346.691936 108.92793 
L 346.686768 116.826504 
L 346.533424 123.079035 
L 345.75049 133.336939 
L 345.485792 135.559638 
L 344.053588 144.000974 
L 342.786347 149.94653 
L 340.289864 159.380332 
L 337.546813 167.01235 
L 336.474217 169.626251 
L 335.135295 172.467024 
L 332.969174 176.758353 
L 331.80495 178.871685 
L 329.110458 183.024513 
L 327.297231 185.724168 
L 326.901847 186.348088 
L 325.076068 188.027881 
L 325.101879 187.948703 
L 325.060933 187.855986 
L 325.08971 187.812856 
L 325.107086 187.553644 
L 325.076916 187.412087 
L 325.196332 187.030906 
L 325.312127 186.64891 
L 325.236855 186.483854 
L 324.993372 186.559153 
L 324.917997 186.50126 
L 324.903652 186.52921 
L 324.646746 186.481044 
L 324.485997 186.486065 
L 324.360179 186.293656 
L 324.266147 186.072863 
L 324.341409 185.97554 
L 324.535471 185.674397 
L 324.507116 185.967795 
L 324.333359 186.263714 
L 324.186253 186.23612 
L 324.34704 186.245311 
L 324.180904 186.184243 
L 324.163389 186.149491 
L 324.08294 186.196376 
L 323.982425 186.269128 
L 324.14665 186.092669 
L 324.14665 186.092669 
" style="fill:none;stroke:#1f77b4;stroke-linecap:square;stroke-width:1.5;"/>
   </g>
   <g id="text_26">
    <!-- KaurCuup™ -->
    <defs>
     <path d="M 9.8125 72.90625 
L 19.671875 72.90625 
L 19.671875 42.09375 
L 52.390625 72.90625 
L 65.09375 72.90625 
L 28.90625 38.921875 
L 67.671875 0 
L 54.6875 0 
L 19.671875 35.109375 
L 19.671875 0 
L 9.8125 0 
z
" id="DejaVuSans-4b"/>
     <path d="M 34.28125 27.484375 
Q 23.390625 27.484375 19.1875 25 
Q 14.984375 22.515625 14.984375 16.5 
Q 14.984375 11.71875 18.140625 8.90625 
Q 21.296875 6.109375 26.703125 6.109375 
Q 34.1875 6.109375 38.703125 11.40625 
Q 43.21875 16.703125 43.21875 25.484375 
L 43.21875 27.484375 
z
M 52.203125 31.203125 
L 52.203125 0 
L 43.21875 0 
L 43.21875 8.296875 
Q 40.140625 3.328125 35.546875 0.953125 
Q 30.953125 -1.421875 24.3125 -1.421875 
Q 15.921875 -1.421875 10.953125 3.296875 
Q 6 8.015625 6 15.921875 
Q 6 25.140625 12.171875 29.828125 
Q 18.359375 34.515625 30.609375 34.515625 
L 43.21875 34.515625 
L 43.21875 35.40625 
Q 43.21875 41.609375 39.140625 45 
Q 35.0625 48.390625 27.6875 48.390625 
Q 23 48.390625 18.546875 47.265625 
Q 14.109375 46.140625 10.015625 43.890625 
L 10.015625 52.203125 
Q 14.9375 54.109375 19.578125 55.046875 
Q 24.21875 56 28.609375 56 
Q 40.484375 56 46.34375 49.84375 
Q 52.203125 43.703125 52.203125 31.203125 
z
" id="DejaVuSans-61"/>
     <path d="M 8.5 21.578125 
L 8.5 54.6875 
L 17.484375 54.6875 
L 17.484375 21.921875 
Q 17.484375 14.15625 20.5 10.265625 
Q 23.53125 6.390625 29.59375 6.390625 
Q 36.859375 6.390625 41.078125 11.03125 
Q 45.3125 15.671875 45.3125 23.6875 
L 45.3125 54.6875 
L 54.296875 54.6875 
L 54.296875 0 
L 45.3125 0 
L 45.3125 8.40625 
Q 42.046875 3.421875 37.71875 1 
Q 33.40625 -1.421875 27.6875 -1.421875 
Q 18.265625 -1.421875 13.375 4.4375 
Q 8.5 10.296875 8.5 21.578125 
z
M 31.109375 56 
z
" id="DejaVuSans-75"/>
     <path d="M 41.109375 46.296875 
Q 39.59375 47.171875 37.8125 47.578125 
Q 36.03125 48 33.890625 48 
Q 26.265625 48 22.1875 43.046875 
Q 18.109375 38.09375 18.109375 28.8125 
L 18.109375 0 
L 9.078125 0 
L 9.078125 54.6875 
L 18.109375 54.6875 
L 18.109375 46.1875 
Q 20.953125 51.171875 25.484375 53.578125 
Q 30.03125 56 36.53125 56 
Q 37.453125 56 38.578125 55.875 
Q 39.703125 55.765625 41.0625 55.515625 
z
" id="DejaVuSans-72"/>
     <path d="M 64.40625 67.28125 
L 64.40625 56.890625 
Q 59.421875 61.53125 53.78125 63.8125 
Q 48.140625 66.109375 41.796875 66.109375 
Q 29.296875 66.109375 22.65625 58.46875 
Q 16.015625 50.828125 16.015625 36.375 
Q 16.015625 21.96875 22.65625 14.328125 
Q 29.296875 6.6875 41.796875 6.6875 
Q 48.140625 6.6875 53.78125 8.984375 
Q 59.421875 11.28125 64.40625 15.921875 
L 64.40625 5.609375 
Q 59.234375 2.09375 53.4375 0.328125 
Q 47.65625 -1.421875 41.21875 -1.421875 
Q 24.65625 -1.421875 15.125 8.703125 
Q 5.609375 18.84375 5.609375 36.375 
Q 5.609375 53.953125 15.125 64.078125 
Q 24.65625 74.21875 41.21875 74.21875 
Q 47.75 74.21875 53.53125 72.484375 
Q 59.328125 70.75 64.40625 67.28125 
z
" id="DejaVuSans-43"/>
     <path d="M 18.109375 8.203125 
L 18.109375 -20.796875 
L 9.078125 -20.796875 
L 9.078125 54.6875 
L 18.109375 54.6875 
L 18.109375 46.390625 
Q 20.953125 51.265625 25.265625 53.625 
Q 29.59375 56 35.59375 56 
Q 45.5625 56 51.78125 48.09375 
Q 58.015625 40.1875 58.015625 27.296875 
Q 58.015625 14.40625 51.78125 6.484375 
Q 45.5625 -1.421875 35.59375 -1.421875 
Q 29.59375 -1.421875 25.265625 0.953125 
Q 20.953125 3.328125 18.109375 8.203125 
z
M 48.6875 27.296875 
Q 48.6875 37.203125 44.609375 42.84375 
Q 40.53125 48.484375 33.40625 48.484375 
Q 26.265625 48.484375 22.1875 42.84375 
Q 18.109375 37.203125 18.109375 27.296875 
Q 18.109375 17.390625 22.1875 11.75 
Q 26.265625 6.109375 33.40625 6.109375 
Q 40.53125 6.109375 44.609375 11.75 
Q 48.6875 17.390625 48.6875 27.296875 
z
" id="DejaVuSans-70"/>
     <path d="M 53.609375 72.90625 
L 62.109375 60.40625 
L 70.125 72.90625 
L 78.421875 72.90625 
L 78.421875 44.671875 
L 72.90625 44.671875 
L 72.90625 68.3125 
L 63.375 53.515625 
L 60.6875 53.515625 
L 50.78125 68.3125 
L 50.78125 44.671875 
L 45.21875 44.671875 
L 45.21875 72.90625 
z
M 39.703125 72.90625 
L 39.703125 68.3125 
L 29.78125 68.3125 
L 29.78125 44.671875 
L 24.21875 44.671875 
L 24.21875 68.3125 
L 14.40625 68.3125 
L 14.40625 72.90625 
z
" id="DejaVuSans-2122"/>
    </defs>
    <g transform="translate(180.516562 29.052)scale(0.12 -0.12)">
     <use xlink:href="#DejaVuSans-4b"/>
     <use x="65.560547" xlink:href="#DejaVuSans-61"/>
     <use x="126.839844" xlink:href="#DejaVuSans-75"/>
     <use x="190.21875" xlink:href="#DejaVuSans-72"/>
     <use x="231.332031" xlink:href="#DejaVuSans-43"/>
     <use x="301.15625" xlink:href="#DejaVuSans-75"/>
     <use x="364.535156" xlink:href="#DejaVuSans-75"/>
     <use x="427.914062" xlink:href="#DejaVuSans-70"/>
     <use x="491.390625" xlink:href="#DejaVuSans-2122"/>
    </g>
   </g>
  </g>
 </g>
 <defs>
  <clipPath id="p4cb6566757">
   <rect height="259.4" width="403.4" x="14.3" y="14.3"/>
  </clipPath>
 </defs>
</svg>
